Ardusan Sans.sfdir
StartChar: exclam
Encoding: 2 33 97
Width: 525
Flags: W
AnchorPoint: "Anchor-18" 27 0 basechar 0
AnchorPoint: "Anchor-17" 27 0 basechar 0
AnchorPoint: "Anchor-16" 284 739 basechar 0
AnchorPoint: "Anchor-15" 27 0 basechar 0
AnchorPoint: "Anchor-14" 291 0 basechar 0
LayerCount: 2
Fore
SplineSet
245 0 m 1,0,-1
 245 302 l 1,1,-1
 231 306 l 2,2,3
 152 328 152 328 102 378 c 128,-1,4
 52 428 52 428 52 526 c 0,5,6
 52 592 52 592 80.5 642.5 c 128,-1,7
 109 693 109 693 161 721.5 c 128,-1,8
 213 750 213 750 282 750 c 0,9,10
 341 750 341 750 388 729 c 128,-1,11
 435 708 435 708 479 665 c 1,12,-1
 429 613 l 1,13,14
 393 645 393 645 359.5 660.5 c 128,-1,15
 326 676 326 676 285 676 c 0,16,17
 220 676 220 676 185 636 c 128,-1,18
 150 596 150 596 150 525 c 0,19,20
 150 455 150 455 182.5 419.5 c 128,-1,21
 215 384 215 384 276 366 c 2,22,-1
 337 348 l 1,23,-1
 337 0 l 1,24,-1
 245 0 l 1,0,-1
EndSplineSet
Validated: 1
EndChar
StartChar: numbersign
Encoding: 4 35 99
Width: 590
Flags: W
LayerCount: 2
Fore
SplineSet
539 447 m 1,0,-1
 463 447 l 1,1,-1
 435 232 l 1,2,-1
 502 232 l 1,3,-1
 502 163 l 1,4,-1
 425 163 l 1,5,-1
 404 0 l 1,6,-1
 326 0 l 1,7,-1
 347 163 l 1,8,-1
 193 163 l 1,9,-1
 172 0 l 1,10,-1
 94 0 l 1,11,-1
 115 163 l 1,12,-1
 51 163 l 1,13,-1
 51 232 l 1,14,-1
 125 232 l 1,15,-1
 153 447 l 1,16,-1
 88 447 l 1,17,-1
 88 517 l 1,18,-1
 162 517 l 1,19,-1
 182 669 l 1,20,-1
 260 669 l 1,21,-1
 240 517 l 1,22,-1
 394 517 l 1,23,-1
 414 669 l 1,24,-1
 492 669 l 1,25,-1
 472 517 l 1,26,-1
 539 517 l 1,27,-1
 539 447 l 1,0,-1
357 232 m 1,28,-1
 385 447 l 1,29,-1
 231 447 l 1,30,-1
 203 232 l 1,31,-1
 357 232 l 1,28,-1
EndSplineSet
Validated: 1
EndChar
StartChar: dollar
Encoding: 5 36 162
Width: 644
GlyphClass: 2
Flags: W
AnchorPoint: "Anchor-18" 8 0 basechar 0
AnchorPoint: "Anchor-17" 8 0 basechar 0
AnchorPoint: "Anchor-16" 322 739 basechar 0
AnchorPoint: "Anchor-15" 8 0 basechar 0
AnchorPoint: "Anchor-14" 322 -202 basechar 0
LayerCount: 2
Fore
SplineSet
530 77.5 m 128,-1,1
 470 9 470 9 368 3 c 1,2,-1
 368 -202 l 1,3,-1
 276 -213 l 1,4,-1
 276 4 l 1,5,6
 170 11 170 11 112 79.5 c 128,-1,7
 54 148 54 148 54 263 c 0,8,9
 54 382 54 382 114 450.5 c 128,-1,10
 174 519 174 519 276 524 c 1,11,-1
 276 738 l 1,12,-1
 368 748 l 1,13,-1
 368 523 l 1,14,15
 475 516 475 516 532.5 448 c 128,-1,16
 590 380 590 380 590 265 c 0,17,0
 590 146 590 146 530 77.5 c 128,-1,1
184.5 129 m 128,-1,19
 216 81 216 81 279 76 c 1,20,-1
 279 453 l 1,21,22
 214 446 214 446 183.5 398.5 c 128,-1,23
 153 351 153 351 153 263 c 0,24,18
 153 177 153 177 184.5 129 c 128,-1,19
491 265 m 0,26,27
 491 349 491 349 459 397.5 c 128,-1,28
 427 446 427 446 365 451 c 1,29,-1
 365 75 l 1,30,25
 491 90 491 90 491 265 c 0,26,27
EndSplineSet
Validated: 1
EndChar
StartChar: percent
Encoding: 6 37 215
Width: 840
GlyphClass: 2
Flags: W
LayerCount: 2
Fore
SplineSet
619 711 m 1,0,-1
 683 669 l 1,1,-1
 220 -31 l 1,2,-1
 156 11 l 1,3,-1
 619 711 l 1,0,-1
330.5 633 m 128,-1,5
 376 587 376 587 376 510 c 256,6,7
 376 433 376 433 330.5 387 c 128,-1,8
 285 341 285 341 213 341 c 0,9,10
 142 341 142 341 96.5 387 c 128,-1,11
 51 433 51 433 51 510 c 256,12,13
 51 587 51 587 96.5 633 c 128,-1,14
 142 679 142 679 213 679 c 0,15,4
 285 679 285 679 330.5 633 c 128,-1,5
150.5 587 m 128,-1,17
 132 557 132 557 132 510 c 0,18,19
 132 464 132 464 150.5 433.5 c 128,-1,20
 169 403 169 403 213 403 c 0,21,22
 294 403 294 403 294 510 c 0,23,24
 294 556 294 556 276 586.5 c 128,-1,25
 258 617 258 617 213 617 c 0,26,16
 169 617 169 617 150.5 587 c 128,-1,17
742 280 m 128,-1,28
 787 234 787 234 787 157 c 256,29,30
 787 80 787 80 742 34 c 128,-1,31
 697 -12 697 -12 625 -12 c 256,32,33
 553 -12 553 -12 507.5 34 c 128,-1,34
 462 80 462 80 462 157 c 256,35,36
 462 234 462 234 507.5 280 c 128,-1,37
 553 326 553 326 625 326 c 256,38,27
 697 326 697 326 742 280 c 128,-1,28
562.5 233.5 m 128,-1,40
 544 204 544 204 544 157 c 0,41,42
 544 111 544 111 562.5 80.5 c 128,-1,43
 581 50 581 50 625 50 c 0,44,45
 706 50 706 50 706 157 c 0,46,47
 706 203 706 203 688 233 c 128,-1,48
 670 263 670 263 625 263 c 0,49,39
 581 263 581 263 562.5 233.5 c 128,-1,40
EndSplineSet
Validated: 1
EndChar
StartChar: ampersand
Encoding: 38 38 2423
Width: 729
GlyphClass: 2
Flags: W
LayerCount: 2
Fore
SplineSet
397.5 681.5 m 128,-1,1
 439 662 439 662 462 627 c 128,-1,2
 485 592 485 592 485 549 c 0,3,4
 485 490 485 490 447.5 447.5 c 128,-1,5
 410 405 410 405 344 366 c 1,6,-1
 520 200 l 1,7,8
 560 281 560 281 580 369 c 1,9,-1
 666 344 l 1,10,11
 631 228 631 228 577 147 c 1,12,-1
 689 42 l 1,13,-1
 623 -12 l 1,14,-1
 526 82 l 1,15,16
 483 35 483 35 429 11.5 c 128,-1,17
 375 -12 375 -12 305 -12 c 0,18,19
 239 -12 239 -12 188.5 11 c 128,-1,20
 138 34 138 34 109.5 76.5 c 128,-1,21
 81 119 81 119 81 175 c 0,22,23
 81 237 81 237 116 283.5 c 128,-1,24
 151 330 151 330 220 374 c 1,25,26
 170 422 170 422 146.5 460 c 128,-1,27
 123 498 123 498 123 546 c 0,28,29
 123 614 123 614 170.5 657.5 c 128,-1,30
 218 701 218 701 302 701 c 0,31,0
 356 701 356 701 397.5 681.5 c 128,-1,1
237 609 m 128,-1,33
 213 585 213 585 213 547 c 0,34,35
 213 511 213 511 232 482.5 c 128,-1,36
 251 454 251 454 292 415 c 1,37,38
 343 446 343 446 369 476.5 c 128,-1,39
 395 507 395 507 395 544 c 0,40,41
 395 586 395 586 370 609.5 c 128,-1,42
 345 633 345 633 303 633 c 256,43,32
 261 633 261 633 237 609 c 128,-1,33
199 256.5 m 128,-1,45
 175 222 175 222 175 178 c 0,46,47
 175 123 175 123 213.5 92 c 128,-1,48
 252 61 252 61 315 61 c 0,49,50
 362 61 362 61 400 79 c 128,-1,51
 438 97 438 97 473 133 c 1,52,-1
 273 324 l 1,53,44
 223 291 223 291 199 256.5 c 128,-1,45
EndSplineSet
Validated: 1
Substitution2: "'ss03' Style Set 3 lookup 35 subtable" ampersand.ss03
Substitution2: "'salt' Stylistic Alternatives lookup 32 subtable" ampersand.ss03
Substitution2: "'aalt' Access All Alternates lookup 0 subtable" ampersand.ss03
EndChar
StartChar: quotesingle
Encoding: 8 39 105
Width: 226
Flags: W
LayerCount: 2
Fore
SplineSet
78 427 m 1,0,-1
 63 689 l 1,1,-1
 162 689 l 1,2,-1
 147 427 l 1,3,-1
 78 427 l 1,0,-1
EndSplineSet
Validated: 1
EndChar
StartChar: parenleft
Encoding: 40 40 2190
Width: 324
Flags: W
LayerCount: 2
Fore
SplineSet
284 805 m 1,0,1
 232 728 232 728 201.5 667.5 c 128,-1,2
 171 607 171 607 153.5 530 c 128,-1,3
 136 453 136 453 136 350 c 0,4,5
 136 248 136 248 153.5 171 c 128,-1,6
 171 94 171 94 201.5 32.5 c 128,-1,7
 232 -29 232 -29 284 -105 c 1,8,-1
 226 -145 l 1,9,10
 160 -51 160 -51 124.5 9.5 c 128,-1,11
 89 70 89 70 64.5 154.5 c 128,-1,12
 40 239 40 239 40 350 c 256,13,14
 40 461 40 461 64.5 545.5 c 128,-1,15
 89 630 89 630 124.5 690.5 c 128,-1,16
 160 751 160 751 226 845 c 1,17,-1
 284 805 l 1,0,1
EndSplineSet
Validated: 1
Substitution2: "'case' Case-Sensitive Forms lookup 28 subtable" parenleft.case
Substitution2: "'dnom' Denominators lookup 16 subtable" parenleft.dnom
Substitution2: "'numr' Numerators lookup 15 subtable" parenleft.numr
Substitution2: "'sups' Superscript lookup 14 subtable" uni207D
Substitution2: "'subs' Subscript lookup 13 subtable" uni208D
AlternateSubs2: "'aalt' Access All Alternates lookup 1 subtable" uni208D uni207D parenleft.numr parenleft.dnom parenleft.case
EndChar
StartChar: parenright
Encoding: 10 41 123
Width: 342
Flags: W
LayerCount: 2
Fore
SplineSet
201.5 690.5 m 128,-1,1
 237 630 237 630 261.5 545.5 c 128,-1,2
 286 461 286 461 286 350 c 256,3,4
 286 239 286 239 261.5 154.5 c 128,-1,5
 237 70 237 70 201.5 9.5 c 128,-1,6
 166 -51 166 -51 100 -145 c 1,7,-1
 42 -105 l 1,8,9
 94 -29 94 -29 124.5 32.5 c 128,-1,10
 155 94 155 94 172.5 171 c 128,-1,11
 190 248 190 248 190 350 c 0,12,13
 190 453 190 453 172.5 530 c 128,-1,14
 155 607 155 607 124.5 667.5 c 128,-1,15
 94 728 94 728 42 805 c 1,16,-1
 100 845 l 1,17,0
 166 751 166 751 201.5 690.5 c 128,-1,1
EndSplineSet
Validated: 1
Substitution2: "'case' Case-Sensitive Forms lookup 28 subtable" parenright.case
EndChar
StartChar: asterisk
Encoding: 42 42 2148
Width: 439
Flags: W
LayerCount: 2
Fore
SplineSet
419 561 m 1,0,-1
 266 528 l 1,1,-1
 370 412 l 1,2,-1
 298 359 l 1,3,-1
 219 493 l 1,4,-1
 141 359 l 1,5,-1
 69 411 l 1,6,-1
 172 528 l 1,7,-1
 20 561 l 1,8,-1
 47 643 l 1,9,-1
 189 582 l 1,10,-1
 174 739 l 1,11,-1
 264 739 l 1,12,-1
 249 581 l 1,13,-1
 391 644 l 1,14,-1
 419 561 l 1,0,-1
EndSplineSet
Validated: 1
EndChar
StartChar: plus
Encoding: 12 43 170
Width: 500
GlyphClass: 2
Flags: W
LayerCount: 2
Fore
SplineSet
291 519 m 1,0,-1
 291 369 l 1,1,-1
 437 369 l 1,2,-1
 437 293 l 1,3,-1
 291 293 l 1,4,-1
 291 144 l 1,5,-1
 207 144 l 1,6,-1
 207 293 l 1,7,-1
 62 293 l 1,8,-1
 62 369 l 1,9,-1
 207 369 l 1,10,-1
 207 519 l 1,11,-1
 291 519 l 1,0,-1
EndSplineSet
Validated: 1
EndChar
StartChar: comma
Encoding: 44 44 2155
Width: 240
Flags: W
LayerCount: 2
Fore
SplineSet
169 360 m 128,-1,1
 189 340 189 340 189 311 c 256,2,3
 189 282 189 282 169 261.5 c 128,-1,4
 149 241 149 241 119 241 c 0,5,6
 90 241 90 241 70 261.5 c 128,-1,7
 50 282 50 282 50 311 c 256,8,9
 50 340 50 340 70 360 c 128,-1,10
 90 380 90 380 119 380 c 0,11,0
 149 380 149 380 169 360 c 128,-1,1
EndSplineSet
Validated: 1
EndChar
StartChar: slash
Encoding: 16 47 107
Width: 391
Flags: W
LayerCount: 2
Fore
SplineSet
272 807 m 1,0,-1
 350 789 l 1,1,-1
 119 -104 l 1,2,-1
 40 -85 l 1,3,-1
 272 807 l 1,0,-1
EndSplineSet
Validated: 1
EndChar
StartChar: zero
Encoding: 17 48 75
Width: 599
Flags: W
AnchorPoint: "Anchor-18" 7 0 basechar 0
AnchorPoint: "Anchor-17" 483 527 basechar 0
AnchorPoint: "Anchor-16" 299 527 basechar 0
AnchorPoint: "Anchor-15" 386 0 basechar 0
AnchorPoint: "Anchor-14" 299 0 basechar 0
LayerCount: 2
Fore
SplineSet
472.5 465 m 128,-1,1
 534 391 534 391 534 264 c 0,2,3
 534 182 534 182 506 119.5 c 128,-1,4
 478 57 478 57 425 22.5 c 128,-1,5
 372 -12 372 -12 299 -12 c 0,6,7
 188 -12 188 -12 126 62 c 128,-1,8
 64 136 64 136 64 263 c 0,9,10
 64 345 64 345 92 407.5 c 128,-1,11
 120 470 120 470 173 504.5 c 128,-1,12
 226 539 226 539 300 539 c 0,13,0
 411 539 411 539 472.5 465 c 128,-1,1
163 263 m 0,15,16
 163 62 163 62 299 62 c 256,17,18
 435 62 435 62 435 264 c 0,19,20
 435 465 435 465 300 465 c 0,21,14
 163 465 163 465 163 263 c 0,15,16
EndSplineSet
Validated: 1
EndChar
StartChar: one
Encoding: 49 49 2048
Width: 282
Flags: W
AnchorPoint: "Anchor-18" 0 0 basechar 0
AnchorPoint: "Anchor-17" 0 0 basechar 0
AnchorPoint: "Anchor-16" 141 527 basechar 0
AnchorPoint: "Anchor-15" 197 0 basechar 0
AnchorPoint: "Anchor-14" 141 0 basechar 0
LayerCount: 2
Fore
SplineSet
187 527 m 1,0,-1
 187 0 l 1,1,-1
 95 0 l 1,2,-1
 95 527 l 1,3,-1
 187 527 l 1,0,-1
EndSplineSet
Validated: 1
Substitution2: "'onum' Oldstyle Figures lookup 25 subtable" one.osf
Substitution2: "'tnum' Tabular Numbers lookup 24 subtable" one.tf
Substitution2: "'frac' Diagonal Fractions lookup 18 subtable" one.numr
Substitution2: "'dnom' Denominators lookup 16 subtable" one.dnom
Substitution2: "'numr' Numerators lookup 15 subtable" one.numr
Substitution2: "'sups' Superscript lookup 14 subtable" uni00B9
Substitution2: "'subs' Subscript lookup 13 subtable" uni2081
AlternateSubs2: "'aalt' Access All Alternates lookup 1 subtable" uni2081 uni00B9 one.numr one.dnom one.tf one.osf
EndChar
StartChar: two
Encoding: 50 50 2049
Width: 625
Flags: W
AnchorPoint: "Anchor-18" 0 0 basechar 0
AnchorPoint: "Anchor-17" 0 0 basechar 0
AnchorPoint: "Anchor-16" 322 564 basechar 0
AnchorPoint: "Anchor-15" 0 0 basechar 0
AnchorPoint: "Anchor-14" 313 0 basechar 0
LayerCount: 2
Fore
SplineSet
525 0 m 1,0,-1
 402 0 l 1,1,-1
 172 473 l 1,2,-1
 175 445 l 2,3,4
 176 435 176 435 180.5 378.5 c 128,-1,5
 185 322 185 322 185 246 c 2,6,-1
 185 0 l 1,7,-1
 100 0 l 1,8,-1
 100 564 l 1,9,-1
 220 564 l 1,10,-1
 453 89 l 1,11,12
 449 107 449 107 444.5 167 c 128,-1,13
 440 227 440 227 440 277 c 2,14,-1
 440 564 l 1,15,-1
 525 564 l 1,16,-1
 525 0 l 1,0,-1
EndSplineSet
Validated: 1
Substitution2: "'onum' Oldstyle Figures lookup 25 subtable" two.osf
Substitution2: "'tnum' Tabular Numbers lookup 24 subtable" two.tf
Substitution2: "'frac' Diagonal Fractions lookup 18 subtable" two.numr
Substitution2: "'dnom' Denominators lookup 16 subtable" two.dnom
Substitution2: "'numr' Numerators lookup 15 subtable" two.numr
Substitution2: "'sups' Superscript lookup 14 subtable" uni00B2
Substitution2: "'subs' Subscript lookup 13 subtable" uni2082
AlternateSubs2: "'aalt' Access All Alternates lookup 1 subtable" uni2082 uni00B2 two.numr two.dnom two.tf two.osf
EndChar
StartChar: three
Encoding: 51 51 2050
Width: 895
Flags: W
HStem: -211 96<310.625 585.715> -20 20G<95 188.5 712.5 805> 0 21G<95 187 404 496 713 805> 467 72<564.283 690.338> 507 20G<95 187 404 496>
VStem: 95 92<-50.2663 527> 404 92<0 374 449 527> 404 79<458.75 527> 713 92<-45.9448 443.273>
AnchorPoint: "Anchor-18" 0 0 basechar 0
AnchorPoint: "Anchor-17" 0 0 basechar 0
AnchorPoint: "Anchor-16" 453 527 basechar 0
AnchorPoint: "Anchor-15" 513 2 basechar 0
AnchorPoint: "Anchor-14" 450 -2 basechar 0
LayerCount: 2
Fore
SplineSet
764.5 496 m 132,-1,1
 805 453 805 453 805 378 c 6,2,-1
 805 0 l 5,3,4
 801 -65 801 -65 782 -80 c 4,5,6
 620 -211 620 -211 448 -211 c 4,7,8
 447 -211 447 -211 445 -211 c 4,9,10
 444 -211 444 -211 442 -211 c 4,11,12
 271 -211 271 -211 118 -83 c 4,13,14
 95 -64 95 -64 95 0 c 6,15,-1
 95 527 l 5,16,-1
 187 527 l 5,17,-1
 187 0 l 6,18,19
 187 -40 187 -40 231 -69 c 4,20,21
 246 -79 246 -79 294 -94 c 4,22,23
 364 -115 364 -115 448 -115 c 4,24,25
 530 -115 530 -115 605 -93 c 4,26,27
 666 -75 666 -75 675 -65 c 4,28,29
 713 -21 713 -21 713 0 c 6,30,-1
 713 365 l 6,31,32
 713 421 713 421 692 444 c 132,-1,33
 671 467 671 467 630 467 c 4,34,35
 588 467 588 467 556 443 c 132,-1,36
 524 419 524 419 496 374 c 5,37,-1
 496 0 l 5,38,-1
 404 0 l 5,39,-1
 404 527 l 5,40,-1
 483 527 l 5,41,-1
 496 527 l 5,42,-1
 496 456 l 5,43,44
 523 493 523 493 560 515 c 4,45,46
 601 539 601 539 652 539 c 4,47,0
 724 539 724 539 764.5 496 c 132,-1,1
EndSplineSet
Validated: 8388609
Substitution2: "'onum' Oldstyle Figures lookup 25 subtable" three.osf
Substitution2: "'tnum' Tabular Numbers lookup 24 subtable" three.tf
Substitution2: "'frac' Diagonal Fractions lookup 18 subtable" three.numr
Substitution2: "'dnom' Denominators lookup 16 subtable" three.dnom
Substitution2: "'numr' Numerators lookup 15 subtable" three.numr
Substitution2: "'sups' Superscript lookup 14 subtable" uni00B3
Substitution2: "'subs' Subscript lookup 13 subtable" uni2083
AlternateSubs2: "'aalt' Access All Alternates lookup 1 subtable" uni2083 uni00B3 three.numr three.dnom three.tf three.osf
EndChar
StartChar: four
Encoding: 21 52 79
Width: 581
Flags: W
AnchorPoint: "Anchor-18" 13 0 basechar 0
AnchorPoint: "Anchor-17" 13 0 basechar 0
AnchorPoint: "Anchor-16" 311 527 basechar 0
AnchorPoint: "Anchor-15" 13 0 basechar 0
AnchorPoint: "Anchor-14" 306 0 basechar 0
LayerCount: 2
Fore
SplineSet
469 458 m 6,0,-1
 509 378 l 5,1,-1
 509 232 l 5,2,-1
 431 232 l 5,3,-1
 431 231 l 5,4,-1
 200 231 l 5,5,-1
 200 98 l 5,6,7
 205 93 205 93 258 93 c 6,8,-1
 342 93 l 6,9,10
 395 93 395 93 436 74 c 132,-1,11
 477 55 477 55 499.5 22 c 132,-1,12
 522 -11 522 -11 522 -53 c 4,13,14
 522 -130 522 -130 459 -171.5 c 132,-1,15
 396 -213 396 -213 275 -213 c 4,16,17
 190 -213 190 -213 140.5 -195.5 c 132,-1,18
 91 -178 91 -178 70 -143 c 132,-1,19
 49 -108 49 -108 49 -53 c 5,20,-1
 132 -53 l 5,21,22
 132 -85 132 -85 144 -103.5 c 132,-1,23
 156 -122 156 -122 187 -131.5 c 132,-1,24
 218 -141 218 -141 275 -141 c 4,25,26
 358 -141 358 -141 393.5 -120.5 c 132,-1,27
 429 -100 429 -100 429 -59 c 4,28,29
 429 -22 429 -22 401 -3 c 132,-1,30
 373 16 373 16 323 16 c 6,31,-1
 240 16 l 6,32,33
 173 16 173 16 140.5 35.5 c 132,-1,34
 108 55 108 55 108 98 c 6,35,-1
 108 527 l 5,36,-1
 187 527 l 5,37,-1
 195 449 l 5,38,39
 223 491 223 491 264.5 515 c 132,-1,40
 306 539 306 539 356 539 c 4,41,42
 428 539 428 539 469 458 c 6,0,-1
200 302 m 5,43,-1
 417 302 l 5,44,-1
 417 365 l 5,45,-1
 396 416 l 6,46,47
 375 467 375 467 334 467 c 4,48,49
 292 467 292 467 260 443 c 132,-1,50
 228 419 228 419 200 374 c 5,51,-1
 200 302 l 5,43,-1
EndSplineSet
Validated: 1
EndChar
StartChar: five
Encoding: 22 53 80
Width: 863
Flags: W
AnchorPoint: "Anchor-18" -22 0 basechar 0
AnchorPoint: "Anchor-17" -22 0 basechar 0
AnchorPoint: "Anchor-16" 438 527 basechar 0
AnchorPoint: "Anchor-15" -22 0 basechar 0
AnchorPoint: "Anchor-14" 437 4 basechar 0
AnchorPoint: "Anchor-8" -22 0 basechar 0
AnchorPoint: "Anchor-7" -22 0 basechar 0
AnchorPoint: "Anchor-6" -22 0 basechar 0
AnchorPoint: "Anchor-5" 440 527 basechar 0
AnchorPoint: "Anchor-4" 438 2 basechar 0
LayerCount: 2
Fore
SplineSet
751.5 496 m 132,-1,1
 792 453 792 453 792 378 c 6,2,-1
 792 0 l 5,3,-1
 700 0 l 5,4,-1
 700 365 l 6,5,6
 700 421 700 421 679 444 c 132,-1,7
 658 467 658 467 617 467 c 4,8,9
 575 467 575 467 543 443 c 132,-1,10
 511 419 511 419 483 374 c 5,11,-1
 483 0 l 5,12,-1
 392 0 l 5,13,-1
 392 238 l 6,14,15
 392 298 392 298 396 352 c 132,-1,16
 400 406 400 406 403 423 c 5,17,-1
 182 0 l 5,18,-1
 73 0 l 5,19,-1
 73 527 l 5,20,-1
 164 527 l 5,21,-1
 164 289 l 6,22,23
 164 236 164 236 160 179.5 c 132,-1,24
 156 123 156 123 154 107 c 5,25,-1
 372 527 l 5,26,-1
 470 527 l 5,27,-1
 483 527 l 5,28,-1
 483 456 l 5,29,30
 510 493 510 493 548 515 c 4,31,32
 588 539 588 539 639 539 c 4,33,0
 711 539 711 539 751.5 496 c 132,-1,1
EndSplineSet
Validated: 1
EndChar
StartChar: six
Encoding: 23 54 81
Width: 778
Flags: W
AnchorPoint: "Anchor-9" 387 0 basechar 0
AnchorPoint: "Anchor-10" 389 527 basechar 0
AnchorPoint: "Anchor-11" 0 0 basechar 0
AnchorPoint: "Anchor-12" 0 0 basechar 0
AnchorPoint: "Anchor-13" 0 0 basechar 0
LayerCount: 2
Fore
SplineSet
696 389.5 m 132,-1,1
 713 321 713 321 713 239 c 4,2,3
 713 113 713 113 661 50.5 c 132,-1,4
 609 -12 609 -12 527 -12 c 4,5,6
 471 -12 471 -12 435 17.5 c 132,-1,7
 399 47 399 47 390 105 c 5,8,9
 377 44 377 44 341.5 16 c 132,-1,10
 306 -12 306 -12 244 -12 c 4,11,12
 165 -12 165 -12 115 49.5 c 132,-1,13
 65 111 65 111 65 239 c 4,14,15
 65 322 65 322 81.5 390.5 c 132,-1,16
 98 459 98 459 126 527 c 5,17,-1
 217 527 l 5,18,19
 185 442 185 442 171.5 376 c 132,-1,20
 158 310 158 310 158 238 c 4,21,22
 158 147 158 147 183 104.5 c 132,-1,23
 208 62 208 62 258 62 c 4,24,25
 300 62 300 62 322.5 87 c 132,-1,26
 345 112 345 112 345 181 c 6,27,-1
 345 355 l 5,28,-1
 433 367 l 5,29,-1
 433 181 l 6,30,31
 433 62 433 62 517 62 c 4,32,33
 620 62 620 62 620 240 c 4,34,35
 620 309 620 309 605.5 375 c 132,-1,36
 591 441 591 441 559 527 c 5,37,-1
 651 527 l 5,38,0
 679 458 679 458 696 389.5 c 132,-1,1
EndSplineSet
Validated: 1
EndChar
StartChar: seven
Encoding: 24 55 82
Width: 778
Flags: W
AnchorPoint: "Anchor-9" 387 0 basechar 0
AnchorPoint: "Anchor-10" 389 527 basechar 0
AnchorPoint: "Anchor-11" 0 0 basechar 0
AnchorPoint: "Anchor-12" 0 0 basechar 0
AnchorPoint: "Anchor-13" 0 0 basechar 0
LayerCount: 2
Fore
SplineSet
696 389.5 m 132,-1,1
 713 321 713 321 713 239 c 4,2,3
 713 113 713 113 661 50.5 c 132,-1,4
 609 -12 609 -12 527 -12 c 4,5,6
 471 -12 471 -12 435 17.5 c 132,-1,7
 399 47 399 47 390 105 c 5,8,9
 377 44 377 44 341.5 16 c 132,-1,10
 306 -12 306 -12 244 -12 c 4,11,12
 165 -12 165 -12 115 49.5 c 132,-1,13
 65 111 65 111 65 239 c 4,14,15
 65 322 65 322 81.5 390.5 c 132,-1,16
 98 459 98 459 126 527 c 5,17,-1
 165 527 l 5,18,-1
 217 527 l 5,19,-1
 559 527 l 5,20,-1
 613 527 l 5,21,-1
 651 527 l 5,22,0
 679 458 679 458 696 389.5 c 132,-1,1
190 449 m 5,23,24
 178 410 178 410 172 376 c 4,25,26
 158 305 158 305 158 238 c 4,27,28
 158 147 158 147 183 104.5 c 132,-1,29
 208 62 208 62 258 62 c 4,30,31
 300 62 300 62 322.5 87 c 132,-1,32
 345 112 345 112 345 181 c 6,33,-1
 345 355 l 5,34,-1
 433 367 l 5,35,-1
 433 181 l 6,36,37
 433 62 433 62 517 62 c 4,38,39
 620 62 620 62 620 240 c 4,40,41
 620 316 620 316 606 375 c 4,42,43
 598 409 598 409 586 449 c 5,44,-1
 190 449 l 5,23,24
EndSplineSet
Validated: 1
EndChar
StartChar: eight
Encoding: 25 56 83
Width: 534
Flags: W
AnchorPoint: "Anchor-18" -24 0 basechar 0
AnchorPoint: "Anchor-17" -24 0 basechar 0
AnchorPoint: "Anchor-16" 274 527 basechar 0
AnchorPoint: "Anchor-15" -24 0 basechar 0
AnchorPoint: "Anchor-14" 269 0 basechar 0
LayerCount: 2
Fore
SplineSet
319 539 m 4,0,1
 391 539 391 539 431.5 496 c 132,-1,2
 472 453 472 453 472 378 c 6,3,-1
 472 328 l 5,4,-1
 472 32 l 5,5,-1
 472 0 l 5,6,-1
 471 0 l 5,7,8
 468 -51 468 -51 454 -85 c 4,9,10
 436 -129 436 -129 401.5 -156.5 c 132,-1,11
 367 -184 367 -184 305 -212 c 5,12,-1
 278 -145 l 5,13,14
 317 -127 317 -127 338 -109.5 c 132,-1,15
 359 -92 359 -92 369.5 -60.5 c 132,-1,16
 380 -29 380 -29 380 26 c 6,17,-1
 380 328 l 5,18,-1
 380 365 l 6,19,20
 380 420 380 420 358 444 c 4,21,22
 337 467 337 467 296 467 c 132,-1,23
 255 467 255 467 223 443 c 132,-1,24
 191 419 191 419 163 374 c 5,25,-1
 163 0 l 5,26,-1
 71 0 l 5,27,-1
 71 527 l 5,28,-1
 71 738 l 5,29,-1
 163 748 l 5,30,-1
 163 456 l 5,31,32
 190 493 190 493 228 515 c 4,33,34
 268 539 268 539 319 539 c 4,0,1
EndSplineSet
Validated: 1
EndChar
StartChar: nine
Encoding: 26 57 84
Width: 530
Flags: W
AnchorPoint: "Anchor-18" -23 0 basechar 0
AnchorPoint: "Anchor-17" 474 527 basechar 0
AnchorPoint: "Anchor-16" 266 527 basechar 0
AnchorPoint: "Anchor-15" 474 0 basechar 0
AnchorPoint: "Anchor-14" 266 0 basechar 0
LayerCount: 2
Fore
SplineSet
464 32 m 6,0,1
 464 -41 464 -41 446 -85 c 132,-1,2
 428 -129 428 -129 393.5 -156.5 c 132,-1,3
 359 -184 359 -184 297 -212 c 5,4,-1
 270 -145 l 5,5,6
 309 -127 309 -127 330 -109.5 c 132,-1,7
 351 -92 351 -92 361.5 -60.5 c 132,-1,8
 372 -29 372 -29 372 26 c 6,9,-1
 372 73 l 5,10,11
 344 31 344 31 309 10 c 4,12,13
 271 -12 271 -12 214 -12 c 4,14,15
 145 -12 145 -12 120 36 c 4,16,17
 67 133 67 133 67 149 c 6,18,-1
 67 689 l 5,19,-1
 159 689 l 5,20,-1
 159 159 l 6,21,22
 159 127 159 127 188 87 c 4,23,24
 207 60 207 60 240 60 c 4,25,26
 317 60 317 60 372 151 c 5,27,-1
 372 527 l 5,28,-1
 464 527 l 5,29,-1
 464 32 l 6,0,1
EndSplineSet
Validated: 1
EndChar
StartChar: colon
Encoding: 58 58 2154
Width: 500
Flags: W
LayerCount: 2
Fore
SplineSet
438 361 m 1,0,-1
 438 141 l 1,1,-1
 355 141 l 1,2,-1
 355 284 l 1,3,-1
 62 284 l 1,4,-1
 62 361 l 1,5,-1
 438 361 l 1,0,-1
EndSplineSet
Validated: 1
EndChar
StartChar: semicolon
Encoding: 28 59 106
Width: 362
Flags: W
AnchorPoint: "Anchor-1" 182 527 mark 0
AnchorPoint: "Anchor-5" 182 527 mark 0
AnchorPoint: "Anchor-10" 182 527 mark 0
AnchorPoint: "Anchor-16" 182 527 mark 0
AnchorPoint: "Anchor-20" 182 527 mark 0
AnchorPoint: "Anchor-20" 184 801 basemark 0
AnchorPoint: "Anchor-23" 182 527 mark 0
LayerCount: 2
Fore
SplineSet
261 801 m 5,0,-1
 302 724 l 5,1,-1
 90 638 l 5,2,-1
 62 687 l 5,3,-1
 261 801 l 5,0,-1
EndSplineSet
Validated: 1
EndChar
StartChar: less
Encoding: 60 60 2322
Width: 500
GlyphClass: 2
Flags: W
LayerCount: 2
Fore
SplineSet
417 551 m 1,0,-1
 450 475 l 1,1,-1
 123 333 l 1,2,-1
 450 189 l 1,3,-1
 417 115 l 1,4,-1
 50 286 l 1,5,-1
 50 380 l 1,6,-1
 417 551 l 1,0,-1
EndSplineSet
Validated: 1
Substitution2: "'onum' Oldstyle Figures lookup 25 subtable" less.osf
Substitution2: "'tnum' Tabular Numbers lookup 24 subtable" less.tf
AlternateSubs2: "'aalt' Access All Alternates lookup 1 subtable" less.tf less.osf
EndChar
StartChar: greater
Encoding: 62 62 2321
Width: 500
GlyphClass: 2
Flags: W
LayerCount: 2
Fore
SplineSet
83 551 m 1,0,-1
 450 380 l 1,1,-1
 450 286 l 1,2,-1
 83 115 l 1,3,-1
 50 189 l 1,4,-1
 377 333 l 1,5,-1
 50 475 l 1,6,-1
 83 551 l 1,0,-1
EndSplineSet
Validated: 1
Substitution2: "'onum' Oldstyle Figures lookup 25 subtable" greater.osf
Substitution2: "'tnum' Tabular Numbers lookup 24 subtable" greater.tf
AlternateSubs2: "'aalt' Access All Alternates lookup 1 subtable" greater.tf greater.osf
EndChar
StartChar: question
Encoding: 32 63 102
Width: 524
Flags: W
AnchorPoint: "Anchor-18" 55 0 basechar 0
AnchorPoint: "Anchor-17" 55 0 basechar 0
AnchorPoint: "Anchor-16" 246 739 basechar 0
AnchorPoint: "Anchor-15" 55 0 basechar 0
AnchorPoint: "Anchor-14" 233 0 basechar 0
LayerCount: 2
Fore
SplineSet
187 348 m 1,0,-1
 248 366 l 2,1,2
 309 384 309 384 341 419.5 c 128,-1,3
 373 455 373 455 373 525 c 0,4,5
 373 596 373 596 340.5 636 c 128,-1,6
 308 676 308 676 242 676 c 0,7,8
 201 676 201 676 166 660.5 c 128,-1,9
 131 645 131 645 95 613 c 1,10,-1
 45 665 l 1,11,12
 90 709 90 709 138 729.5 c 128,-1,13
 186 750 186 750 246 750 c 0,14,15
 315 750 315 750 366 721.5 c 128,-1,16
 417 693 417 693 444 642.5 c 128,-1,17
 471 592 471 592 471 527 c 0,18,19
 471 428 471 428 421 378 c 128,-1,20
 371 328 371 328 293 306 c 2,21,-1
 279 302 l 1,22,-1
 279 0 l 1,23,-1
 187 0 l 1,24,-1
 187 348 l 1,0,-1
EndSplineSet
Validated: 1
EndChar
StartChar: at
Encoding: 64 64 2422
Width: 1020
GlyphClass: 2
Flags: W
LayerCount: 2
Fore
SplineSet
756 647.5 m 128,-1,1
 852 594 852 594 901 504 c 128,-1,2
 950 414 950 414 950 307 c 0,3,4
 950 177 950 177 900 93 c 128,-1,5
 850 9 850 9 753 9 c 0,6,7
 697 9 697 9 665.5 40 c 128,-1,8
 634 71 634 71 625 112 c 1,9,10
 606 68 606 68 570.5 39.5 c 128,-1,11
 535 11 535 11 481 11 c 0,12,13
 401 11 401 11 354.5 71 c 128,-1,14
 308 131 308 131 308 231 c 0,15,16
 308 357 308 357 368 424.5 c 128,-1,17
 428 492 428 492 526 492 c 0,18,19
 568 492 568 492 605 483 c 128,-1,20
 642 474 642 474 683 452 c 1,21,-1
 683 193 l 2,22,23
 683 131 683 131 700 105.5 c 128,-1,24
 717 80 717 80 751 80 c 0,25,26
 857 80 857 80 857 305 c 0,27,28
 857 402 857 402 819 474 c 128,-1,29
 781 546 781 546 707 585.5 c 128,-1,30
 633 625 633 625 526 625 c 0,31,32
 416 625 416 625 333.5 575.5 c 128,-1,33
 251 526 251 526 207 438.5 c 128,-1,34
 163 351 163 351 163 240 c 256,35,36
 163 129 163 129 205.5 43.5 c 128,-1,37
 248 -42 248 -42 330 -89.5 c 128,-1,38
 412 -137 412 -137 526 -137 c 0,39,40
 621 -137 621 -137 718 -103 c 1,41,-1
 743 -174 l 1,42,43
 687 -194 687 -194 637.5 -203.5 c 128,-1,44
 588 -213 588 -213 525 -213 c 0,45,46
 391 -213 391 -213 288 -157.5 c 128,-1,47
 185 -102 185 -102 127.5 1 c 128,-1,48
 70 104 70 104 70 240 c 0,49,50
 70 370 70 370 127.5 475 c 128,-1,51
 185 580 185 580 289 640.5 c 128,-1,52
 393 701 393 701 526 701 c 0,53,0
 660 701 660 701 756 647.5 c 128,-1,1
600 164 m 1,55,-1
 600 411 l 1,56,57
 567 426 567 426 529 426 c 0,58,59
 398 426 398 426 398 231 c 0,60,61
 398 156 398 156 422 117 c 128,-1,62
 446 78 446 78 492 78 c 0,63,54
 567 78 567 78 600 164 c 1,55,-1
EndSplineSet
Validated: 1
EndChar
StartChar: bracketleft
Encoding: 60 91 114
Width: 326
Flags: W
LayerCount: 2
Fore
SplineSet
280 816 m 1,0,-1
 280 739 l 1,1,-1
 160 739 l 1,2,-1
 160 -40 l 1,3,-1
 280 -40 l 1,4,-1
 280 -116 l 1,5,-1
 73 -116 l 1,6,-1
 73 816 l 1,7,-1
 280 816 l 1,0,-1
EndSplineSet
Validated: 1
Substitution2: "'case' Case-Sensitive Forms lookup 28 subtable" bracketleft.case
EndChar
StartChar: backslash
Encoding: 61 92 88
Width: 390
Flags: W
LayerCount: 2
Fore
SplineSet
119 807 m 1,0,-1
 351 -85 l 1,1,-1
 272 -104 l 1,2,-1
 41 789 l 1,3,-1
 119 807 l 1,0,-1
EndSplineSet
Validated: 1
EndChar
StartChar: bracketright
Encoding: 93 93 2179
Width: 322
Flags: W
LayerCount: 2
Fore
SplineSet
257 816 m 1,0,-1
 257 -116 l 1,1,-1
 50 -116 l 1,2,-1
 50 -40 l 1,3,-1
 170 -40 l 1,4,-1
 170 739 l 1,5,-1
 50 739 l 1,6,-1
 50 816 l 1,7,-1
 257 816 l 1,0,-1
EndSplineSet
Validated: 1
Substitution2: "'case' Case-Sensitive Forms lookup 28 subtable" bracketright.case
Substitution2: "'aalt' Access All Alternates lookup 0 subtable" bracketright.case
EndChar
StartChar: asciicircum
Encoding: 94 94 2437
Width: 540
GlyphClass: 2
Flags: W
LayerCount: 2
Fore
SplineSet
311 840 m 1,0,-1
 500 527 l 1,1,-1
 402 527 l 1,2,-1
 269 760 l 1,3,-1
 137 527 l 1,4,-1
 40 527 l 1,5,-1
 229 840 l 1,6,-1
 311 840 l 1,0,-1
EndSplineSet
Validated: 1
EndChar
StartChar: underscore
Encoding: 64 95 110
Width: 640
Flags: W
LayerCount: 2
Fore
SplineSet
77 -142 m 1,0,-1
 77 -63 l 1,1,-1
 563 -63 l 1,2,-1
 563 -142 l 1,3,-1
 77 -142 l 1,0,-1
EndSplineSet
Validated: 1
EndChar
StartChar: a
Encoding: 66 97 39
Width: 432
GlyphClass: 2
Flags: W
AnchorPoint: "Anchor-18" 27 0 basechar 0
AnchorPoint: "Anchor-17" 27 0 basechar 0
AnchorPoint: "Anchor-16" 230 527 basechar 0
AnchorPoint: "Anchor-15" 27 0 basechar 0
AnchorPoint: "Anchor-14" 230 -202 basechar 0
LayerCount: 2
Fore
SplineSet
325 -201 m 132,-1,1
 300 -189 300 -189 282 -171 c 132,-1,2
 264 -153 264 -153 240 -121 c 4,3,4
 213 -85 213 -85 191 -63 c 132,-1,5
 169 -41 169 -41 134.5 -23 c 132,-1,6
 100 -5 100 -5 52 0 c 5,7,-1
 52 69 l 5,8,-1
 326 449 l 5,9,-1
 75 449 l 5,10,-1
 75 527 l 5,11,-1
 431 527 l 5,12,-1
 431 457 l 5,13,-1
 141 57 l 5,14,15
 195 42 195 42 228 12.5 c 132,-1,16
 261 -17 261 -17 295 -65 c 4,17,18
 323 -103 323 -103 343.5 -120.5 c 132,-1,19
 364 -138 364 -138 393 -138 c 4,20,21
 423 -138 423 -138 451 -123 c 5,22,-1
 482 -183 l 5,23,24
 443 -213 443 -213 385 -213 c 4,25,0
 350 -213 350 -213 325 -201 c 132,-1,1
EndSplineSet
Validated: 1
EndChar
StartChar: b
Encoding: 98 98 377
Width: 481
GlyphClass: 2
Flags: W
AnchorPoint: "Anchor-18" 0 0 basechar 0
AnchorPoint: "Anchor-17" 0 0 basechar 0
AnchorPoint: "Anchor-16" 229 527 basechar 0
AnchorPoint: "Anchor-15" 0 0 basechar 0
AnchorPoint: "Anchor-14" 209 -202 basechar 0
LayerCount: 2
Fore
SplineSet
390.5 155.5 m 128,-1,1
 451 105 451 105 451 7 c 0,2,3
 451 -58 451 -58 421 -108 c 128,-1,4
 391 -158 391 -158 337 -185.5 c 128,-1,5
 283 -213 283 -213 211 -213 c 0,6,7
 142 -213 142 -213 91 -190.5 c 128,-1,8
 40 -168 40 -168 0 -123 c 1,9,-1
 54 -73 l 1,10,11
 89 -107 89 -107 125.5 -122.5 c 128,-1,12
 162 -138 162 -138 209 -138 c 0,13,14
 279 -138 279 -138 315.5 -100.5 c 128,-1,15
 352 -63 352 -63 352 9 c 0,16,17
 352 79 352 79 316 108.5 c 128,-1,18
 280 138 280 138 196 138 c 2,19,-1
 117 138 l 1,20,-1
 117 205 l 1,21,-1
 322 451 l 1,22,-1
 31 451 l 1,23,-1
 31 527 l 1,24,-1
 427 527 l 1,25,-1
 427 457 l 1,26,-1
 213 206 l 1,27,-1
 216 206 l 2,28,0
 330 206 330 206 390.5 155.5 c 128,-1,1
EndSplineSet
Validated: 1
Substitution2: "'smcp' Lowercase to Small Capitals lookup 27 subtable" b.sc
Substitution2: "'aalt' Access All Alternates lookup 0 subtable" b.sc
EndChar
StartChar: c
Encoding: 99 99 387
Width: 457
GlyphClass: 2
Flags: W
AnchorPoint: "Anchor-18" 0 0 basechar 0
AnchorPoint: "Anchor-17" 0 0 basechar 0
AnchorPoint: "Anchor-16" 229 527 basechar 0
AnchorPoint: "Anchor-15" 0 0 basechar 0
AnchorPoint: "Anchor-14" 229 0 basechar 0
LayerCount: 2
Fore
SplineSet
369.5 499 m 128,-1,1
 419 459 419 459 419 397 c 0,2,3
 419 338 419 338 382 303 c 128,-1,4
 345 268 345 268 260 245 c 0,5,6
 209 231 209 231 182 217.5 c 128,-1,7
 155 204 155 204 144.5 187 c 128,-1,8
 134 170 134 170 134 143 c 0,9,10
 134 105 134 105 162 83.5 c 128,-1,11
 190 62 190 62 235 62 c 0,12,13
 314 62 314 62 385 112 c 1,14,-1
 432 57 l 1,15,16
 353 -12 353 -12 233 -12 c 0,17,18
 182 -12 182 -12 137 5.5 c 128,-1,19
 92 23 92 23 63.5 59 c 128,-1,20
 35 95 35 95 35 146 c 0,21,22
 35 213 35 213 78 249.5 c 128,-1,23
 121 286 121 286 210 308 c 0,24,25
 275 324 275 324 298.5 344.5 c 128,-1,26
 322 365 322 365 322 400 c 0,27,28
 322 430 322 430 298 448 c 128,-1,29
 274 466 274 466 230 466 c 0,30,31
 192 466 192 466 159 455.5 c 128,-1,32
 126 445 126 445 88 422 c 1,33,-1
 50 479 l 1,34,35
 134 539 134 539 237 539 c 0,36,0
 320 539 320 539 369.5 499 c 128,-1,1
EndSplineSet
Validated: 1
Substitution2: "'smcp' Lowercase to Small Capitals lookup 27 subtable" c.sc
Substitution2: "'aalt' Access All Alternates lookup 0 subtable" c.sc
EndChar
StartChar: d
Encoding: 69 100 42
Width: 403
GlyphClass: 2
Flags: W
AnchorPoint: "Anchor-18" -25 0 basechar 0
AnchorPoint: "Anchor-17" -25 0 basechar 0
AnchorPoint: "Anchor-16" 213 527 basechar 0
AnchorPoint: "Anchor-15" -25 0 basechar 0
AnchorPoint: "Anchor-14" 116 -202 basechar 0
LayerCount: 2
Fore
SplineSet
351 533 m 1,1,-1
 334 443 l 1,2,3
 310 449 310 449 288 449 c 0,4,5
 239 449 239 449 209 413 c 128,-1,6
 179 377 179 377 162 301 c 1,7,-1
 162 -202 l 1,8,-1
 70 -213 l 1,9,-1
 70 527 l 1,10,-1
 149 527 l 1,11,-1
 158 420 l 1,12,13
 179 479 179 479 215 509 c 128,-1,14
 251 539 251 539 299 539 c 0,15,0
 327 539 327 539 351 533 c 1,1,-1
EndSplineSet
Validated: 1
EndChar
StartChar: e
Encoding: 101 101 417
Width: 484
GlyphClass: 2
Flags: W
AnchorPoint: "Anchor-18" 0 0 basechar 0
AnchorPoint: "Anchor-17" 0 0 basechar 0
AnchorPoint: "Anchor-16" 202 527 basechar 0
AnchorPoint: "Anchor-15" 0 0 basechar 0
AnchorPoint: "Anchor-14" 202 0 basechar 0
LayerCount: 2
Fore
SplineSet
30 46 m 1,1,-1
 73 104 l 1,2,3
 104 82 104 82 130 72.5 c 128,-1,4
 156 63 156 63 192 62 c 0,5,6
 328 62 328 62 328 264 c 0,7,8
 328 366 328 366 295 415.5 c 128,-1,9
 262 465 262 465 196 465 c 0,10,11
 164 465 164 465 136 455.5 c 128,-1,12
 108 446 108 446 77 425 c 1,13,-1
 35 482 l 1,14,15
 103 539 103 539 197 539 c 0,16,17
 307 539 307 539 367 465 c 128,-1,18
 427 391 427 391 427 264 c 0,19,20
 427 182 427 182 399 119.5 c 128,-1,21
 371 57 371 57 318 22.5 c 128,-1,22
 265 -12 265 -12 192 -12 c 0,23,0
 99 -12 99 -12 30 46 c 1,1,-1
EndSplineSet
Validated: 1
Substitution2: "'smcp' Lowercase to Small Capitals lookup 27 subtable" e.sc
Substitution2: "'aalt' Access All Alternates lookup 0 subtable" e.sc
EndChar
StartChar: f
Encoding: 71 102 47
Width: 302
GlyphClass: 2
Flags: W
AnchorPoint: "Anchor-18" 277 380 basechar 0
AnchorPoint: "Anchor-17" 173 739 basechar 0
AnchorPoint: "Anchor-16" 116 739 basechar 0
AnchorPoint: "Anchor-15" -20 0 basechar 0
AnchorPoint: "Anchor-14" 158 0 basechar 0
LayerCount: 2
Fore
SplineSet
99.5 18.5 m 128,-1,1
 70 49 70 49 70 104 c 2,2,-1
 70 739 l 1,3,-1
 162 750 l 1,4,-1
 162 106 l 2,5,6
 162 84 162 84 169.5 74 c 128,-1,7
 177 64 177 64 195 64 c 0,8,9
 214 64 214 64 229 70 c 1,10,-1
 253 6 l 1,11,12
 220 -12 220 -12 180 -12 c 0,13,0
 129 -12 129 -12 99.5 18.5 c 128,-1,1
EndSplineSet
Validated: 1
EndChar
StartChar: g
Encoding: 103 103 460
Width: 594
GlyphClass: 2
Flags: W
AnchorPoint: "Anchor-18" 0 0 basechar 0
AnchorPoint: "Anchor-17" 0 0 basechar 0
AnchorPoint: "Anchor-16" 297 739 basechar 0
AnchorPoint: "Anchor-15" 0 0 basechar 0
AnchorPoint: "Anchor-14" 297 0 basechar 0
LayerCount: 2
Fore
SplineSet
479 466.5 m 128,-1,1
 532 394 532 394 532 264 c 0,2,3
 532 182 532 182 507 119.5 c 128,-1,4
 482 57 482 57 435 22.5 c 128,-1,5
 388 -12 388 -12 325 -12 c 0,6,7
 242 -12 242 -12 185 58 c 1,8,-1
 176 0 l 1,9,-1
 95 0 l 1,10,-1
 95 739 l 1,11,-1
 411 739 l 1,12,-1
 399 669 l 1,13,-1
 187 669 l 1,14,-1
 187 461 l 1,15,16
 244 539 244 539 336 539 c 0,17,0
 426 539 426 539 479 466.5 c 128,-1,1
398.5 110.5 m 128,-1,19
 433 160 433 160 433 264 c 0,20,21
 433 371 433 371 401 418.5 c 128,-1,22
 369 466 369 466 310 466 c 0,23,24
 240 466 240 466 187 384 c 1,25,-1
 187 132 l 1,26,27
 208 99 208 99 238.5 80 c 128,-1,28
 269 61 269 61 303 61 c 0,29,18
 364 61 364 61 398.5 110.5 c 128,-1,19
EndSplineSet
Validated: 1
Substitution2: "'ss04' Style Set 4 lookup 36 subtable" g.ss04
Substitution2: "'salt' Stylistic Alternatives lookup 32 subtable" g.ss04
Substitution2: "'smcp' Lowercase to Small Capitals lookup 27 subtable" g.sc
AlternateSubs2: "'aalt' Access All Alternates lookup 1 subtable" g.sc g.ss04
EndChar
StartChar: h
Encoding: 104 104 480
Width: 445
GlyphClass: 2
Flags: W
AnchorPoint: "Anchor-8" 0 0 basechar 0
AnchorPoint: "Anchor-7" 0 0 basechar 0
AnchorPoint: "Anchor-6" 0 0 basechar 0
AnchorPoint: "Anchor-5" 273 564 basechar 0
AnchorPoint: "Anchor-4" 146 0 basechar 0
LayerCount: 2
Fore
SplineSet
435 564 m 1,0,-1
 422 487 l 1,1,-1
 192 487 l 1,2,-1
 192 0 l 1,3,-1
 100 0 l 1,4,-1
 100 564 l 1,5,-1
 435 564 l 1,0,-1
EndSplineSet
Validated: 1
Substitution2: "'smcp' Lowercase to Small Capitals lookup 27 subtable" h.sc
Substitution2: "'aalt' Access All Alternates lookup 0 subtable" h.sc
EndChar
StartChar: i
Encoding: 105 105 491
Width: 478
GlyphClass: 2
Flags: W
AnchorPoint: "Anchor-18" 0 0 basechar 0
AnchorPoint: "Anchor-17" 0 0 basechar 0
AnchorPoint: "Anchor-16" 289 527 basechar 0
AnchorPoint: "Anchor-15" 0 0 basechar 0
AnchorPoint: "Anchor-14" 284 0 basechar 0
LayerCount: 2
Fore
SplineSet
373 525.5 m 128,-1,1
 412 512 412 512 448 482 c 1,2,-1
 404 424 l 1,3,4
 376 444 376 444 349.5 453.5 c 128,-1,5
 323 463 323 463 291 463 c 0,6,7
 227 463 227 463 191.5 412 c 128,-1,8
 156 361 156 361 156 261 c 256,9,10
 156 161 156 161 191 113.5 c 128,-1,11
 226 66 226 66 291 66 c 0,12,13
 322 66 322 66 348 75.5 c 128,-1,14
 374 85 374 85 406 106 c 1,15,-1
 448 46 l 1,16,17
 376 -12 376 -12 287 -12 c 0,18,19
 180 -12 180 -12 118.5 60 c 128,-1,20
 57 132 57 132 57 259 c 0,21,22
 57 343 57 343 85 406 c 128,-1,23
 113 469 113 469 164.5 504 c 128,-1,24
 216 539 216 539 287 539 c 0,25,0
 334 539 334 539 373 525.5 c 128,-1,1
EndSplineSet
Validated: 1
Substitution2: "Single Substitution lookup 45 subtable" dotlessi
Substitution2: "'smcp' Lowercase to Small Capitals lookup 27 subtable" i.sc
Substitution2: "'locl' Localized Forms in Latin lookup 10 subtable" i.loclTRK
Substitution2: "'locl' Localized Forms in Latin lookup 8 subtable" i.loclTRK
Substitution2: "'locl' Localized Forms in Latin lookup 6 subtable" i.loclTRK
Substitution2: "'locl' Localized Forms in Latin lookup 3 subtable" i.loclTRK
Substitution2: "'locl' Localized Forms in Latin lookup 2 subtable" i.loclTRK
AlternateSubs2: "'aalt' Access All Alternates lookup 1 subtable" i.loclTRK i.sc dotlessi
EndChar
StartChar: j
Encoding: 75 106 52
Width: 545
GlyphClass: 2
Flags: W
AnchorPoint: "Anchor-18" 24 0 basechar 0
AnchorPoint: "Anchor-17" 24 0 basechar 0
AnchorPoint: "Anchor-16" 265 527 basechar 0
AnchorPoint: "Anchor-15" 24 0 basechar 0
AnchorPoint: "Anchor-14" 265 -202 basechar 0
LayerCount: 2
Fore
SplineSet
505 -123 m 1,0,1
 463 -168 463 -168 412 -190.5 c 128,-1,2
 361 -213 361 -213 291 -213 c 0,3,4
 222 -213 222 -213 168 -186.5 c 128,-1,5
 114 -160 114 -160 84 -113 c 128,-1,6
 54 -66 54 -66 54 -6 c 0,7,8
 54 94 54 94 116 150 c 128,-1,9
 178 206 178 206 289 206 c 2,10,-1
 292 206 l 1,11,-1
 78 457 l 1,12,-1
 78 527 l 1,13,-1
 474 527 l 1,14,-1
 474 451 l 1,15,-1
 185 451 l 1,16,-1
 388 205 l 1,17,-1
 388 138 l 1,18,-1
 309 138 l 2,19,20
 227 138 227 138 190 103.5 c 128,-1,21
 153 69 153 69 153 -4 c 0,22,23
 153 -67 153 -67 189.5 -102.5 c 128,-1,24
 226 -138 226 -138 293 -138 c 0,25,26
 342 -138 342 -138 379 -123 c 128,-1,27
 416 -108 416 -108 453 -74 c 1,28,-1
 505 -123 l 1,0,1
EndSplineSet
Validated: 1
EndChar
StartChar: k
Encoding: 76 107 53
Width: 316
GlyphClass: 2
Flags: W
AnchorPoint: "Anchor-18" 31 0 basechar 0
AnchorPoint: "Anchor-17" 31 0 basechar 0
AnchorPoint: "Anchor-16" 194 689 basechar 0
AnchorPoint: "Anchor-15" 31 0 basechar 0
AnchorPoint: "Anchor-14" 184 -202 basechar 0
LayerCount: 2
Fore
SplineSet
240 32 m 6,0,1
 240 -37 240 -37 220 -85 c 4,2,3
 202 -129 202 -129 167.5 -156.5 c 132,-1,4
 133 -184 133 -184 71 -212 c 5,5,-1
 44 -145 l 5,6,7
 83 -127 83 -127 104 -109.5 c 132,-1,8
 125 -92 125 -92 135.5 -60.5 c 132,-1,9
 146 -29 146 -29 146 26 c 6,10,-1
 146 100 l 5,11,-1
 146 527 l 5,12,-1
 146 689 l 5,13,-1
 241 689 l 5,14,-1
 241 527 l 5,15,-1
 243 527 l 5,16,-1
 241 197 l 5,17,-1
 241 96 l 6,18,19
 241 86 241 86 240 77 c 6,20,-1
 240 32 l 6,0,1
EndSplineSet
Validated: 1
EndChar
StartChar: l
Encoding: 108 108 525
Width: 857
GlyphClass: 2
Flags: W
AnchorPoint: "Anchor-18" 0 0 basechar 0
AnchorPoint: "Anchor-17" 0 0 basechar 0
AnchorPoint: "Anchor-16" 429 527 basechar 0
AnchorPoint: "Anchor-15" 0 0 basechar 0
AnchorPoint: "Anchor-14" 429 0 basechar 0
LayerCount: 2
Fore
SplineSet
728 495.5 m 128,-1,1
 767 452 767 452 767 378 c 2,2,-1
 767 278 l 1,3,-1
 767 32 l 1,4,-1
 767 0 l 1,5,-1
 766 -0 l 1,6,7
 763 -52 763 -52 749 -85 c 0,8,9
 730 -130 730 -130 696 -156 c 0,10,11
 662 -184 662 -184 600 -212 c 1,12,-1
 573 -145 l 1,13,14
 630 -118 630 -118 633 -110 c 0,15,16
 643 -79 643 -79 664 -60 c 0,17,18
 675 -50 675 -50 675 13 c 2,19,-1
 675 26 l 1,20,-1
 675 278 l 1,21,-1
 675 365 l 2,22,23
 675 467 675 467 601 467 c 0,24,25
 562 467 562 467 535 444.5 c 128,-1,26
 508 422 508 422 477 374 c 1,27,-1
 477 0 l 1,28,-1
 385 0 l 1,29,-1
 385 365 l 2,30,31
 385 467 385 467 311 467 c 0,32,33
 271 467 271 467 244 444 c 128,-1,34
 217 421 217 421 187 374 c 1,35,-1
 187 0 l 1,36,-1
 95 0 l 1,37,-1
 95 527 l 1,38,-1
 174 527 l 1,39,-1
 182 450 l 1,40,41
 241 539 241 539 334 539 c 0,42,43
 383 539 383 539 417.5 514 c 128,-1,44
 452 489 452 489 467 444 c 1,45,46
 498 490 498 490 535.5 514.5 c 128,-1,47
 573 539 573 539 624 539 c 0,48,0
 689 539 689 539 728 495.5 c 128,-1,1
EndSplineSet
Validated: 1
Substitution2: "'smcp' Lowercase to Small Capitals lookup 27 subtable" l.sc
Substitution2: "'aalt' Access All Alternates lookup 0 subtable" l.sc
EndChar
StartChar: m
Encoding: 78 109 56
Width: 571
GlyphClass: 2
Flags: W
AnchorPoint: "Anchor-18" -21 0 basechar 0
AnchorPoint: "Anchor-17" -21 0 basechar 0
AnchorPoint: "Anchor-16" 276 739 basechar 0
AnchorPoint: "Anchor-15" -21 0 basechar 0
AnchorPoint: "Anchor-14" 276 -202 basechar 0
LayerCount: 2
Fore
SplineSet
464 467 m 128,-1,1
 511 395 511 395 511 264 c 0,2,3
 511 140 511 140 457 64 c 128,-1,4
 403 -12 403 -12 304 -12 c 0,5,6
 216 -12 216 -12 166 48 c 1,7,-1
 166 -198 l 1,8,-1
 74 -213 l 1,9,-1
 74 739 l 1,10,-1
 166 750 l 1,11,-1
 166 463 l 1,12,13
 194 500 194 500 233 519.5 c 128,-1,14
 272 539 272 539 316 539 c 0,15,0
 417 539 417 539 464 467 c 128,-1,1
412 264 m 0,17,18
 412 466 412 466 293 466 c 0,19,20
 254 466 254 466 222 443 c 128,-1,21
 190 420 190 420 166 384 c 1,22,-1
 166 127 l 1,23,24
 186 96 186 96 216 79.5 c 128,-1,25
 246 63 246 63 282 63 c 0,26,16
 412 63 412 63 412 264 c 0,17,18
EndSplineSet
Validated: 1
EndChar
StartChar: n
Encoding: 79 110 57
Width: 568
GlyphClass: 2
Flags: W
AnchorPoint: "Anchor-18" -24 0 basechar 0
AnchorPoint: "Anchor-17" -24 0 basechar 0
AnchorPoint: "Anchor-16" 289 739 basechar 0
AnchorPoint: "Anchor-15" -24 0 basechar 0
AnchorPoint: "Anchor-14" 284 0 basechar 0
LayerCount: 2
Fore
SplineSet
455 466.5 m 128,-1,1
 508 394 508 394 508 264 c 0,2,3
 508 182 508 182 483 119.5 c 128,-1,4
 458 57 458 57 411 22.5 c 128,-1,5
 364 -12 364 -12 301 -12 c 0,6,7
 218 -12 218 -12 161 58 c 1,8,-1
 152 0 l 1,9,-1
 71 0 l 1,10,-1
 71 739 l 1,11,-1
 163 750 l 1,12,-1
 163 461 l 1,13,14
 220 539 220 539 312 539 c 0,15,0
 402 539 402 539 455 466.5 c 128,-1,1
374.5 110.5 m 128,-1,17
 409 160 409 160 409 264 c 0,18,19
 409 371 409 371 377 418.5 c 128,-1,20
 345 466 345 466 286 466 c 0,21,22
 216 466 216 466 163 384 c 1,23,-1
 163 132 l 1,24,25
 184 99 184 99 214.5 80 c 128,-1,26
 245 61 245 61 279 61 c 0,27,16
 340 61 340 61 374.5 110.5 c 128,-1,17
EndSplineSet
Validated: 1
EndChar
StartChar: o
Encoding: 111 111 566
Width: 492
GlyphClass: 2
Flags: W
AnchorPoint: "Anchor-18" 0 0 basechar 0
AnchorPoint: "Anchor-17" 0 0 basechar 0
AnchorPoint: "Anchor-16" 248 527 basechar 0
AnchorPoint: "Anchor-15" 0 0 basechar 0
AnchorPoint: "Anchor-14" 248 0 basechar 0
LayerCount: 2
Fore
SplineSet
482 527 m 5,0,-1
 303 0 l 5,1,-1
 192 0 l 5,2,-1
 10 527 l 5,3,-1
 110 527 l 5,4,-1
 248 82 l 5,5,-1
 385 527 l 5,6,-1
 482 527 l 5,0,-1
EndSplineSet
Validated: 1
Substitution2: "Single Substitution lookup 45 subtable" ordmasculine
Substitution2: "'smcp' Lowercase to Small Capitals lookup 27 subtable" o.sc
AlternateSubs2: "'aalt' Access All Alternates lookup 1 subtable" ordmasculine o.sc
EndChar
StartChar: p
Encoding: 81 112 60
Width: 459
GlyphClass: 2
Flags: W
AnchorPoint: "Anchor-18" 336 316 basechar 0
AnchorPoint: "Anchor-17" 183 564 basechar 0
AnchorPoint: "Anchor-16" 116 564 basechar 0
AnchorPoint: "Anchor-15" -30 0 basechar 0
AnchorPoint: "Anchor-14" 233 0 basechar 0
LayerCount: 2
Fore
SplineSet
162 564 m 1,0,-1
 162 78 l 1,1,-1
 406 78 l 1,2,-1
 395 0 l 1,3,-1
 70 0 l 1,4,-1
 70 564 l 1,5,-1
 162 564 l 1,0,-1
EndSplineSet
Validated: 1
EndChar
StartChar: q
Encoding: 82 113 62
Width: 616
GlyphClass: 2
Flags: W
AnchorPoint: "Anchor-13" -1 0 basechar 0
AnchorPoint: "Anchor-12" -1 0 basechar 0
AnchorPoint: "Anchor-11" -1 0 basechar 0
AnchorPoint: "Anchor-10" 293 527 basechar 0
AnchorPoint: "Anchor-9" 293 0 basechar 0
LayerCount: 2
Fore
SplineSet
559 453 m 1,0,-1
 433 462 l 1,1,2
 474 439 474 439 500 387 c 128,-1,3
 526 335 526 335 526 264 c 0,4,5
 526 182 526 182 498 119.5 c 128,-1,6
 470 57 470 57 417 22.5 c 128,-1,7
 364 -12 364 -12 291 -12 c 0,8,9
 180 -12 180 -12 118 62 c 128,-1,10
 56 136 56 136 56 263 c 0,11,12
 56 387 56 387 121.5 460 c 128,-1,13
 187 533 187 533 316 533 c 0,14,15
 423 533 423 533 559 527 c 1,16,-1
 559 453 l 1,0,-1
427 264 m 0,18,19
 427 335 427 335 406.5 386.5 c 128,-1,20
 386 438 386 438 355 464 c 1,21,-1
 350 464 l 2,22,23
 275 464 275 464 233 444 c 128,-1,24
 191 424 191 424 173 380.5 c 128,-1,25
 155 337 155 337 155 263 c 0,26,27
 155 62 155 62 291 62 c 256,28,17
 427 62 427 62 427 264 c 0,18,19
EndSplineSet
Validated: 1
EndChar
StartChar: r
Encoding: 83 114 63
Width: 540
GlyphClass: 2
Flags: W
AnchorPoint: "Anchor-14" 267 0 basechar 0
AnchorPoint: "Anchor-15" -26 0 basechar 0
AnchorPoint: "Anchor-16" 272 527 basechar 0
AnchorPoint: "Anchor-17" -26 0 basechar 0
AnchorPoint: "Anchor-18" -26 0 basechar 0
LayerCount: 2
Fore
SplineSet
429.5 496 m 132,-1,1
 470 453 470 453 470 378 c 6,2,-1
 470 328 l 5,3,-1
 470 32 l 5,4,-1
 470 0 l 5,5,-1
 469 0 l 5,6,7
 466 -51 466 -51 452 -85 c 4,8,9
 434 -129 434 -129 399.5 -156.5 c 132,-1,10
 365 -184 365 -184 303 -212 c 5,11,-1
 276 -145 l 5,12,13
 315 -127 315 -127 336 -109.5 c 132,-1,14
 357 -92 357 -92 367.5 -60.5 c 132,-1,15
 378 -29 378 -29 378 26 c 6,16,-1
 378 328 l 5,17,-1
 378 365 l 6,18,19
 378 421 378 421 357 444 c 132,-1,20
 336 467 336 467 295 467 c 4,21,22
 253 467 253 467 221 443 c 132,-1,23
 189 419 189 419 161 374 c 5,24,-1
 161 0 l 5,25,-1
 69 0 l 5,26,-1
 69 527 l 5,27,-1
 148 527 l 5,28,-1
 156 449 l 5,29,30
 184 491 184 491 225.5 515 c 132,-1,31
 267 539 267 539 317 539 c 4,32,0
 389 539 389 539 429.5 496 c 132,-1,1
EndSplineSet
Validated: 1
EndChar
StartChar: s
Encoding: 84 115 64
Width: 500
GlyphClass: 2
Flags: W
AnchorPoint: "Anchor-18" 0 0 basechar 0
AnchorPoint: "Anchor-17" 0 0 basechar 0
AnchorPoint: "Anchor-16" 225 527 basechar 0
AnchorPoint: "Anchor-15" 0 0 basechar 0
AnchorPoint: "Anchor-14" 237 0 basechar 0
LayerCount: 2
Fore
SplineSet
318.5 522.5 m 132,-1,1
 362 506 362 506 388.5 474 c 132,-1,2
 415 442 415 442 415 397 c 4,3,4
 415 353 415 353 389.5 325 c 132,-1,5
 364 297 364 297 309 282 c 5,6,7
 375 271 375 271 409 241 c 132,-1,8
 443 211 443 211 443 155 c 4,9,10
 443 73 443 73 379.5 30.5 c 132,-1,11
 316 -12 316 -12 218 -12 c 4,12,13
 99 -12 99 -12 15 54 c 5,14,-1
 63 111 l 5,15,16
 98 86 98 86 133.5 74 c 132,-1,17
 169 62 169 62 215 62 c 4,18,19
 344 62 344 62 344 156 c 4,20,21
 344 202 344 202 307.5 220.5 c 132,-1,22
 271 239 271 239 206 239 c 6,23,-1
 136 239 l 5,24,-1
 142 311 l 5,25,-1
 196 311 l 6,26,27
 252 311 252 311 286 331 c 132,-1,28
 320 351 320 351 320 393 c 4,29,30
 320 432 320 432 291 449.5 c 132,-1,31
 262 467 262 467 215 467 c 4,32,33
 174 467 174 467 142.5 456.5 c 132,-1,34
 111 446 111 446 79 424 c 5,35,-1
 35 479 l 5,36,37
 75 509 75 509 121 524 c 132,-1,38
 167 539 167 539 225 539 c 4,39,0
 275 539 275 539 318.5 522.5 c 132,-1,1
EndSplineSet
Validated: 1
EndChar
StartChar: t
Encoding: 85 116 67
Width: 464
GlyphClass: 2
Flags: W
AnchorPoint: "Anchor-14" 206 -202 basechar 0
AnchorPoint: "Anchor-15" 3 0 basechar 0
AnchorPoint: "Anchor-16" 206 527 basechar 0
AnchorPoint: "Anchor-17" 3 0 basechar 0
AnchorPoint: "Anchor-18" 3 0 basechar 0
LayerCount: 2
Fore
SplineSet
407 527 m 1,0,-1
 407 457 l 1,1,-1
 172 -119 l 1,2,-1
 88 -91 l 1,3,-1
 324 449 l 1,4,-1
 51 449 l 1,5,-1
 51 527 l 1,6,-1
 407 527 l 1,0,-1
EndSplineSet
Validated: 1
EndChar
StartChar: u
Encoding: 86 117 68
Width: 582
GlyphClass: 2
Flags: W
AnchorPoint: "Anchor-18" 1 0 basechar 0
AnchorPoint: "Anchor-17" 1 0 basechar 0
AnchorPoint: "Anchor-16" 291 527 basechar 0
AnchorPoint: "Anchor-15" 1 0 basechar 0
AnchorPoint: "Anchor-14" 291 -202 basechar 0
LayerCount: 2
Fore
SplineSet
446.5 3.5 m 128,-1,1
 468 -29 468 -29 468 -74 c 0,2,3
 468 -112 468 -112 447.5 -144.5 c 128,-1,4
 427 -177 427 -177 387 -196.5 c 128,-1,5
 347 -216 347 -216 292 -216 c 256,6,7
 237 -216 237 -216 195 -202.5 c 128,-1,8
 153 -189 153 -189 114 -162 c 1,9,-1
 161 -105 l 1,10,11
 192 -126 192 -126 219.5 -135 c 128,-1,12
 247 -144 247 -144 281 -144 c 0,13,14
 328 -144 328 -144 350.5 -124.5 c 128,-1,15
 373 -105 373 -105 373 -74 c 0,16,17
 373 -51 373 -51 363 -35 c 128,-1,18
 353 -19 353 -19 328 -4 c 128,-1,19
 303 11 303 11 252 33 c 0,20,21
 152 76 152 76 105 132.5 c 128,-1,22
 58 189 58 189 58 284 c 0,23,24
 58 353 58 353 86 411.5 c 128,-1,25
 114 470 114 470 166.5 504.5 c 128,-1,26
 219 539 219 539 291 539 c 0,27,28
 360 539 360 539 412.5 509 c 128,-1,29
 465 479 465 479 494 422 c 128,-1,30
 523 365 523 365 523 287 c 256,31,32
 523 209 523 209 483 153.5 c 128,-1,33
 443 98 443 98 372 63 c 1,34,0
 425 36 425 36 446.5 3.5 c 128,-1,1
171.5 198.5 m 128,-1,36
 186 164 186 164 220 138 c 128,-1,37
 254 112 254 112 315 88 c 1,38,39
 369 122 369 122 396.5 169.5 c 128,-1,40
 424 217 424 217 424 287 c 0,41,42
 424 374 424 374 391 419.5 c 128,-1,43
 358 465 358 465 291 465 c 0,44,45
 226 465 226 465 191.5 418.5 c 128,-1,46
 157 372 157 372 157 284 c 0,47,35
 157 233 157 233 171.5 198.5 c 128,-1,36
EndSplineSet
Validated: 1
EndChar
StartChar: v
Encoding: 118 118 701
Width: 598
GlyphClass: 2
Flags: W
AnchorPoint: "Anchor-18" 0 0 basechar 0
AnchorPoint: "Anchor-17" 0 0 basechar 0
AnchorPoint: "Anchor-16" 302 527 basechar 0
AnchorPoint: "Anchor-15" 0 0 basechar 0
AnchorPoint: "Anchor-14" 302 -202 basechar 0
LayerCount: 2
Fore
SplineSet
503 527 m 1,0,-1
 503 -213 l 1,1,-1
 411 -202 l 1,2,-1
 411 70 l 1,3,4
 385 31 385 31 346.5 9.5 c 128,-1,5
 308 -12 308 -12 261 -12 c 0,6,7
 167 -12 167 -12 114.5 62 c 128,-1,8
 62 136 62 136 62 261 c 0,9,10
 62 342 62 342 87 405 c 128,-1,11
 112 468 112 468 159 503.5 c 128,-1,12
 206 539 206 539 269 539 c 0,13,14
 353 539 353 539 417 468 c 1,15,-1
 424 527 l 1,16,-1
 503 527 l 1,0,-1
353 80.5 m 128,-1,18
 383 100 383 100 411 139 c 1,19,-1
 411 397 l 1,20,21
 385 431 385 431 355.5 448.5 c 128,-1,22
 326 466 326 466 289 466 c 0,23,24
 228 466 228 466 194.5 415 c 128,-1,25
 161 364 161 364 161 263 c 0,26,27
 161 161 161 161 192 111 c 128,-1,28
 223 61 223 61 281 61 c 0,29,17
 323 61 323 61 353 80.5 c 128,-1,18
EndSplineSet
Validated: 1
Substitution2: "'smcp' Lowercase to Small Capitals lookup 27 subtable" v.sc
Substitution2: "'aalt' Access All Alternates lookup 0 subtable" v.sc
EndChar
StartChar: w
Encoding: 119 119 705
Width: 468
GlyphClass: 2
Flags: W
AnchorPoint: "Anchor-18" 0 0 basechar 0
AnchorPoint: "Anchor-17" 0 0 basechar 0
AnchorPoint: "Anchor-16" 258 527 basechar 0
AnchorPoint: "Anchor-15" 0 0 basechar 0
AnchorPoint: "Anchor-14" 264 0 basechar 0
LayerCount: 2
Fore
SplineSet
358 526.5 m 128,-1,1
 399 514 399 514 434 490 c 1,2,-1
 390 435 l 1,3,4
 362 452 362 452 334.5 459.5 c 128,-1,5
 307 467 307 467 272 467 c 0,6,7
 224 467 224 467 198.5 446.5 c 128,-1,8
 173 426 173 426 173 388 c 0,9,10
 173 353 173 353 201 332 c 128,-1,11
 229 311 229 311 277 311 c 2,12,-1
 338 311 l 1,13,-1
 327 239 l 1,14,-1
 271 239 l 2,15,16
 209 239 209 239 182.5 218.5 c 128,-1,17
 156 198 156 198 156 151 c 0,18,19
 156 111 156 111 185.5 86.5 c 128,-1,20
 215 62 215 62 269 62 c 0,21,22
 309 62 309 62 343 73.5 c 128,-1,23
 377 85 377 85 410 108 c 1,24,-1
 453 50 l 1,25,26
 416 20 416 20 367 4 c 128,-1,27
 318 -12 318 -12 264 -12 c 0,28,29
 170 -12 170 -12 113.5 30 c 128,-1,30
 57 72 57 72 57 147 c 0,31,32
 57 264 57 264 189 281 c 1,33,34
 78 303 78 303 78 395 c 0,35,36
 78 461 78 461 128.5 500 c 128,-1,37
 179 539 179 539 263 539 c 0,38,0
 317 539 317 539 358 526.5 c 128,-1,1
EndSplineSet
Validated: 1
Substitution2: "'smcp' Lowercase to Small Capitals lookup 27 subtable" w.sc
Substitution2: "'aalt' Access All Alternates lookup 0 subtable" w.sc
EndChar
StartChar: x
Encoding: 120 120 713
Width: 584
GlyphClass: 2
Flags: W
AnchorPoint: "Anchor-18" 0 0 basechar 0
AnchorPoint: "Anchor-17" 476 527 basechar 0
AnchorPoint: "Anchor-16" 292 527 basechar 0
AnchorPoint: "Anchor-15" 379 0 basechar 0
AnchorPoint: "Anchor-14" 292 0 basechar 0
LayerCount: 2
Fore
SplineSet
271 -58 m 128,-1,1
 246 -84 246 -84 246 -114 c 0,2,3
 246 -162 246 -162 302 -162 c 0,4,5
 329 -162 329 -162 363 -155 c 1,6,-1
 354 -225 l 1,7,8
 319 -232 319 -232 291 -232 c 0,9,10
 234 -232 234 -232 200 -203.5 c 128,-1,11
 166 -175 166 -175 166 -131 c 0,12,13
 166 -56 166 -56 250 -9 c 1,14,15
 158 4 158 4 107.5 76.5 c 128,-1,16
 57 149 57 149 57 263 c 0,17,18
 57 345 57 345 85 407.5 c 128,-1,19
 113 470 113 470 166 504.5 c 128,-1,20
 219 539 219 539 293 539 c 0,21,22
 404 539 404 539 465.5 465 c 128,-1,23
 527 391 527 391 527 264 c 0,24,25
 527 162 527 162 484.5 91.5 c 128,-1,26
 442 21 442 21 365 -2 c 1,27,0
 296 -32 296 -32 271 -58 c 128,-1,1
292 62 m 256,29,30
 428 62 428 62 428 264 c 0,31,32
 428 465 428 465 293 465 c 0,33,34
 156 465 156 465 156 263 c 0,35,28
 156 62 156 62 292 62 c 256,29,30
EndSplineSet
Validated: 1
Substitution2: "'smcp' Lowercase to Small Capitals lookup 27 subtable" x.sc
Substitution2: "'aalt' Access All Alternates lookup 0 subtable" x.sc
EndChar
StartChar: y
Encoding: 90 121 72
Width: 567
GlyphClass: 2
Flags: W
AnchorPoint: "Anchor-18" 36 0 basechar 0
AnchorPoint: "Anchor-17" 36 0 basechar 0
AnchorPoint: "Anchor-16" 282 527 basechar 0
AnchorPoint: "Anchor-15" 36 0 basechar 0
AnchorPoint: "Anchor-14" 282 0 basechar 0
LayerCount: 2
Fore
SplineSet
46 0 m 1,0,-1
 225 527 l 1,1,-1
 336 527 l 1,2,-1
 518 0 l 1,3,-1
 418 0 l 1,4,-1
 280 445 l 1,5,-1
 143 0 l 1,6,-1
 46 0 l 1,0,-1
EndSplineSet
Validated: 1
EndChar
StartChar: z
Encoding: 91 122 73
Width: 525
GlyphClass: 2
Flags: W
AnchorPoint: "Anchor-18" 50 0 basechar 0
AnchorPoint: "Anchor-17" 50 0 basechar 0
AnchorPoint: "Anchor-16" 290 527 basechar 0
AnchorPoint: "Anchor-15" 50 0 basechar 0
AnchorPoint: "Anchor-14" 290 -202 basechar 0
LayerCount: 2
Fore
SplineSet
385.5 500.5 m 128,-1,1
 441 462 441 462 441 392 c 0,2,3
 441 344 441 344 416 315.5 c 128,-1,4
 391 287 391 287 335 272 c 1,5,6
 398 271 398 271 433.5 240 c 128,-1,7
 469 209 469 209 469 158 c 0,8,9
 469 71 469 71 375.5 3.5 c 128,-1,10
 282 -64 282 -64 112 -102 c 1,11,-1
 99 -35 l 1,12,13
 240 7 240 7 305 51 c 128,-1,14
 370 95 370 95 370 155 c 0,15,16
 370 196 370 196 345.5 212.5 c 128,-1,17
 321 229 321 229 272 229 c 2,18,-1
 220 229 l 1,19,-1
 226 301 l 1,20,-1
 237 301 l 2,21,22
 286 301 286 301 316 321.5 c 128,-1,23
 346 342 346 342 346 387 c 0,24,25
 346 430 346 430 317 448.5 c 128,-1,26
 288 467 288 467 241 467 c 0,27,28
 213 467 213 467 169 456 c 0,29,30
 161 454 161 454 153 450 c 1,31,-1
 154 220 l 5,32,-1
 62 220 l 5,33,-1
 61 479 l 1,34,35
 141 539 141 539 250 539 c 0,36,0
 330 539 330 539 385.5 500.5 c 128,-1,1
EndSplineSet
Validated: 1
EndChar
StartChar: braceleft
Encoding: 123 123 2176
Width: 322
Flags: W
LayerCount: 2
Fore
SplineSet
277 765 m 1,0,1
 226 765 226 765 204 749.5 c 128,-1,2
 182 734 182 734 182 697 c 2,3,-1
 182 458 l 2,4,5
 182 407 182 407 164 384.5 c 128,-1,6
 146 362 146 362 107 349 c 1,7,8
 147 335 147 335 164.5 314 c 128,-1,9
 182 293 182 293 182 242 c 2,10,-1
 182 3 l 2,11,12
 182 -34 182 -34 204 -49.5 c 128,-1,13
 226 -65 226 -65 277 -65 c 1,14,-1
 277 -136 l 1,15,16
 177 -136 177 -136 136 -101.5 c 128,-1,17
 95 -67 95 -67 95 13 c 2,18,-1
 95 235 l 2,19,20
 95 277 95 277 79.5 294 c 128,-1,21
 64 311 64 311 25 311 c 1,22,-1
 25 387 l 1,23,24
 64 387 64 387 79.5 405 c 128,-1,25
 95 423 95 423 95 465 c 2,26,-1
 95 687 l 2,27,28
 95 767 95 767 136 801.5 c 128,-1,29
 177 836 177 836 277 836 c 1,30,-1
 277 765 l 1,0,1
EndSplineSet
Validated: 1
Substitution2: "'case' Case-Sensitive Forms lookup 28 subtable" braceleft.case
Substitution2: "'aalt' Access All Alternates lookup 0 subtable" braceleft.case
EndChar
StartChar: bar
Encoding: 124 124 2430
Width: 403
GlyphClass: 2
Flags: W
LayerCount: 2
Fore
SplineSet
243 807 m 1,0,-1
 243 -102 l 1,1,-1
 160 -102 l 1,2,-1
 160 807 l 1,3,-1
 243 807 l 1,0,-1
EndSplineSet
Validated: 1
EndChar
StartChar: braceright
Encoding: 125 125 2177
Width: 322
Flags: W
LayerCount: 2
Fore
SplineSet
186 801.5 m 128,-1,1
 227 767 227 767 227 687 c 2,2,-1
 227 465 l 2,3,4
 227 423 227 423 242.5 405 c 128,-1,5
 258 387 258 387 297 387 c 1,6,-1
 297 311 l 1,7,8
 258 311 258 311 242.5 294 c 128,-1,9
 227 277 227 277 227 235 c 2,10,-1
 227 13 l 2,11,12
 227 -67 227 -67 186 -101.5 c 128,-1,13
 145 -136 145 -136 45 -136 c 1,14,-1
 45 -65 l 1,15,16
 96 -65 96 -65 118 -49.5 c 128,-1,17
 140 -34 140 -34 140 3 c 2,18,-1
 140 242 l 2,19,20
 140 293 140 293 157.5 314 c 128,-1,21
 175 335 175 335 215 349 c 1,22,23
 176 362 176 362 158 384.5 c 128,-1,24
 140 407 140 407 140 458 c 2,25,-1
 140 697 l 2,26,27
 140 734 140 734 118 749.5 c 128,-1,28
 96 765 96 765 45 765 c 1,29,-1
 45 836 l 1,30,0
 145 836 145 836 186 801.5 c 128,-1,1
EndSplineSet
Validated: 1
Substitution2: "'case' Case-Sensitive Forms lookup 28 subtable" braceright.case
Substitution2: "'aalt' Access All Alternates lookup 0 subtable" braceright.case
EndChar
StartChar: asciitilde
Encoding: 95 126 182
Width: 547
GlyphClass: 2
Flags: W
LayerCount: 2
Fore
SplineSet
297.5 259.5 m 128,-1,1
 276 269 276 269 246 288 c 0,2,3
 228 300 228 300 216 306 c 128,-1,4
 204 312 204 312 192 312 c 0,5,6
 153 312 153 312 120 258 c 1,7,-1
 64 287 l 1,8,9
 114 384 114 384 201 384 c 0,10,11
 229 384 229 384 250 375 c 128,-1,12
 271 366 271 366 299 348 c 0,13,14
 319 335 319 335 331.5 329 c 128,-1,15
 344 323 344 323 357 323 c 0,16,17
 378 323 378 323 396 336.5 c 128,-1,18
 414 350 414 350 427 371 c 1,19,-1
 482 341 l 1,20,21
 435 250 435 250 348 250 c 0,22,0
 319 250 319 250 297.5 259.5 c 128,-1,1
EndSplineSet
Validated: 1
EndChar
StartChar: exclamdown
Encoding: 161 161 2159
Width: 241
Flags: W
LayerCount: 2
Fore
SplineSet
170 474.5 m 128,-1,1
 190 454 190 454 190 425 c 256,2,3
 190 396 190 396 170 376 c 128,-1,4
 150 356 150 356 121 356 c 0,5,6
 91 356 91 356 71 376 c 128,-1,7
 51 396 51 396 51 425 c 256,8,9
 51 454 51 454 71 474.5 c 128,-1,10
 91 495 91 495 121 495 c 0,11,0
 150 495 150 495 170 474.5 c 128,-1,1
162 247 m 1,12,-1
 173 -202 l 1,13,-1
 71 -202 l 1,14,-1
 81 247 l 1,15,-1
 162 247 l 1,12,-1
EndSplineSet
Validated: 1
Substitution2: "'case' Case-Sensitive Forms lookup 28 subtable" exclamdown.case
Substitution2: "'aalt' Access All Alternates lookup 0 subtable" exclamdown.case
EndChar
StartChar: cent
Encoding: 162 162 2233
Width: 478
GlyphClass: 2
Flags: W
AnchorPoint: "Anchor-3" 0 0 basechar 0
AnchorPoint: "Anchor-2" 0 0 basechar 0
AnchorPoint: "Anchor-1" 289 527 basechar 0
AnchorPoint: "Anchor-0" 284 0 basechar 0
LayerCount: 2
Fore
SplineSet
448 46 m 1,0,1
 392 1 392 1 329 -9 c 1,2,-1
 329 -154 l 1,3,-1
 249 -154 l 1,4,-1
 249 -9 l 1,5,6
 159 3 159 3 108 73.5 c 128,-1,7
 57 144 57 144 57 259 c 256,8,9
 57 374 57 374 108.5 448.5 c 128,-1,10
 160 523 160 523 250 536 c 1,11,-1
 250 684 l 1,12,-1
 329 684 l 1,13,-1
 329 536 l 1,14,15
 394 527 394 527 448 482 c 1,16,-1
 404 424 l 1,17,18
 376 444 376 444 349.5 453.5 c 128,-1,19
 323 463 323 463 291 463 c 0,20,21
 227 463 227 463 191.5 412 c 128,-1,22
 156 361 156 361 156 261 c 256,23,24
 156 161 156 161 191 113.5 c 128,-1,25
 226 66 226 66 291 66 c 0,26,27
 322 66 322 66 348 75.5 c 128,-1,28
 374 85 374 85 406 106 c 1,29,-1
 448 46 l 1,0,1
EndSplineSet
Validated: 1
Substitution2: "'onum' Oldstyle Figures lookup 25 subtable" cent.osf
Substitution2: "'tnum' Tabular Numbers lookup 24 subtable" cent.tf
AlternateSubs2: "'aalt' Access All Alternates lookup 1 subtable" cent.tf cent.osf
EndChar
StartChar: sterling
Encoding: 99 163 164
Width: 549
GlyphClass: 2
Flags: W
LayerCount: 2
Fore
SplineSet
212 125 m 128,-1,1
 199 97 199 97 164 77 c 1,2,-1
 484 77 l 1,3,-1
 473 0 l 1,4,-1
 52 0 l 1,5,-1
 52 73 l 1,6,7
 87 86 87 86 104 100.5 c 128,-1,8
 121 115 121 115 127.5 138.5 c 128,-1,9
 134 162 134 162 134 205 c 2,10,-1
 134 322 l 1,11,-1
 68 322 l 1,12,-1
 68 382 l 1,13,-1
 134 382 l 1,14,-1
 134 493 l 2,15,16
 134 576 134 576 184 627.5 c 128,-1,17
 234 679 234 679 323 679 c 0,18,19
 378 679 378 679 422 658.5 c 128,-1,20
 466 638 466 638 502 596 c 1,21,-1
 442 550 l 1,22,23
 418 578 418 578 391 591 c 128,-1,24
 364 604 364 604 327 604 c 0,25,26
 278 604 278 604 251.5 575.5 c 128,-1,27
 225 547 225 547 225 494 c 2,28,-1
 225 382 l 1,29,-1
 433 382 l 1,30,-1
 433 322 l 1,31,-1
 225 322 l 1,32,-1
 225 204 l 2,33,0
 225 153 225 153 212 125 c 128,-1,1
EndSplineSet
Validated: 1
EndChar
StartChar: currency
Encoding: 100 164 161
Width: 616
GlyphClass: 2
Flags: W
LayerCount: 2
Fore
SplineSet
483 218 m 1,1,-1
 559 143 l 1,2,-1
 504 88 l 1,3,-1
 426 164 l 1,4,5
 373 132 373 132 306 132 c 0,6,7
 240 132 240 132 188 167 c 1,8,-1
 110 88 l 1,9,-1
 57 143 l 1,10,-1
 135 221 l 1,11,12
 99 274 99 274 99 341 c 0,13,14
 99 406 99 406 134 460 c 1,15,-1
 57 540 l 1,16,-1
 112 595 l 1,17,-1
 190 515 l 1,18,19
 239 549 239 549 306 549 c 0,20,21
 375 549 375 549 427 516 c 1,22,-1
 506 595 l 1,23,-1
 559 540 l 1,24,-1
 483 463 l 1,25,26
 520 411 520 411 520 341 c 0,27,0
 520 272 520 272 483 218 c 1,1,-1
400.5 241 m 128,-1,29
 432 277 432 277 432 342 c 256,30,31
 432 407 432 407 400.5 443 c 128,-1,32
 369 479 369 479 309 479 c 0,33,34
 250 479 250 479 218.5 442.5 c 128,-1,35
 187 406 187 406 187 342 c 0,36,37
 187 277 187 277 218.5 241 c 128,-1,38
 250 205 250 205 309 205 c 0,39,28
 369 205 369 205 400.5 241 c 128,-1,29
EndSplineSet
Validated: 1
EndChar
StartChar: yen
Encoding: 165 165 2300
Width: 536
GlyphClass: 2
Flags: W
LayerCount: 2
Fore
SplineSet
531 669 m 1,0,-1
 340 346 l 1,1,-1
 453 346 l 1,2,-1
 453 284 l 1,3,-1
 315 284 l 1,4,-1
 315 194 l 1,5,-1
 453 194 l 1,6,-1
 453 133 l 1,7,-1
 315 133 l 1,8,-1
 315 0 l 1,9,-1
 221 0 l 1,10,-1
 221 133 l 1,11,-1
 82 133 l 1,12,-1
 82 194 l 1,13,-1
 221 194 l 1,14,-1
 221 284 l 1,15,-1
 82 284 l 1,16,-1
 82 346 l 1,17,-1
 196 346 l 1,18,-1
 5 669 l 1,19,-1
 107 669 l 1,20,-1
 271 374 l 1,21,-1
 434 669 l 1,22,-1
 531 669 l 1,0,-1
EndSplineSet
Validated: 1
Substitution2: "'onum' Oldstyle Figures lookup 25 subtable" yen.osf
Substitution2: "'tnum' Tabular Numbers lookup 24 subtable" yen.tf
AlternateSubs2: "'aalt' Access All Alternates lookup 1 subtable" yen.tf yen.osf
EndChar
StartChar: brokenbar
Encoding: 102 166 283
Width: 225
GlyphClass: 2
Flags: W
LayerCount: 2
Fore
SplineSet
154 807 m 1,0,-1
 154 443 l 1,1,-1
 71 443 l 1,2,-1
 71 807 l 1,3,-1
 154 807 l 1,0,-1
154 262 m 1,4,-1
 154 -102 l 1,5,-1
 71 -102 l 1,6,-1
 71 262 l 1,7,-1
 154 262 l 1,4,-1
EndSplineSet
Validated: 1
EndChar
StartChar: section
Encoding: 103 167 277
Width: 503
GlyphClass: 2
Flags: W
LayerCount: 2
Fore
SplineSet
426 75 m 0,1,2
 426 8 426 8 372 -31.5 c 128,-1,3
 318 -71 318 -71 231 -71 c 0,4,5
 134 -71 134 -71 63 -21 c 1,6,-1
 98 40 l 1,7,8
 128 20 128 20 160.5 10.5 c 128,-1,9
 193 1 193 1 234 1 c 0,10,11
 278 1 278 1 306 18 c 128,-1,12
 334 35 334 35 334 66 c 0,13,14
 334 90 334 90 324 105 c 128,-1,15
 314 120 314 120 288.5 133 c 128,-1,16
 263 146 263 146 210 163 c 0,17,18
 127 190 127 190 91 222 c 128,-1,19
 55 254 55 254 55 311 c 0,20,21
 55 347 55 347 75.5 378.5 c 128,-1,22
 96 410 96 410 132 432 c 1,23,24
 105 450 105 450 92 474.5 c 128,-1,25
 79 499 79 499 79 533 c 0,26,27
 79 600 79 600 131 638.5 c 128,-1,28
 183 677 183 677 266 677 c 0,29,30
 363 677 363 677 437 623 c 1,31,-1
 402 565 l 1,32,33
 369 586 369 586 337 596 c 128,-1,34
 305 606 305 606 265 606 c 0,35,36
 220 606 220 606 195 588.5 c 128,-1,37
 170 571 170 571 170 540 c 0,38,39
 170 516 170 516 179.5 500.5 c 128,-1,40
 189 485 189 485 215 471 c 128,-1,41
 241 457 241 457 292 440 c 0,42,43
 375 412 375 412 411.5 379 c 128,-1,44
 448 346 448 346 448 293 c 0,45,46
 448 224 448 224 372 173 c 1,47,0
 426 136 426 136 426 75 c 0,1,2
163.5 269 m 128,-1,49
 183 251 183 251 239 233 c 0,50,51
 282 219 282 219 318 203 c 1,52,53
 338 221 338 221 349 241 c 128,-1,54
 360 261 360 261 360 280 c 0,55,56
 360 304 360 304 351 319.5 c 128,-1,57
 342 335 342 335 319.5 347.5 c 128,-1,58
 297 360 297 360 252 376 c 0,59,60
 217 389 217 389 185 403 c 1,61,62
 166 384 166 384 155 363 c 128,-1,63
 144 342 144 342 144 323 c 0,64,48
 144 287 144 287 163.5 269 c 128,-1,49
EndSplineSet
Validated: 1
EndChar
StartChar: copyright
Encoding: 169 169 2426
Width: 810
GlyphClass: 2
Flags: W
LayerCount: 2
Fore
SplineSet
563.5 707.5 m 128,-1,1
 635 667 635 667 676.5 595.5 c 128,-1,2
 718 524 718 524 718 434 c 256,3,4
 718 344 718 344 676.5 272.5 c 128,-1,5
 635 201 635 201 563.5 161 c 128,-1,6
 492 121 492 121 406 121 c 256,7,8
 320 121 320 121 248 161 c 128,-1,9
 176 201 176 201 134 272.5 c 128,-1,10
 92 344 92 344 92 434 c 256,11,12
 92 524 92 524 134 595.5 c 128,-1,13
 176 667 176 667 248 707.5 c 128,-1,14
 320 748 320 748 406 748 c 256,15,0
 492 748 492 748 563.5 707.5 c 128,-1,1
276.5 663 m 128,-1,17
 219 630 219 630 186 570 c 128,-1,18
 153 510 153 510 153 434 c 256,19,20
 153 358 153 358 186 299 c 128,-1,21
 219 240 219 240 276.5 207 c 128,-1,22
 334 174 334 174 406 174 c 0,23,24
 477 174 477 174 534.5 207 c 128,-1,25
 592 240 592 240 625 299 c 128,-1,26
 658 358 658 358 658 434 c 256,27,28
 658 510 658 510 625 570 c 128,-1,29
 592 630 592 630 534.5 663 c 128,-1,30
 477 696 477 696 406 696 c 0,31,16
 334 696 334 696 276.5 663 c 128,-1,17
471 615 m 128,-1,33
 498 605 498 605 525 585 c 1,34,-1
 490 538 l 1,35,36
 452 565 452 565 412 565 c 0,37,38
 371 565 371 565 346 533 c 128,-1,39
 321 501 321 501 321 435 c 0,40,41
 321 372 321 372 345.5 340 c 128,-1,42
 370 308 370 308 412 308 c 0,43,44
 437 308 437 308 456.5 315.5 c 128,-1,45
 476 323 476 323 496 339 c 1,46,-1
 528 291 l 1,47,48
 476 245 476 245 409 245 c 0,49,50
 335 245 335 245 290 295 c 128,-1,51
 245 345 245 345 245 435 c 0,52,53
 245 495 245 495 267 538 c 128,-1,54
 289 581 289 581 326 603 c 128,-1,55
 363 625 363 625 408 625 c 0,56,32
 444 625 444 625 471 615 c 128,-1,33
EndSplineSet
Validated: 1
EndChar
StartChar: ordfeminine
Encoding: 170 170 1078
Width: 500
GlyphClass: 2
Flags: W
LayerCount: 2
Fore
SplineSet
313 525 m 1,0,-1
 313 549 l 2,1,2
 313 588 313 588 293 604 c 128,-1,3
 273 620 273 620 230 620 c 0,4,5
 181 620 181 620 117 599 c 1,6,-1
 95 661 l 1,7,8
 173 689 173 689 245 689 c 0,9,10
 402 689 402 689 402 554 c 2,11,-1
 402 384 l 2,12,13
 402 361 402 361 410 350 c 128,-1,14
 418 339 418 339 435 333 c 1,15,-1
 416 272 l 1,16,17
 381 276 381 276 359.5 289.5 c 128,-1,18
 338 303 338 303 327 331 c 1,19,20
 306 301 306 301 273.5 286 c 128,-1,21
 241 271 241 271 201 271 c 0,22,23
 138 271 138 271 101.5 304.5 c 128,-1,24
 65 338 65 338 65 393 c 0,25,26
 65 457 65 457 114.5 491 c 128,-1,27
 164 525 164 525 255 525 c 2,28,-1
 313 525 l 1,0,-1
313 390 m 1,30,-1
 313 470 l 1,31,-1
 265 470 l 2,32,33
 159 470 159 470 159 398 c 0,34,35
 159 369 159 369 176 353 c 128,-1,36
 193 337 193 337 224 337 c 0,37,29
 280 337 280 337 313 390 c 1,30,-1
71 77 m 1,38,-1
 447 77 l 1,39,-1
 447 0 l 1,40,-1
 71 0 l 1,41,-1
 71 77 l 1,38,-1
EndSplineSet
Validated: 1
EndChar
StartChar: logicalnot
Encoding: 107 172 183
Width: 516
GlyphClass: 2
Flags: W
LayerCount: 2
Fore
SplineSet
443 361 m 1,0,-1
 443 141 l 1,1,-1
 360 141 l 1,2,-1
 360 284 l 1,3,-1
 67 284 l 1,4,-1
 67 361 l 1,5,-1
 443 361 l 1,0,-1
EndSplineSet
Validated: 1
EndChar
StartChar: uni00AD
Encoding: 173 173 2204
Width: 403
Flags: W
LayerCount: 2
Fore
SplineSet
60 274 m 1,0,-1
 60 352 l 1,1,-1
 343 352 l 1,2,-1
 343 274 l 1,3,-1
 60 274 l 1,0,-1
EndSplineSet
Validated: 1
Substitution2: "'case' Case-Sensitive Forms lookup 28 subtable" uni00AD.case
Substitution2: "'aalt' Access All Alternates lookup 0 subtable" uni00AD.case
EndChar
StartChar: registered
Encoding: 109 174 279
Width: 619
GlyphClass: 2
Flags: W
LayerCount: 2
Fore
SplineSet
437.5 715.5 m 128,-1,1
 496 681 496 681 529.5 622 c 128,-1,2
 563 563 563 563 563 493 c 256,3,4
 563 423 563 423 529.5 364.5 c 128,-1,5
 496 306 496 306 437.5 272 c 128,-1,6
 379 238 379 238 308 238 c 0,7,8
 239 238 239 238 181 272 c 128,-1,9
 123 306 123 306 89.5 364.5 c 128,-1,10
 56 423 56 423 56 493 c 256,11,12
 56 563 56 563 89.5 622 c 128,-1,13
 123 681 123 681 181 715.5 c 128,-1,14
 239 750 239 750 308 750 c 0,15,0
 379 750 379 750 437.5 715.5 c 128,-1,1
411.5 313.5 m 128,-1,17
 457 340 457 340 482.5 387 c 128,-1,18
 508 434 508 434 508 493 c 256,19,20
 508 552 508 552 482.5 599.5 c 128,-1,21
 457 647 457 647 411.5 674 c 128,-1,22
 366 701 366 701 308 701 c 0,23,24
 252 701 252 701 207 674 c 128,-1,25
 162 647 162 647 136.5 599.5 c 128,-1,26
 111 552 111 552 111 493 c 256,27,28
 111 434 111 434 136.5 387 c 128,-1,29
 162 340 162 340 207 313.5 c 128,-1,30
 252 287 252 287 308 287 c 0,31,16
 366 287 366 287 411.5 313.5 c 128,-1,17
399 502.5 m 128,-1,33
 381 483 381 483 352 474 c 1,34,-1
 426 359 l 1,35,-1
 359 359 l 1,36,-1
 298 465 l 1,37,-1
 274 465 l 1,38,-1
 274 359 l 1,39,-1
 217 359 l 1,40,-1
 217 635 l 1,41,-1
 295 635 l 2,42,43
 417 635 417 635 417 551 c 0,44,32
 417 522 417 522 399 502.5 c 128,-1,33
274 509 m 1,45,-1
 304 509 l 2,46,47
 358 509 358 509 358 551 c 0,48,49
 358 572 358 572 344.5 581.5 c 128,-1,50
 331 591 331 591 302 591 c 2,51,-1
 274 591 l 1,52,-1
 274 509 l 1,45,-1
EndSplineSet
Validated: 1
EndChar
StartChar: degree
Encoding: 111 176 281
Width: 443
GlyphClass: 2
Flags: W
LayerCount: 2
Fore
SplineSet
140.5 400 m 128,-1,1
 103 419 103 419 80 455.5 c 128,-1,2
 57 492 57 492 57 541 c 256,3,4
 57 590 57 590 80 626.5 c 128,-1,5
 103 663 103 663 140.5 682 c 128,-1,6
 178 701 178 701 221 701 c 256,7,8
 264 701 264 701 301.5 682 c 128,-1,9
 339 663 339 663 362 626 c 128,-1,10
 385 589 385 589 385 540 c 256,11,12
 385 491 385 491 362 454.5 c 128,-1,13
 339 418 339 418 301.5 399.5 c 128,-1,14
 264 381 264 381 221 381 c 256,15,0
 178 381 178 381 140.5 400 c 128,-1,1
283 468 m 128,-1,17
 308 493 308 493 308 540 c 256,18,19
 308 587 308 587 283 612.5 c 128,-1,20
 258 638 258 638 221 638 c 256,21,22
 184 638 184 638 159 613 c 128,-1,23
 134 588 134 588 134 541 c 256,24,25
 134 494 134 494 159.5 468.5 c 128,-1,26
 185 443 185 443 221 443 c 0,27,16
 258 443 258 443 283 468 c 128,-1,17
EndSplineSet
Validated: 1
EndChar
StartChar: paragraph
Encoding: 182 182 2424
Width: 734
GlyphClass: 2
Flags: W
LayerCount: 2
Fore
SplineSet
594 689 m 1,0,-1
 594 -202 l 1,1,-1
 511 -215 l 1,2,-1
 511 616 l 1,3,-1
 397 616 l 1,4,-1
 397 -202 l 1,5,-1
 314 -215 l 1,6,-1
 314 282 l 1,7,8
 201 288 201 288 145.5 343 c 128,-1,9
 90 398 90 398 90 486 c 0,10,11
 90 583 90 583 156 636 c 128,-1,12
 222 689 222 689 336 689 c 2,13,-1
 594 689 l 1,0,-1
EndSplineSet
Validated: 1
EndChar
StartChar: periodcentered
Encoding: 116 183 89
Width: 276
Flags: W
LayerCount: 2
Fore
SplineSet
187 360 m 128,-1,1
 207 340 207 340 207 311 c 256,2,3
 207 282 207 282 187 261.5 c 128,-1,4
 167 241 167 241 137 241 c 0,5,6
 108 241 108 241 88 261.5 c 128,-1,7
 68 282 68 282 68 311 c 256,8,9
 68 340 68 340 88 360 c 128,-1,10
 108 380 108 380 137 380 c 0,11,0
 167 380 167 380 187 360 c 128,-1,1
EndSplineSet
Validated: 1
EndChar
StartChar: ordmasculine
Encoding: 186 186 1079
Width: 500
GlyphClass: 2
Flags: W
LayerCount: 2
Fore
SplineSet
393.5 633.5 m 128,-1,1
 444 578 444 578 444 480 c 0,2,3
 444 385 444 385 392.5 328 c 128,-1,4
 341 271 341 271 250 271 c 0,5,6
 158 271 158 271 107 327 c 128,-1,7
 56 383 56 383 56 480 c 0,8,9
 56 575 56 575 108 632 c 128,-1,10
 160 689 160 689 251 689 c 0,11,0
 343 689 343 689 393.5 633.5 c 128,-1,1
151 480 m 256,13,14
 151 340 151 340 250 340 c 256,15,16
 349 340 349 340 349 480 c 0,17,18
 349 552 349 552 324.5 586 c 128,-1,19
 300 620 300 620 251 620 c 0,20,12
 151 620 151 620 151 480 c 256,13,14
62 0 m 1,21,-1
 62 77 l 1,22,-1
 438 77 l 1,23,-1
 438 0 l 1,24,-1
 62 0 l 1,21,-1
EndSplineSet
Validated: 1
EndChar
StartChar: questiondown
Encoding: 120 191 103
Width: 497
Flags: W
LayerCount: 2
Fore
SplineSet
225 376 m 128,-1,1
 205 396 205 396 205 425 c 256,2,3
 205 454 205 454 225 474.5 c 128,-1,4
 245 495 245 495 275 495 c 0,5,6
 304 495 304 495 324 474.5 c 128,-1,7
 344 454 344 454 344 425 c 256,8,9
 344 396 344 396 324 376 c 128,-1,10
 304 356 304 356 275 356 c 0,11,0
 245 356 245 356 225 376 c 128,-1,1
138.5 -193.5 m 128,-1,13
 95 -172 95 -172 73 -136 c 128,-1,14
 51 -100 51 -100 51 -59 c 0,15,16
 51 -19 51 -19 64.5 8.5 c 128,-1,17
 78 36 78 36 98 53 c 128,-1,18
 118 70 118 70 150 92 c 0,19,20
 191 120 191 120 211.5 143.5 c 128,-1,21
 232 167 232 167 232 206 c 2,22,-1
 232 247 l 1,23,-1
 323 247 l 1,24,-1
 323 201 l 2,25,26
 323 159 323 159 309 130 c 128,-1,27
 295 101 295 101 275 83.5 c 128,-1,28
 255 66 255 66 222 44 c 0,29,30
 184 20 184 20 165.5 -0.5 c 128,-1,31
 147 -21 147 -21 147 -53 c 0,32,33
 147 -94 147 -94 174 -116.5 c 128,-1,34
 201 -139 201 -139 248 -139 c 0,35,36
 328 -139 328 -139 387 -67 c 1,37,-1
 450 -116 l 1,38,39
 366 -215 366 -215 242 -215 c 0,40,12
 182 -215 182 -215 138.5 -193.5 c 128,-1,13
EndSplineSet
Validated: 1
Substitution2: "'case' Case-Sensitive Forms lookup 28 subtable" questiondown.case
EndChar
StartChar: AE
Encoding: 198 198 34
Width: 816
GlyphClass: 2
Flags: W
AnchorPoint: "Anchor-18" 0 0 basechar 0
AnchorPoint: "Anchor-17" 0 0 basechar 0
AnchorPoint: "Anchor-16" 474 689 basechar 0
AnchorPoint: "Anchor-15" 0 0 basechar 0
AnchorPoint: "Anchor-14" 408 0 basechar 0
LayerCount: 2
Fore
SplineSet
535 76 m 1,0,-1
 762 76 l 1,1,-1
 762 0 l 1,2,-1
 458 0 l 1,3,-1
 418 173 l 1,4,-1
 150 173 l 1,5,-1
 85 0 l 1,6,-1
 -12 0 l 1,7,-1
 262 689 l 1,8,-1
 721 689 l 1,9,-1
 710 613 l 1,10,-1
 401 613 l 1,11,-1
 457 387 l 1,12,-1
 712 387 l 1,13,-1
 712 311 l 1,14,-1
 476 311 l 1,15,-1
 535 76 l 1,0,-1
179 250 m 1,16,-1
 400 250 l 1,17,-1
 316 613 l 1,18,-1
 179 250 l 1,16,-1
EndSplineSet
Validated: 1
Substitution2: "'c2sc' Capitals to Small Capitals lookup 26 subtable" ae.sc
Substitution2: "'aalt' Access All Alternates lookup 0 subtable" ae.sc
Position2: "'cpsp' Capital Spacing lookup 0 subtable" dx=5 dy=0 dh=10 dv=0
EndChar
StartChar: Ccedilla
Encoding: 199 199 49
Width: 560
GlyphClass: 2
Flags: W
AnchorPoint: "Anchor-18" 341 346 basechar 0
AnchorPoint: "Anchor-17" 0 0 basechar 0
AnchorPoint: "Anchor-16" 347 689 basechar 0
AnchorPoint: "Anchor-15" 0 0 basechar 0
AnchorPoint: "Anchor-14" 364 -241 basechar 0
LayerCount: 2
Fore
SplineSet
470.5 15.5 m 128,-1,1
 429 -5 429 -5 376 -10 c 1,2,-1
 376 -56 l 1,3,4
 424 -60 424 -60 446.5 -83.5 c 128,-1,5
 469 -107 469 -107 469 -141 c 0,6,7
 469 -189 469 -189 434 -215 c 128,-1,8
 399 -241 399 -241 345 -241 c 0,9,10
 317 -241 317 -241 293 -234.5 c 128,-1,11
 269 -228 269 -228 254 -217 c 1,12,-1
 279 -165 l 1,13,14
 309 -181 309 -181 342 -181 c 0,15,16
 365 -181 365 -181 378.5 -171.5 c 128,-1,17
 392 -162 392 -162 392 -141 c 256,18,19
 392 -120 392 -120 371 -109.5 c 128,-1,20
 350 -99 350 -99 303 -99 c 1,21,-1
 314 -11 l 1,22,23
 237 -4 237 -4 178.5 39.5 c 128,-1,24
 120 83 120 83 87.5 160.5 c 128,-1,25
 55 238 55 238 55 345 c 0,26,27
 55 458 55 458 93 538.5 c 128,-1,28
 131 619 131 619 196 660 c 128,-1,29
 261 701 261 701 341 701 c 0,30,31
 403 701 403 701 445.5 685 c 128,-1,32
 488 669 488 669 532 633 c 1,33,-1
 480 572 l 1,34,35
 417 623 417 623 347 623 c 0,36,37
 261 623 261 623 208.5 557 c 128,-1,38
 156 491 156 491 156 345 c 0,39,40
 156 203 156 203 208 135.5 c 128,-1,41
 260 68 260 68 346 68 c 0,42,43
 390 68 390 68 423 83 c 128,-1,44
 456 98 456 98 493 125 c 1,45,-1
 540 65 l 1,46,0
 512 36 512 36 470.5 15.5 c 128,-1,1
EndSplineSet
Validated: 1
Substitution2: "'c2sc' Capitals to Small Capitals lookup 26 subtable" ccedilla.sc
Substitution2: "'aalt' Access All Alternates lookup 0 subtable" ccedilla.sc
Position2: "'cpsp' Capital Spacing lookup 0 subtable" dx=5 dy=0 dh=10 dv=0
EndChar
StartChar: Eth
Encoding: 208 208 59
Width: 656
GlyphClass: 2
Flags: W
AnchorPoint: "Anchor-18" 335 345 basechar 0
AnchorPoint: "Anchor-17" 0 0 basechar 0
AnchorPoint: "Anchor-16" 315 689 basechar 0
AnchorPoint: "Anchor-15" 0 0 basechar 0
AnchorPoint: "Anchor-14" 312 0 basechar 0
LayerCount: 2
Fore
SplineSet
506.5 616.5 m 128,-1,1
 601 544 601 544 601 348 c 0,2,3
 601 157 601 157 506.5 78.5 c 128,-1,4
 412 0 412 0 277 0 c 2,5,-1
 112 0 l 1,6,-1
 112 318 l 1,7,-1
 20 318 l 1,8,-1
 20 388 l 1,9,-1
 112 388 l 1,10,-1
 112 689 l 1,11,-1
 256 689 l 2,12,0
 412 689 412 689 506.5 616.5 c 128,-1,1
440 134 m 128,-1,14
 500 193 500 193 500 348 c 0,15,16
 500 457 500 457 469 515.5 c 128,-1,17
 438 574 438 574 390 593.5 c 128,-1,18
 342 613 342 613 277 613 c 2,19,-1
 207 613 l 1,20,-1
 207 388 l 1,21,-1
 364 388 l 1,22,-1
 364 318 l 1,23,-1
 207 318 l 1,24,-1
 207 75 l 1,25,-1
 284 75 l 2,26,13
 380 75 380 75 440 134 c 128,-1,14
EndSplineSet
Validated: 1
Substitution2: "'c2sc' Capitals to Small Capitals lookup 26 subtable" eth.sc
Substitution2: "'aalt' Access All Alternates lookup 0 subtable" eth.sc
Position2: "'cpsp' Capital Spacing lookup 0 subtable" dx=5 dy=0 dh=10 dv=0
EndChar
StartChar: multiply
Encoding: 215 215 2317
Width: 500
GlyphClass: 2
Flags: W
LayerCount: 2
Fore
SplineSet
372 486 m 1,0,-1
 428 429 l 1,1,-1
 308 309 l 1,2,-1
 428 185 l 1,3,-1
 372 129 l 1,4,-1
 252 253 l 1,5,-1
 128 129 l 1,6,-1
 72 185 l 1,7,-1
 192 305 l 1,8,-1
 72 429 l 1,9,-1
 128 486 l 1,10,-1
 248 361 l 1,11,-1
 372 486 l 1,0,-1
EndSplineSet
Validated: 1
Substitution2: "'onum' Oldstyle Figures lookup 25 subtable" multiply.osf
Substitution2: "'tnum' Tabular Numbers lookup 24 subtable" multiply.tf
AlternateSubs2: "'aalt' Access All Alternates lookup 1 subtable" multiply.tf multiply.osf
EndChar
StartChar: Oslash
Encoding: 216 216 219
Width: 692
GlyphClass: 2
Flags: W
AnchorPoint: "Anchor-18" 0 0 basechar 0
AnchorPoint: "Anchor-17" 0 0 basechar 0
AnchorPoint: "Anchor-16" 341 704 basechar 0
AnchorPoint: "Anchor-15" 0 0 basechar 0
AnchorPoint: "Anchor-14" 346 0 basechar 0
LayerCount: 2
Fore
SplineSet
597.5 545.5 m 128,-1,1
 637 463 637 463 637 344 c 0,2,3
 637 232 637 232 600.5 152 c 128,-1,4
 564 72 564 72 498.5 30 c 128,-1,5
 433 -12 433 -12 346 -12 c 0,6,7
 310 -12 310 -12 279 -5 c 1,8,-1
 244 -127 l 1,9,-1
 165 -106 l 1,10,-1
 205 22 l 1,11,12
 134 62 134 62 94.5 143.5 c 128,-1,13
 55 225 55 225 55 343 c 0,14,15
 55 454 55 454 91.5 535 c 128,-1,16
 128 616 128 616 194 658.5 c 128,-1,17
 260 701 260 701 346 701 c 0,18,19
 383 701 383 701 412 694 c 1,20,-1
 449 819 l 1,21,-1
 528 798 l 1,22,-1
 486 667 l 1,23,0
 558 628 558 628 597.5 545.5 c 128,-1,1
206 555 m 128,-1,25
 156 487 156 487 156 343 c 0,26,27
 156 158 156 158 238 97 c 1,28,-1
 396 618 l 1,29,30
 369 623 369 623 346 623 c 0,31,24
 256 623 256 623 206 555 c 128,-1,25
536 344 m 0,33,34
 536 443 536 443 515 504 c 128,-1,35
 494 565 494 565 452 594 c 1,36,-1
 296 71 l 1,37,38
 321 66 321 66 346 66 c 0,39,32
 536 66 536 66 536 344 c 0,33,34
EndSplineSet
Validated: 1
Substitution2: "'c2sc' Capitals to Small Capitals lookup 26 subtable" oslash.sc
Substitution2: "'aalt' Access All Alternates lookup 0 subtable" oslash.sc
Position2: "'cpsp' Capital Spacing lookup 0 subtable" dx=5 dy=0 dh=10 dv=0
EndChar
StartChar: germandbls
Encoding: 223 223 647
Width: 593
GlyphClass: 2
Flags: W
LayerCount: 2
Fore
SplineSet
391.5 731 m 128,-1,1
 432 712 432 712 454 679.5 c 128,-1,2
 476 647 476 647 476 607 c 0,3,4
 476 566 476 566 459 542 c 128,-1,5
 442 518 442 518 410 492 c 0,6,7
 386 472 386 472 375.5 459 c 128,-1,8
 365 446 365 446 365 427 c 0,9,10
 365 404 365 404 382 387 c 128,-1,11
 399 370 399 370 434 346 c 0,12,13
 472 320 472 320 495.5 299 c 128,-1,14
 519 278 519 278 536 244 c 128,-1,15
 553 210 553 210 553 162 c 0,16,17
 553 110 553 110 528.5 70.5 c 128,-1,18
 504 31 504 31 463 9.5 c 128,-1,19
 422 -12 422 -12 375 -12 c 0,20,21
 316 -12 316 -12 273 11 c 1,22,-1
 300 75 l 1,23,24
 326 62 326 62 366 62 c 0,25,26
 408 62 408 62 433.5 88 c 128,-1,27
 459 114 459 114 459 163 c 0,28,29
 459 208 459 208 435.5 236 c 128,-1,30
 412 264 412 264 366 297 c 0,31,32
 323 328 323 328 300.5 354 c 128,-1,33
 278 380 278 380 278 420 c 0,34,35
 278 453 278 453 292 472 c 128,-1,36
 306 491 306 491 335 515 c 0,37,38
 362 537 362 537 375 555 c 128,-1,39
 388 573 388 573 388 602 c 0,40,41
 388 639 388 639 361.5 658.5 c 128,-1,42
 335 678 335 678 295 678 c 0,43,44
 187 678 187 678 187 539 c 2,45,-1
 187 0 l 1,46,-1
 95 0 l 1,47,-1
 95 539 l 2,48,49
 95 639 95 639 147.5 694.5 c 128,-1,50
 200 750 200 750 296 750 c 0,51,0
 351 750 351 750 391.5 731 c 128,-1,1
EndSplineSet
Validated: 1
Substitution2: "'smcp' Lowercase to Small Capitals lookup 27 subtable" germandbls.sc
Substitution2: "'aalt' Access All Alternates lookup 0 subtable" germandbls.sc
EndChar
StartChar: ae
Encoding: 230 230 374
Width: 849
GlyphClass: 2
Flags: W
AnchorPoint: "Anchor-18" 0 0 basechar 0
AnchorPoint: "Anchor-17" 0 0 basechar 0
AnchorPoint: "Anchor-16" 427 527 basechar 0
AnchorPoint: "Anchor-15" 0 0 basechar 0
AnchorPoint: "Anchor-14" 417 0 basechar 0
LayerCount: 2
Fore
SplineSet
795 232 m 1,1,-1
 459 232 l 1,2,3
 465 145 465 145 503 104 c 128,-1,4
 541 63 541 63 601 63 c 0,5,6
 639 63 639 63 671 74 c 128,-1,7
 703 85 703 85 738 109 c 1,8,-1
 778 54 l 1,9,10
 694 -12 694 -12 594 -12 c 0,11,12
 531 -12 531 -12 482.5 13 c 128,-1,13
 434 38 434 38 404 85 c 1,14,15
 368 33 368 33 323 10.5 c 128,-1,16
 278 -12 278 -12 216 -12 c 0,17,18
 137 -12 137 -12 91 32 c 128,-1,19
 45 76 45 76 45 147 c 0,20,21
 45 231 45 231 107 276 c 128,-1,22
 169 321 169 321 280 321 c 2,23,-1
 361 321 l 1,24,-1
 361 360 l 2,25,26
 361 416 361 416 334 440 c 128,-1,27
 307 464 307 464 251 464 c 0,28,29
 193 464 193 464 109 436 c 1,30,-1
 86 503 l 1,31,32
 184 539 184 539 268 539 c 0,33,34
 382 539 382 539 425 455 c 1,35,36
 482 539 482 539 584 539 c 256,37,38
 686 539 686 539 741.5 470 c 128,-1,39
 797 401 797 401 797 279 c 0,40,0
 797 256 797 256 795 232 c 1,1,-1
706 306 m 2,41,42
 706 384 706 384 675 425 c 128,-1,43
 644 466 644 466 582 466 c 0,44,45
 469 466 469 466 459 300 c 1,46,-1
 706 300 l 1,47,-1
 706 306 l 2,41,42
312.5 79 m 128,-1,49
 346 101 346 101 376 149 c 1,50,51
 361 197 361 197 361 257 c 2,52,-1
 361 260 l 1,53,-1
 292 260 l 2,54,55
 146 260 146 260 146 152 c 0,56,57
 146 105 146 105 169 81 c 128,-1,58
 192 57 192 57 237 57 c 0,59,48
 279 57 279 57 312.5 79 c 128,-1,49
EndSplineSet
Validated: 1
Substitution2: "'smcp' Lowercase to Small Capitals lookup 27 subtable" ae.sc
Substitution2: "'aalt' Access All Alternates lookup 0 subtable" ae.sc
EndChar
StartChar: ccedilla
Encoding: 231 231 391
Width: 478
GlyphClass: 2
Flags: W
AnchorPoint: "Anchor-18" 0 0 basechar 0
AnchorPoint: "Anchor-17" 0 0 basechar 0
AnchorPoint: "Anchor-16" 289 527 basechar 0
AnchorPoint: "Anchor-15" 0 0 basechar 0
AnchorPoint: "Anchor-14" 296 -241 basechar 0
LayerCount: 2
Fore
SplineSet
308 -11 m 1,1,-1
 308 -56 l 1,2,3
 356 -60 356 -60 378.5 -83.5 c 128,-1,4
 401 -107 401 -107 401 -141 c 0,5,6
 401 -189 401 -189 366 -215 c 128,-1,7
 331 -241 331 -241 277 -241 c 0,8,9
 249 -241 249 -241 225 -234.5 c 128,-1,10
 201 -228 201 -228 186 -217 c 1,11,-1
 211 -165 l 1,12,13
 241 -181 241 -181 274 -181 c 0,14,15
 297 -181 297 -181 310.5 -171.5 c 128,-1,16
 324 -162 324 -162 324 -141 c 256,17,18
 324 -120 324 -120 303 -109.5 c 128,-1,19
 282 -99 282 -99 235 -99 c 1,20,-1
 246 -9 l 1,21,22
 157 5 157 5 107 75 c 128,-1,23
 57 145 57 145 57 259 c 0,24,25
 57 343 57 343 85 406 c 128,-1,26
 113 469 113 469 164.5 504 c 128,-1,27
 216 539 216 539 287 539 c 0,28,29
 334 539 334 539 373 525.5 c 128,-1,30
 412 512 412 512 448 482 c 1,31,-1
 404 424 l 1,32,33
 376 444 376 444 349.5 453.5 c 128,-1,34
 323 463 323 463 291 463 c 0,35,36
 227 463 227 463 191.5 412 c 128,-1,37
 156 361 156 361 156 261 c 256,38,39
 156 161 156 161 191 113.5 c 128,-1,40
 226 66 226 66 291 66 c 0,41,42
 322 66 322 66 348 75.5 c 128,-1,43
 374 85 374 85 406 106 c 1,44,-1
 448 46 l 1,45,0
 385 -5 385 -5 308 -11 c 1,1,-1
EndSplineSet
Validated: 1
Substitution2: "'smcp' Lowercase to Small Capitals lookup 27 subtable" ccedilla.sc
Substitution2: "'aalt' Access All Alternates lookup 0 subtable" ccedilla.sc
EndChar
StartChar: eth
Encoding: 125 240 43
Width: 574
GlyphClass: 2
Flags: W
AnchorPoint: "Anchor-18" -4 0 basechar 0
AnchorPoint: "Anchor-17" -4 0 basechar 0
AnchorPoint: "Anchor-16" 295 739 basechar 0
AnchorPoint: "Anchor-15" -4 0 basechar 0
AnchorPoint: "Anchor-14" 295 0 basechar 0
LayerCount: 2
Fore
SplineSet
499 0 m 1,0,-1
 418 0 l 1,1,-1
 409 73 l 1,2,3
 383 33 383 33 344 10.5 c 128,-1,4
 305 -12 305 -12 257 -12 c 0,5,6
 163 -12 163 -12 110.5 62 c 128,-1,7
 58 136 58 136 58 261 c 0,8,9
 58 342 58 342 83 405 c 128,-1,10
 108 468 108 468 155 503.5 c 128,-1,11
 202 539 202 539 265 539 c 0,12,13
 346 539 346 539 407 474 c 1,14,-1
 407 669 l 1,15,-1
 189 669 l 1,16,-1
 189 739 l 1,17,-1
 499 739 l 1,18,-1
 499 0 l 1,0,-1
349 80.5 m 128,-1,20
 379 100 379 100 407 139 c 1,21,-1
 407 397 l 1,22,23
 381 431 381 431 351.5 448.5 c 128,-1,24
 322 466 322 466 285 466 c 0,25,26
 224 466 224 466 190.5 415 c 128,-1,27
 157 364 157 364 157 263 c 0,28,29
 157 161 157 161 188 111 c 128,-1,30
 219 61 219 61 277 61 c 0,31,19
 319 61 319 61 349 80.5 c 128,-1,20
EndSplineSet
Validated: 1
EndChar
StartChar: oslash
Encoding: 127 248 59
Width: 587
GlyphClass: 2
Flags: W
AnchorPoint: "Anchor-18" 1 0 basechar 0
AnchorPoint: "Anchor-17" 1 0 basechar 0
AnchorPoint: "Anchor-16" 293 527 basechar 0
AnchorPoint: "Anchor-15" 1 0 basechar 0
AnchorPoint: "Anchor-14" 292 0 basechar 0
LayerCount: 2
Fore
SplineSet
499.5 412.5 m 128,-1,1
 528 350 528 350 528 264 c 0,2,3
 528 182 528 182 500 119.5 c 128,-1,4
 472 57 472 57 419 22.5 c 128,-1,5
 366 -12 366 -12 293 -12 c 0,6,7
 269 -12 269 -12 242 -7 c 1,8,-1
 203 -130 l 1,9,-1
 128 -108 l 1,10,-1
 170 19 l 1,11,12
 116 52 116 52 87 115 c 128,-1,13
 58 178 58 178 58 263 c 0,14,15
 58 345 58 345 86 407.5 c 128,-1,16
 114 470 114 470 167 504.5 c 128,-1,17
 220 539 220 539 294 539 c 0,18,19
 318 539 318 539 345 534 c 1,20,-1
 384 656 l 1,21,-1
 459 634 l 1,22,-1
 417 508 l 1,23,0
 471 475 471 475 499.5 412.5 c 128,-1,1
157 263 m 0,25,26
 157 134 157 134 205 89 c 1,27,-1
 329 462 l 1,28,29
 312 465 312 465 294 465 c 0,30,24
 157 465 157 465 157 263 c 0,25,26
429 264 m 0,32,33
 429 331 429 331 417.5 373 c 128,-1,34
 406 415 406 415 382 437 c 1,35,-1
 259 65 l 1,36,37
 274 62 274 62 293 62 c 0,38,31
 429 62 429 62 429 264 c 0,32,33
EndSplineSet
Validated: 1
EndChar
StartChar: thorn
Encoding: 128 254 61
Width: 575
GlyphClass: 2
Flags: W
AnchorPoint: "Anchor-18" 300 264 basechar 0
AnchorPoint: "Anchor-17" 510 739 basechar 0
AnchorPoint: "Anchor-16" 298 739 basechar 0
AnchorPoint: "Anchor-15" -3 0 basechar 0
AnchorPoint: "Anchor-14" 305 0 basechar 0
LayerCount: 2
Fore
SplineSet
500 278 m 1,0,-1
 500 32 l 1,1,-1
 500 0 l 1,2,-1
 499 0 l 1,3,4
 496 -51 496 -51 482 -85 c 0,5,6
 464 -129 464 -129 429.5 -156.5 c 128,-1,7
 395 -184 395 -184 333 -212 c 1,8,-1
 306 -145 l 1,9,10
 345 -127 345 -127 366 -109.5 c 128,-1,11
 387 -92 387 -92 397.5 -60.5 c 128,-1,12
 408 -29 408 -29 408 26 c 2,13,-1
 408 70 l 1,14,15
 383 32 383 32 345 10 c 0,16,17
 305 -12 305 -12 258 -12 c 0,18,19
 164 -12 164 -12 111.5 62 c 128,-1,20
 59 136 59 136 59 261 c 0,21,22
 59 342 59 342 84 405 c 128,-1,23
 109 468 109 468 156 503.5 c 128,-1,24
 203 539 203 539 266 539 c 0,25,26
 347 539 347 539 408 474 c 1,27,-1
 408 527 l 1,28,-1
 408 750 l 1,29,-1
 500 739 l 1,30,-1
 500 527 l 1,31,-1
 500 278 l 1,0,-1
408 139 m 1,32,-1
 408 397 l 1,33,34
 382 431 382 431 352.5 448.5 c 128,-1,35
 323 466 323 466 286 466 c 0,36,37
 225 466 225 466 191.5 415 c 128,-1,38
 158 364 158 364 158 263 c 0,39,40
 158 161 158 161 189 111 c 128,-1,41
 220 61 220 61 278 61 c 0,42,43
 320 61 320 61 350 80.5 c 128,-1,44
 380 100 380 100 408 139 c 1,32,-1
EndSplineSet
Validated: 1
EndChar
StartChar: Aogonek
Encoding: 260 260 29
Width: 573
GlyphClass: 2
Flags: W
AnchorPoint: "Anchor-18" 0 0 basechar 0
AnchorPoint: "Anchor-17" 0 0 basechar 0
AnchorPoint: "Anchor-16" 287 689 basechar 0
AnchorPoint: "Anchor-15" 537 0 basechar 0
AnchorPoint: "Anchor-14" 287 0 basechar 0
LayerCount: 2
Fore
SplineSet
430 -57.5 m 128,-1,1
 404 -84 404 -84 404 -114 c 0,2,3
 404 -162 404 -162 460 -162 c 0,4,5
 487 -162 487 -162 521 -155 c 1,6,-1
 512 -225 l 1,7,8
 477 -232 477 -232 449 -232 c 0,9,10
 392 -232 392 -232 358 -203.5 c 128,-1,11
 324 -175 324 -175 324 -131 c 0,12,13
 324 -83 324 -83 358 -47 c 128,-1,14
 392 -11 392 -11 462 16 c 1,15,-1
 415 173 l 1,16,-1
 154 173 l 1,17,-1
 102 0 l 1,18,-1
 6 0 l 1,19,-1
 227 689 l 1,20,-1
 347 689 l 1,21,-1
 567 0 l 1,22,-1
 527 0 l 1,23,0
 456 -31 456 -31 430 -57.5 c 128,-1,1
177 250 m 1,24,-1
 392 250 l 1,25,-1
 285 610 l 1,26,-1
 177 250 l 1,24,-1
EndSplineSet
Validated: 1
Substitution2: "'c2sc' Capitals to Small Capitals lookup 26 subtable" aogonek.sc
Substitution2: "'aalt' Access All Alternates lookup 0 subtable" aogonek.sc
Position2: "'cpsp' Capital Spacing lookup 0 subtable" dx=5 dy=0 dh=10 dv=0
EndChar
StartChar: aogonek
Encoding: 261 261 368
Width: 544
GlyphClass: 2
Flags: W
AnchorPoint: "Anchor-18" 0 0 basechar 0
AnchorPoint: "Anchor-17" 0 0 basechar 0
AnchorPoint: "Anchor-16" 261 527 basechar 0
AnchorPoint: "Anchor-15" 483 -12 basechar 0
AnchorPoint: "Anchor-14" 261 0 basechar 0
LayerCount: 2
Fore
SplineSet
376 -69.5 m 128,-1,1
 350 -96 350 -96 350 -126 c 0,2,3
 350 -174 350 -174 406 -174 c 0,4,5
 433 -174 433 -174 467 -167 c 1,6,-1
 458 -237 l 1,7,8
 423 -244 423 -244 395 -244 c 0,9,10
 338 -244 338 -244 304 -215.5 c 128,-1,11
 270 -187 270 -187 270 -143 c 0,12,13
 270 -94 270 -94 305.5 -57.5 c 128,-1,14
 341 -21 341 -21 414 6 c 1,15,16
 383 25 383 25 370 67 c 1,17,18
 317 -12 317 -12 213 -12 c 0,19,20
 135 -12 135 -12 90 32 c 128,-1,21
 45 76 45 76 45 147 c 0,22,23
 45 231 45 231 105.5 276 c 128,-1,24
 166 321 166 321 277 321 c 2,25,-1
 358 321 l 1,26,-1
 358 360 l 2,27,28
 358 416 358 416 331 440 c 128,-1,29
 304 464 304 464 248 464 c 0,30,31
 190 464 190 464 106 436 c 1,32,-1
 83 503 l 1,33,34
 181 539 181 539 265 539 c 0,35,36
 358 539 358 539 404 493.5 c 128,-1,37
 450 448 450 448 450 364 c 2,38,-1
 450 123 l 2,39,40
 450 91 450 91 461 75.5 c 128,-1,41
 472 60 472 60 494 52 c 1,42,-1
 473 -12 l 1,43,0
 402 -43 402 -43 376 -69.5 c 128,-1,1
358 139 m 1,45,-1
 358 260 l 1,46,-1
 289 260 l 2,47,48
 143 260 143 260 143 152 c 0,49,50
 143 105 143 105 166 81 c 128,-1,51
 189 57 189 57 234 57 c 0,52,44
 313 57 313 57 358 139 c 1,45,-1
EndSplineSet
Validated: 1
Substitution2: "'smcp' Lowercase to Small Capitals lookup 27 subtable" aogonek.sc
Substitution2: "'aalt' Access All Alternates lookup 0 subtable" aogonek.sc
EndChar
StartChar: dcroat
Encoding: 273 273 403
Width: 604
GlyphClass: 2
Flags: W
AnchorPoint: "Anchor-18" 303 264 basechar 0
AnchorPoint: "Anchor-17" 513 739 basechar 0
AnchorPoint: "Anchor-16" 301 739 basechar 0
AnchorPoint: "Anchor-15" 0 0 basechar 0
AnchorPoint: "Anchor-14" 308 0 basechar 0
LayerCount: 2
Fore
SplineSet
582 676 m 1,0,-1
 582 606 l 1,1,-1
 503 606 l 1,2,-1
 503 0 l 1,3,-1
 422 0 l 1,4,-1
 413 73 l 1,5,6
 387 33 387 33 348 10.5 c 128,-1,7
 309 -12 309 -12 261 -12 c 0,8,9
 167 -12 167 -12 114.5 62 c 128,-1,10
 62 136 62 136 62 261 c 0,11,12
 62 342 62 342 87 405 c 128,-1,13
 112 468 112 468 159 503.5 c 128,-1,14
 206 539 206 539 269 539 c 0,15,16
 350 539 350 539 411 474 c 1,17,-1
 411 606 l 1,18,-1
 253 606 l 1,19,-1
 253 676 l 1,20,-1
 411 676 l 1,21,-1
 411 750 l 1,22,-1
 503 739 l 1,23,-1
 503 676 l 1,24,-1
 582 676 l 1,0,-1
353 80.5 m 128,-1,26
 383 100 383 100 411 139 c 1,27,-1
 411 397 l 1,28,29
 385 431 385 431 355.5 448.5 c 128,-1,30
 326 466 326 466 289 466 c 0,31,32
 228 466 228 466 194.5 415 c 128,-1,33
 161 364 161 364 161 263 c 0,34,35
 161 161 161 161 192 111 c 128,-1,36
 223 61 223 61 281 61 c 0,37,25
 323 61 323 61 353 80.5 c 128,-1,26
EndSplineSet
Validated: 1
Substitution2: "'smcp' Lowercase to Small Capitals lookup 27 subtable" dcroat.sc
Substitution2: "'aalt' Access All Alternates lookup 0 subtable" dcroat.sc
EndChar
StartChar: Eogonek
Encoding: 280 280 89
Width: 535
GlyphClass: 2
Flags: W
AnchorPoint: "Anchor-18" 0 0 basechar 0
AnchorPoint: "Anchor-17" 0 0 basechar 0
AnchorPoint: "Anchor-16" 290 689 basechar 0
AnchorPoint: "Anchor-15" 451 0 basechar 0
AnchorPoint: "Anchor-14" 291 0 basechar 0
LayerCount: 2
Fore
SplineSet
481 76 m 1,0,-1
 481 0 l 1,1,-1
 441 0 l 1,2,3
 370 -31 370 -31 344 -57.5 c 128,-1,4
 318 -84 318 -84 318 -114 c 0,5,6
 318 -162 318 -162 374 -162 c 0,7,8
 401 -162 401 -162 435 -155 c 1,9,-1
 426 -225 l 1,10,11
 391 -232 391 -232 363 -232 c 0,12,13
 306 -232 306 -232 272 -203.5 c 128,-1,14
 238 -175 238 -175 238 -131 c 0,15,16
 238 -90 238 -90 263 -58 c 128,-1,17
 288 -26 288 -26 339 0 c 1,18,-1
 100 0 l 1,19,-1
 100 689 l 1,20,-1
 473 689 l 1,21,-1
 462 613 l 1,22,-1
 195 613 l 1,23,-1
 195 388 l 1,24,-1
 427 388 l 1,25,-1
 427 312 l 1,26,-1
 195 312 l 1,27,-1
 195 76 l 1,28,-1
 481 76 l 1,0,-1
EndSplineSet
Validated: 1
Substitution2: "'c2sc' Capitals to Small Capitals lookup 26 subtable" eogonek.sc
Substitution2: "'aalt' Access All Alternates lookup 0 subtable" eogonek.sc
Position2: "'cpsp' Capital Spacing lookup 0 subtable" dx=5 dy=0 dh=10 dv=0
EndChar
StartChar: eogonek
Encoding: 281 281 436
Width: 545
GlyphClass: 2
Flags: W
AnchorPoint: "Anchor-18" 0 0 basechar 0
AnchorPoint: "Anchor-17" 0 0 basechar 0
AnchorPoint: "Anchor-16" 279 527 basechar 0
AnchorPoint: "Anchor-15" 399 6 basechar 0
AnchorPoint: "Anchor-14" 293 0 basechar 0
LayerCount: 2
Fore
SplineSet
491 232 m 1,1,-1
 155 232 l 1,2,3
 161 145 161 145 199 104 c 128,-1,4
 237 63 237 63 297 63 c 0,5,6
 335 63 335 63 367 74 c 128,-1,7
 399 85 399 85 434 109 c 1,8,-1
 474 54 l 1,9,10
 430 19 430 19 381 2 c 1,11,12
 315 -27 315 -27 290.5 -53 c 128,-1,13
 266 -79 266 -79 266 -108 c 0,14,15
 266 -156 266 -156 322 -156 c 0,16,17
 349 -156 349 -156 383 -149 c 1,18,-1
 374 -219 l 1,19,20
 339 -226 339 -226 311 -226 c 0,21,22
 254 -226 254 -226 220 -197.5 c 128,-1,23
 186 -169 186 -169 186 -125 c 0,24,25
 186 -53 186 -53 269 -11 c 1,26,27
 169 -4 169 -4 113 67 c 128,-1,28
 57 138 57 138 57 258 c 0,29,30
 57 340 57 340 83.5 403.5 c 128,-1,31
 110 467 110 467 159.5 503 c 128,-1,32
 209 539 209 539 276 539 c 0,33,34
 381 539 381 539 437 470 c 128,-1,35
 493 401 493 401 493 279 c 0,36,0
 493 256 493 256 491 232 c 1,1,-1
402 306 m 2,37,38
 402 384 402 384 371 425 c 128,-1,39
 340 466 340 466 278 466 c 0,40,41
 165 466 165 466 155 300 c 1,42,-1
 402 300 l 1,43,-1
 402 306 l 2,37,38
EndSplineSet
Validated: 1
Substitution2: "'smcp' Lowercase to Small Capitals lookup 27 subtable" eogonek.sc
Substitution2: "'aalt' Access All Alternates lookup 0 subtable" eogonek.sc
EndChar
StartChar: Hbar
Encoding: 294 294 114
Width: 688
GlyphClass: 2
Flags: W
AnchorPoint: "Anchor-18" 344 345 basechar 0
AnchorPoint: "Anchor-17" 0 0 basechar 0
AnchorPoint: "Anchor-16" 344 689 basechar 0
AnchorPoint: "Anchor-15" 0 0 basechar 0
AnchorPoint: "Anchor-14" 344 0 basechar 0
LayerCount: 2
Fore
SplineSet
653 577 m 1,0,-1
 653 508 l 1,1,-1
 584 508 l 1,2,-1
 584 0 l 1,3,-1
 489 0 l 1,4,-1
 489 323 l 1,5,-1
 199 323 l 1,6,-1
 199 0 l 1,7,-1
 104 0 l 1,8,-1
 104 508 l 1,9,-1
 35 508 l 1,10,-1
 35 577 l 1,11,-1
 104 577 l 1,12,-1
 104 689 l 1,13,-1
 199 689 l 1,14,-1
 199 577 l 1,15,-1
 489 577 l 1,16,-1
 489 689 l 1,17,-1
 584 689 l 1,18,-1
 584 577 l 1,19,-1
 653 577 l 1,0,-1
489 401 m 1,20,-1
 489 508 l 1,21,-1
 199 508 l 1,22,-1
 199 401 l 1,23,-1
 489 401 l 1,20,-1
EndSplineSet
Validated: 1
Substitution2: "'c2sc' Capitals to Small Capitals lookup 26 subtable" hbar.sc
Substitution2: "'aalt' Access All Alternates lookup 0 subtable" hbar.sc
Position2: "'cpsp' Capital Spacing lookup 0 subtable" dx=5 dy=0 dh=10 dv=0
EndChar
StartChar: hbar
Encoding: 295 295 481
Width: 592
GlyphClass: 2
Flags: W
AnchorPoint: "Anchor-18" 298 264 basechar 0
AnchorPoint: "Anchor-17" 0 0 basechar 0
AnchorPoint: "Anchor-16" 298 739 basechar 0
AnchorPoint: "Anchor-15" 0 0 basechar 0
AnchorPoint: "Anchor-14" 302 0 basechar 0
LayerCount: 2
Fore
SplineSet
461.5 496 m 128,-1,1
 502 453 502 453 502 378 c 2,2,-1
 502 0 l 1,3,-1
 410 0 l 1,4,-1
 410 365 l 2,5,6
 410 421 410 421 388.5 444 c 128,-1,7
 367 467 367 467 326 467 c 256,8,9
 285 467 285 467 253 443 c 128,-1,10
 221 419 221 419 193 375 c 1,11,-1
 193 0 l 1,12,-1
 101 0 l 1,13,-1
 101 606 l 1,14,-1
 22 606 l 1,15,-1
 22 676 l 1,16,-1
 101 676 l 1,17,-1
 101 738 l 1,18,-1
 193 748 l 1,19,-1
 193 676 l 1,20,-1
 341 676 l 1,21,-1
 341 606 l 1,22,-1
 193 606 l 1,23,-1
 193 454 l 1,24,25
 255 539 255 539 349 539 c 0,26,0
 421 539 421 539 461.5 496 c 128,-1,1
EndSplineSet
Validated: 1
Substitution2: "'smcp' Lowercase to Small Capitals lookup 27 subtable" hbar.sc
Substitution2: "'aalt' Access All Alternates lookup 0 subtable" hbar.sc
EndChar
StartChar: Iogonek
Encoding: 302 302 137
Width: 295
GlyphClass: 2
Flags: W
AnchorPoint: "Anchor-18" 0 0 basechar 0
AnchorPoint: "Anchor-17" 0 0 basechar 0
AnchorPoint: "Anchor-16" 147 689 basechar 0
AnchorPoint: "Anchor-15" 205 0 basechar 0
AnchorPoint: "Anchor-14" 147 0 basechar 0
LayerCount: 2
Fore
SplineSet
98 -57.5 m 128,-1,1
 72 -84 72 -84 72 -114 c 0,2,3
 72 -162 72 -162 128 -162 c 0,4,5
 155 -162 155 -162 189 -155 c 1,6,-1
 180 -225 l 1,7,8
 145 -232 145 -232 117 -232 c 0,9,10
 60 -232 60 -232 26 -203.5 c 128,-1,11
 -8 -175 -8 -175 -8 -131 c 0,12,13
 -8 -47 -8 -47 100 3 c 1,14,-1
 100 689 l 1,15,-1
 195 689 l 1,16,-1
 195 0 l 1,17,0
 124 -31 124 -31 98 -57.5 c 128,-1,1
EndSplineSet
Validated: 1
Substitution2: "'c2sc' Capitals to Small Capitals lookup 26 subtable" iogonek.sc
Substitution2: "'aalt' Access All Alternates lookup 0 subtable" iogonek.sc
Position2: "'cpsp' Capital Spacing lookup 0 subtable" dx=5 dy=0 dh=10 dv=0
EndChar
StartChar: iogonek
Encoding: 303 303 507
Width: 282
GlyphClass: 2
Flags: W
AnchorPoint: "Anchor-18" 0 0 basechar 0
AnchorPoint: "Anchor-17" 0 0 basechar 0
AnchorPoint: "Anchor-16" 143 780 basechar 0
AnchorPoint: "Anchor-15" 197 0 basechar 0
AnchorPoint: "Anchor-14" 141 0 basechar 0
LayerCount: 2
Fore
SplineSet
187 762 m 128,-1,1
 205 744 205 744 205 717 c 256,2,3
 205 690 205 690 187 672.5 c 128,-1,4
 169 655 169 655 140 655 c 0,5,6
 112 655 112 655 94 672.5 c 128,-1,7
 76 690 76 690 76 717 c 256,8,9
 76 744 76 744 94 762 c 128,-1,10
 112 780 112 780 140 780 c 0,11,0
 169 780 169 780 187 762 c 128,-1,1
95 527 m 1,12,-1
 187 527 l 1,13,-1
 187 0 l 1,14,15
 116 -31 116 -31 90 -57.5 c 128,-1,16
 64 -84 64 -84 64 -114 c 0,17,18
 64 -162 64 -162 120 -162 c 0,19,20
 147 -162 147 -162 181 -155 c 1,21,-1
 172 -225 l 1,22,23
 137 -232 137 -232 109 -232 c 0,24,25
 52 -232 52 -232 18 -203.5 c 128,-1,26
 -16 -175 -16 -175 -16 -131 c 0,27,28
 -16 -88 -16 -88 11.5 -54.5 c 128,-1,29
 39 -21 39 -21 95 5 c 1,30,-1
 95 527 l 1,12,-1
EndSplineSet
Validated: 1
Substitution2: "'smcp' Lowercase to Small Capitals lookup 27 subtable" iogonek.sc
Substitution2: "'aalt' Access All Alternates lookup 0 subtable" iogonek.sc
EndChar
StartChar: dotlessi
Encoding: 305 305 492
Width: 282
GlyphClass: 2
Flags: W
AnchorPoint: "Anchor-18" 0 0 basechar 0
AnchorPoint: "Anchor-17" 0 0 basechar 0
AnchorPoint: "Anchor-16" 141 527 basechar 0
AnchorPoint: "Anchor-15" 197 0 basechar 0
AnchorPoint: "Anchor-14" 141 0 basechar 0
LayerCount: 2
Fore
SplineSet
187 527 m 1,0,-1
 187 0 l 1,1,-1
 95 0 l 1,2,-1
 95 527 l 1,3,-1
 187 527 l 1,0,-1
EndSplineSet
Validated: 1
Substitution2: "'smcp' Lowercase to Small Capitals lookup 27 subtable" dotlessi.sc
Substitution2: "'aalt' Access All Alternates lookup 0 subtable" dotlessi.sc
EndChar
StartChar: kgreenlandic
Encoding: 312 312 522
Width: 509
GlyphClass: 2
Flags: W
AnchorPoint: "Anchor-18" 0 0 basechar 0
AnchorPoint: "Anchor-17" 0 0 basechar 0
AnchorPoint: "Anchor-16" 255 527 basechar 0
AnchorPoint: "Anchor-15" 0 0 basechar 0
AnchorPoint: "Anchor-14" 255 0 basechar 0
LayerCount: 2
Fore
SplineSet
187 527 m 1,0,-1
 187 0 l 1,1,-1
 95 0 l 1,2,-1
 95 527 l 1,3,-1
 187 527 l 1,0,-1
487 527 m 1,4,-1
 293 284 l 1,5,-1
 509 0 l 1,6,-1
 399 0 l 1,7,-1
 190 278 l 1,8,-1
 384 527 l 1,9,-1
 487 527 l 1,4,-1
EndSplineSet
Validated: 1
Substitution2: "'smcp' Lowercase to Small Capitals lookup 27 subtable" kgreenlandic.sc
Substitution2: "'aalt' Access All Alternates lookup 0 subtable" kgreenlandic.sc
EndChar
StartChar: Lslash
Encoding: 321 321 160
Width: 514
GlyphClass: 2
Flags: W
AnchorPoint: "Anchor-18" 406 390 basechar 0
AnchorPoint: "Anchor-17" 231 689 basechar 0
AnchorPoint: "Anchor-16" 164 689 basechar 0
AnchorPoint: "Anchor-15" 0 0 basechar 0
AnchorPoint: "Anchor-14" 300 0 basechar 0
LayerCount: 2
Fore
SplineSet
211 83 m 1,0,-1
 494 83 l 1,1,-1
 483 0 l 1,2,-1
 116 0 l 1,3,-1
 116 257 l 1,4,-1
 60 222 l 1,5,-1
 22 282 l 1,6,-1
 116 340 l 1,7,-1
 116 689 l 1,8,-1
 211 689 l 1,9,-1
 211 399 l 1,10,-1
 371 498 l 1,11,-1
 409 438 l 1,12,-1
 211 315 l 1,13,-1
 211 83 l 1,0,-1
EndSplineSet
Validated: 1
Substitution2: "'c2sc' Capitals to Small Capitals lookup 26 subtable" lslash.sc
Substitution2: "'aalt' Access All Alternates lookup 0 subtable" lslash.sc
Position2: "'cpsp' Capital Spacing lookup 0 subtable" dx=5 dy=0 dh=10 dv=0
EndChar
StartChar: lslash
Encoding: 322 322 541
Width: 312
GlyphClass: 2
Flags: W
AnchorPoint: "Anchor-18" 303 380 basechar 0
AnchorPoint: "Anchor-17" 199 739 basechar 0
AnchorPoint: "Anchor-16" 142 739 basechar 0
AnchorPoint: "Anchor-15" 0 0 basechar 0
AnchorPoint: "Anchor-14" 184 0 basechar 0
LayerCount: 2
Fore
SplineSet
255 70 m 1,1,-1
 279 6 l 1,2,3
 246 -12 246 -12 206 -12 c 0,4,5
 155 -12 155 -12 125.5 18.5 c 128,-1,6
 96 49 96 49 96 104 c 2,7,-1
 96 300 l 1,8,-1
 45 269 l 1,9,-1
 10 328 l 1,10,-1
 96 382 l 1,11,-1
 96 739 l 1,12,-1
 188 750 l 1,13,-1
 188 437 l 1,14,-1
 279 492 l 1,15,-1
 312 432 l 1,16,-1
 188 356 l 1,17,-1
 188 106 l 2,18,19
 188 84 188 84 195.5 74 c 128,-1,20
 203 64 203 64 221 64 c 0,21,0
 240 64 240 64 255 70 c 1,1,-1
EndSplineSet
Validated: 1
Substitution2: "'smcp' Lowercase to Small Capitals lookup 27 subtable" lslash.sc
Substitution2: "'aalt' Access All Alternates lookup 0 subtable" lslash.sc
EndChar
StartChar: napostrophe
Encoding: 329 329 552
Width: 695
GlyphClass: 2
Flags: W
AnchorPoint: "Anchor-18" 0 0 basechar 0
AnchorPoint: "Anchor-17" 0 0 basechar 0
AnchorPoint: "Anchor-16" 407 527 basechar 0
AnchorPoint: "Anchor-15" 0 0 basechar 0
AnchorPoint: "Anchor-14" 402 0 basechar 0
LayerCount: 2
Fore
SplineSet
143.5 737 m 128,-1,1
 160 721 160 721 160 697 c 0,2,3
 160 684 160 684 154.5 668 c 128,-1,4
 149 652 149 652 134 620 c 2,5,-1
 93 534 l 1,6,-1
 40 534 l 1,7,-1
 69 650 l 1,8,9
 45 671 45 671 45 697 c 0,10,11
 45 721 45 721 62 737 c 128,-1,12
 79 753 79 753 103 753 c 256,13,0
 127 753 127 753 143.5 737 c 128,-1,1
564.5 496 m 128,-1,15
 605 453 605 453 605 378 c 2,16,-1
 605 0 l 1,17,-1
 513 0 l 1,18,-1
 513 365 l 2,19,20
 513 421 513 421 492 444 c 128,-1,21
 471 467 471 467 430 467 c 0,22,23
 388 467 388 467 356 443 c 128,-1,24
 324 419 324 419 296 374 c 1,25,-1
 296 0 l 1,26,-1
 204 0 l 1,27,-1
 204 527 l 1,28,-1
 283 527 l 1,29,-1
 291 449 l 1,30,31
 319 491 319 491 360.5 515 c 128,-1,32
 402 539 402 539 452 539 c 0,33,14
 524 539 524 539 564.5 496 c 128,-1,15
EndSplineSet
Validated: 1
Substitution2: "'smcp' Lowercase to Small Capitals lookup 27 subtable" napostrophe.sc
Ligature2: "'locl' Localized Forms in Latin lookup 11 subtable" quoteright n
Ligature2: "'locl' Localized Forms in Latin lookup 11 subtable" quotesingle n
Substitution2: "'aalt' Access All Alternates lookup 0 subtable" napostrophe.sc
EndChar
StartChar: Eng
Encoding: 330 330 175
Width: 683
GlyphClass: 2
Flags: W
AnchorPoint: "Anchor-18" 0 0 basechar 0
AnchorPoint: "Anchor-17" 0 0 basechar 0
AnchorPoint: "Anchor-16" 353 689 basechar 0
AnchorPoint: "Anchor-15" 0 0 basechar 0
AnchorPoint: "Anchor-14" 343 0 basechar 0
LayerCount: 2
Fore
SplineSet
583 689 m 1,0,-1
 583 -57 l 2,1,2
 583 -133 583 -133 543 -173 c 128,-1,3
 503 -213 503 -213 432 -213 c 0,4,5
 367 -213 367 -213 317 -175 c 1,6,-1
 354 -115 l 1,7,8
 373 -126 373 -126 388.5 -131.5 c 128,-1,9
 404 -137 404 -137 427 -137 c 0,10,11
 488 -137 488 -137 488 -63 c 2,12,-1
 488 0 l 1,13,-1
 456 0 l 1,14,-1
 176 585 l 1,15,16
 182 516 182 516 185.5 457.5 c 128,-1,17
 189 399 189 399 189 316 c 2,18,-1
 189 0 l 1,19,-1
 100 0 l 1,20,-1
 100 689 l 1,21,-1
 224 689 l 1,22,-1
 507 103 l 1,23,24
 504 129 504 129 499 194 c 128,-1,25
 494 259 494 259 494 313 c 2,26,-1
 494 689 l 1,27,-1
 583 689 l 1,0,-1
EndSplineSet
Validated: 1
Substitution2: "'ss01' Style Set 1 lookup 33 subtable" Eng.ss01
Substitution2: "'salt' Stylistic Alternatives lookup 32 subtable" Eng.ss01
Substitution2: "'c2sc' Capitals to Small Capitals lookup 26 subtable" eng.sc
AlternateSubs2: "'aalt' Access All Alternates lookup 1 subtable" eng.sc Eng.ss01
Position2: "'cpsp' Capital Spacing lookup 0 subtable" dx=5 dy=0 dh=10 dv=0
EndChar
StartChar: eng
Encoding: 331 331 560
Width: 586
GlyphClass: 2
Flags: W
AnchorPoint: "Anchor-18" 0 0 basechar 0
AnchorPoint: "Anchor-17" 0 0 basechar 0
AnchorPoint: "Anchor-16" 298 527 basechar 0
AnchorPoint: "Anchor-15" 0 0 basechar 0
AnchorPoint: "Anchor-14" 282 -202 basechar 0
LayerCount: 2
Fore
SplineSet
455.5 496 m 128,-1,1
 496 453 496 453 496 378 c 2,2,-1
 496 -57 l 2,3,4
 496 -133 496 -133 455.5 -173 c 128,-1,5
 415 -213 415 -213 345 -213 c 0,6,7
 280 -213 280 -213 230 -175 c 1,8,-1
 266 -117 l 1,9,10
 286 -129 286 -129 301.5 -134 c 128,-1,11
 317 -139 317 -139 340 -139 c 0,12,13
 404 -139 404 -139 404 -65 c 2,14,-1
 404 365 l 2,15,16
 404 421 404 421 383 444 c 128,-1,17
 362 467 362 467 321 467 c 0,18,19
 279 467 279 467 247 443 c 128,-1,20
 215 419 215 419 187 374 c 1,21,-1
 187 0 l 1,22,-1
 95 0 l 1,23,-1
 95 527 l 1,24,-1
 174 527 l 1,25,-1
 182 449 l 1,26,27
 210 491 210 491 251.5 515 c 128,-1,28
 293 539 293 539 343 539 c 0,29,0
 415 539 415 539 455.5 496 c 128,-1,1
EndSplineSet
Validated: 1
Substitution2: "'smcp' Lowercase to Small Capitals lookup 27 subtable" eng.sc
Substitution2: "'aalt' Access All Alternates lookup 0 subtable" eng.sc
EndChar
StartChar: OE
Encoding: 338 338 224
Width: 897
GlyphClass: 2
Flags: W
AnchorPoint: "Anchor-18" 0 0 basechar 0
AnchorPoint: "Anchor-17" 0 0 basechar 0
AnchorPoint: "Anchor-16" 454 689 basechar 0
AnchorPoint: "Anchor-15" 0 0 basechar 0
AnchorPoint: "Anchor-14" 454 0 basechar 0
LayerCount: 2
Fore
SplineSet
843 0 m 1,0,-1
 406 0 l 1,1,2
 372 -12 372 -12 333 -12 c 0,3,4
 253 -12 253 -12 190 29 c 128,-1,5
 127 70 127 70 91 150 c 128,-1,6
 55 230 55 230 55 343 c 0,7,8
 55 454 55 454 91 535 c 128,-1,9
 127 616 127 616 190 658.5 c 128,-1,10
 253 701 253 701 333 701 c 0,11,12
 373 701 373 701 410 689 c 1,13,-1
 835 689 l 1,14,-1
 824 613 l 1,15,-1
 526 613 l 1,16,17
 564 575 564 575 587 517.5 c 128,-1,18
 610 460 610 460 615 388 c 1,19,-1
 789 388 l 1,20,-1
 789 312 l 1,21,-1
 616 312 l 1,22,23
 611 238 611 238 586.5 177.5 c 128,-1,24
 562 117 562 117 519 76 c 1,25,-1
 843 76 l 1,26,-1
 843 0 l 1,0,-1
205 133.5 m 128,-1,28
 254 66 254 66 336 66 c 0,29,30
 420 66 420 66 468 133 c 128,-1,31
 516 200 516 200 516 344 c 0,32,33
 516 487 516 487 468.5 555 c 128,-1,34
 421 623 421 623 336 623 c 0,35,36
 253 623 253 623 204.5 554.5 c 128,-1,37
 156 486 156 486 156 343 c 0,38,27
 156 201 156 201 205 133.5 c 128,-1,28
EndSplineSet
Validated: 1
Substitution2: "'c2sc' Capitals to Small Capitals lookup 26 subtable" oe.sc
Substitution2: "'aalt' Access All Alternates lookup 0 subtable" oe.sc
Position2: "'cpsp' Capital Spacing lookup 0 subtable" dx=5 dy=0 dh=10 dv=0
EndChar
StartChar: oe
Encoding: 339 339 609
Width: 916
GlyphClass: 2
Flags: W
AnchorPoint: "Anchor-18" 0 0 basechar 0
AnchorPoint: "Anchor-17" 0 0 basechar 0
AnchorPoint: "Anchor-16" 471 527 basechar 0
AnchorPoint: "Anchor-15" 0 0 basechar 0
AnchorPoint: "Anchor-14" 478 0 basechar 0
LayerCount: 2
Fore
SplineSet
862 232 m 1,1,-1
 526 232 l 1,2,3
 532 145 532 145 570 104 c 128,-1,4
 608 63 608 63 668 63 c 0,5,6
 706 63 706 63 738 74 c 128,-1,7
 770 85 770 85 805 109 c 1,8,-1
 845 54 l 1,9,10
 761 -12 761 -12 661 -12 c 0,11,12
 536 -12 536 -12 476 97 c 1,13,14
 414 -12 414 -12 292 -12 c 0,15,16
 181 -12 181 -12 119 62 c 128,-1,17
 57 136 57 136 57 263 c 0,18,19
 57 345 57 345 85 407.5 c 128,-1,20
 113 470 113 470 166 504.5 c 128,-1,21
 219 539 219 539 293 539 c 0,22,23
 419 539 419 539 478 433 c 1,24,25
 537 539 537 539 652 539 c 0,26,27
 754 539 754 539 809 470 c 128,-1,28
 864 401 864 401 864 279 c 0,29,0
 864 256 864 256 862 232 c 1,1,-1
773 306 m 2,30,31
 773 384 773 384 742.5 425 c 128,-1,32
 712 466 712 466 654 466 c 0,33,34
 536 466 536 466 526 300 c 1,35,-1
 773 300 l 1,36,-1
 773 306 l 2,30,31
428 264 m 0,38,39
 428 465 428 465 293 465 c 0,40,41
 156 465 156 465 156 263 c 0,42,43
 156 62 156 62 292 62 c 256,44,37
 428 62 428 62 428 264 c 0,38,39
EndSplineSet
Validated: 1
Substitution2: "'smcp' Lowercase to Small Capitals lookup 27 subtable" oe.sc
Substitution2: "'aalt' Access All Alternates lookup 0 subtable" oe.sc
EndChar
StartChar: Scedilla
Encoding: 350 350 247
Width: 545
GlyphClass: 2
Flags: W
AnchorPoint: "Anchor-18" 0 0 basechar 0
AnchorPoint: "Anchor-17" 0 0 basechar 0
AnchorPoint: "Anchor-16" 276 689 basechar 0
AnchorPoint: "Anchor-15" 0 0 basechar 0
AnchorPoint: "Anchor-14" 285 -241 basechar 0
LayerCount: 2
Fore
SplineSet
450 53.5 m 128,-1,1
 395 -1 395 -1 297 -10 c 1,2,-1
 297 -56 l 1,3,4
 345 -60 345 -60 367.5 -83.5 c 128,-1,5
 390 -107 390 -107 390 -141 c 0,6,7
 390 -189 390 -189 355 -215 c 128,-1,8
 320 -241 320 -241 266 -241 c 0,9,10
 238 -241 238 -241 214 -234.5 c 128,-1,11
 190 -228 190 -228 175 -217 c 1,12,-1
 200 -165 l 1,13,14
 230 -181 230 -181 263 -181 c 0,15,16
 286 -181 286 -181 299.5 -171.5 c 128,-1,17
 313 -162 313 -162 313 -141 c 256,18,19
 313 -120 313 -120 292 -109.5 c 128,-1,20
 271 -99 271 -99 224 -99 c 1,21,-1
 235 -11 l 1,22,23
 107 -4 107 -4 25 77 c 1,24,-1
 77 135 l 1,25,26
 119 101 119 101 162 83.5 c 128,-1,27
 205 66 205 66 258 66 c 0,28,29
 322 66 322 66 364 97.5 c 128,-1,30
 406 129 406 129 406 189 c 0,31,32
 406 223 406 223 393 245.5 c 128,-1,33
 380 268 380 268 348.5 286 c 128,-1,34
 317 304 317 304 257 322 c 0,35,36
 151 354 151 354 102 399 c 128,-1,37
 53 444 53 444 53 521 c 0,38,39
 53 573 53 573 80.5 614 c 128,-1,40
 108 655 108 655 157.5 678 c 128,-1,41
 207 701 207 701 270 701 c 0,42,43
 339 701 339 701 388 681.5 c 128,-1,44
 437 662 437 662 483 621 c 1,45,-1
 431 563 l 1,46,47
 392 594 392 594 354.5 608.5 c 128,-1,48
 317 623 317 623 274 623 c 0,49,50
 220 623 220 623 185 598 c 128,-1,51
 150 573 150 573 150 525 c 0,52,53
 150 495 150 495 162 474.5 c 128,-1,54
 174 454 174 454 206.5 437 c 128,-1,55
 239 420 239 420 301 401 c 0,56,57
 366 381 366 381 409 358 c 128,-1,58
 452 335 452 335 478.5 294.5 c 128,-1,59
 505 254 505 254 505 192 c 0,60,0
 505 108 505 108 450 53.5 c 128,-1,1
EndSplineSet
Validated: 1
Substitution2: "'c2sc' Capitals to Small Capitals lookup 26 subtable" scedilla.sc
Substitution2: "'locl' Localized Forms in Latin lookup 5 subtable" Scommaaccent
Substitution2: "'locl' Localized Forms in Latin lookup 4 subtable" Scommaaccent
AlternateSubs2: "'aalt' Access All Alternates lookup 1 subtable" Scommaaccent scedilla.sc
Position2: "'cpsp' Capital Spacing lookup 0 subtable" dx=5 dy=0 dh=10 dv=0
EndChar
StartChar: scedilla
Encoding: 351 351 642
Width: 467
GlyphClass: 2
Flags: W
AnchorPoint: "Anchor-18" 0 0 basechar 0
AnchorPoint: "Anchor-17" 0 0 basechar 0
AnchorPoint: "Anchor-16" 245 527 basechar 0
AnchorPoint: "Anchor-15" 0 0 basechar 0
AnchorPoint: "Anchor-14" 247 -241 basechar 0
LayerCount: 2
Fore
SplineSet
383 38 m 128,-1,1
 334 -2 334 -2 259 -10 c 1,2,-1
 259 -56 l 1,3,4
 307 -60 307 -60 329.5 -83.5 c 128,-1,5
 352 -107 352 -107 352 -141 c 0,6,7
 352 -189 352 -189 317 -215 c 128,-1,8
 282 -241 282 -241 228 -241 c 0,9,10
 200 -241 200 -241 176 -234.5 c 128,-1,11
 152 -228 152 -228 137 -217 c 1,12,-1
 162 -165 l 1,13,14
 192 -181 192 -181 225 -181 c 0,15,16
 248 -181 248 -181 261.5 -171.5 c 128,-1,17
 275 -162 275 -162 275 -141 c 256,18,19
 275 -120 275 -120 254 -109.5 c 128,-1,20
 233 -99 233 -99 186 -99 c 1,21,-1
 197 -11 l 1,22,23
 95 -4 95 -4 25 57 c 1,24,-1
 74 113 l 1,25,26
 141 62 141 62 222 62 c 0,27,28
 274 62 274 62 304.5 83.5 c 128,-1,29
 335 105 335 105 335 142 c 0,30,31
 335 169 335 169 324 185.5 c 128,-1,32
 313 202 313 202 286 214.5 c 128,-1,33
 259 227 259 227 207 241 c 0,34,35
 123 263 123 263 85.5 300 c 128,-1,36
 48 337 48 337 48 394 c 0,37,38
 48 435 48 435 72.5 468.5 c 128,-1,39
 97 502 97 502 140.5 520.5 c 128,-1,40
 184 539 184 539 238 539 c 256,41,42
 292 539 292 539 335 524 c 128,-1,43
 378 509 378 509 417 479 c 1,44,-1
 378 421 l 1,45,46
 342 444 342 444 309.5 455 c 128,-1,47
 277 466 277 466 241 466 c 0,48,49
 196 466 196 466 170 447.5 c 128,-1,50
 144 429 144 429 144 397 c 256,51,52
 144 365 144 365 168.5 347 c 128,-1,53
 193 329 193 329 257 312 c 0,54,55
 345 290 345 290 388.5 252 c 128,-1,56
 432 214 432 214 432 148 c 0,57,0
 432 78 432 78 383 38 c 128,-1,1
EndSplineSet
Validated: 1
Substitution2: "'smcp' Lowercase to Small Capitals lookup 27 subtable" scedilla.sc
Substitution2: "'locl' Localized Forms in Latin lookup 5 subtable" scommaaccent
Substitution2: "'locl' Localized Forms in Latin lookup 4 subtable" scommaaccent
AlternateSubs2: "'aalt' Access All Alternates lookup 1 subtable" scommaaccent scedilla.sc
EndChar
StartChar: scaron
Encoding: 353 353 641
Width: 492
GlyphClass: 2
Flags: W
AnchorPoint: "Anchor-18" 0 0 basechar 0
AnchorPoint: "Anchor-17" 0 0 basechar 0
AnchorPoint: "Anchor-16" 246 527 basechar 0
AnchorPoint: "Anchor-15" 0 0 basechar 0
AnchorPoint: "Anchor-14" 249 -202 basechar 0
LayerCount: 2
Fore
SplineSet
306 -3 m 2,0,1
 275 -95 275 -95 219.5 -148.5 c 128,-1,2
 164 -202 164 -202 61 -213 c 1,3,-1
 51 -141 l 1,4,5
 103 -132 103 -132 134 -115 c 128,-1,6
 165 -98 165 -98 183.5 -71.5 c 128,-1,7
 202 -45 202 -45 218 0 c 1,8,-1
 187 0 l 1,9,-1
 10 527 l 1,10,-1
 108 527 l 1,11,-1
 249 67 l 1,12,-1
 387 527 l 1,13,-1
 482 527 l 1,14,-1
 306 -3 l 2,0,1
EndSplineSet
Validated: 1
Substitution2: "'smcp' Lowercase to Small Capitals lookup 27 subtable" scaron.sc
Substitution2: "'aalt' Access All Alternates lookup 0 subtable" scaron.sc
EndChar
StartChar: uni0162
Encoding: 354 354 257
Width: 517
GlyphClass: 2
Flags: W
AnchorPoint: "Anchor-18" 259 345 basechar 0
AnchorPoint: "Anchor-17" 0 0 basechar 0
AnchorPoint: "Anchor-16" 259 689 basechar 0
AnchorPoint: "Anchor-15" 0 0 basechar 0
AnchorPoint: "Anchor-14" 259 0 basechar 0
LayerCount: 2
Fore
SplineSet
378 -84 m 128,-1,1
 402 -108 402 -108 402 -141 c 0,2,3
 402 -189 402 -189 365.5 -215 c 128,-1,4
 329 -241 329 -241 274 -241 c 256,5,6
 219 -241 219 -241 187 -217 c 1,7,-1
 212 -165 l 1,8,9
 228 -173 228 -173 241 -177 c 128,-1,10
 254 -181 254 -181 271 -181 c 0,11,12
 295 -181 295 -181 310 -171.5 c 128,-1,13
 325 -162 325 -162 325 -141 c 256,14,15
 325 -120 325 -120 304 -109.5 c 128,-1,16
 283 -99 283 -99 236 -99 c 1,17,-1
 248 0 l 1,18,-1
 211 0 l 1,19,-1
 211 608 l 1,20,-1
 15 608 l 1,21,-1
 15 689 l 1,22,-1
 507 689 l 1,23,-1
 497 608 l 1,24,-1
 306 608 l 1,25,-1
 306 -56 l 1,26,0
 354 -60 354 -60 378 -84 c 128,-1,1
EndSplineSet
Validated: 1
Substitution2: "'c2sc' Capitals to Small Capitals lookup 26 subtable" uni0163.sc
Substitution2: "'locl' Localized Forms in Latin lookup 5 subtable" uni021A
Substitution2: "'locl' Localized Forms in Latin lookup 4 subtable" uni021A
AlternateSubs2: "'aalt' Access All Alternates lookup 1 subtable" uni021A uni0163.sc
Position2: "'cpsp' Capital Spacing lookup 0 subtable" dx=5 dy=0 dh=10 dv=0
EndChar
StartChar: uni0163
Encoding: 355 355 655
Width: 361
GlyphClass: 2
Flags: W
AnchorPoint: "Anchor-18" 180 264 basechar 0
AnchorPoint: "Anchor-17" 189 748 basechar 0
AnchorPoint: "Anchor-16" 147 646 basechar 0
AnchorPoint: "Anchor-15" 0 0 basechar 0
AnchorPoint: "Anchor-14" 246 -241 basechar 0
LayerCount: 2
Fore
SplineSet
328.5 -83.5 m 128,-1,1
 351 -107 351 -107 351 -141 c 0,2,3
 351 -189 351 -189 316 -215 c 128,-1,4
 281 -241 281 -241 227 -241 c 0,5,6
 199 -241 199 -241 175 -234.5 c 128,-1,7
 151 -228 151 -228 136 -217 c 1,8,-1
 161 -165 l 1,9,10
 191 -181 191 -181 224 -181 c 0,11,12
 247 -181 247 -181 260.5 -171.5 c 128,-1,13
 274 -162 274 -162 274 -141 c 256,14,15
 274 -120 274 -120 253 -109.5 c 128,-1,16
 232 -99 232 -99 185 -99 c 1,17,-1
 196 -6 l 1,18,19
 151 5 151 5 126 42 c 128,-1,20
 101 79 101 79 101 138 c 2,21,-1
 101 456 l 1,22,-1
 9 456 l 1,23,-1
 9 527 l 1,24,-1
 101 527 l 1,25,-1
 101 646 l 1,26,-1
 193 657 l 1,27,-1
 193 527 l 1,28,-1
 318 527 l 1,29,-1
 308 456 l 1,30,-1
 193 456 l 1,31,-1
 193 142 l 2,32,33
 193 101 193 101 207.5 82.5 c 128,-1,34
 222 64 222 64 256 64 c 0,35,36
 287 64 287 64 326 85 c 1,37,-1
 361 24 l 1,38,39
 314 -8 314 -8 258 -12 c 1,40,-1
 258 -56 l 1,41,0
 306 -60 306 -60 328.5 -83.5 c 128,-1,1
EndSplineSet
Validated: 1
Substitution2: "'smcp' Lowercase to Small Capitals lookup 27 subtable" uni0163.sc
Substitution2: "'locl' Localized Forms in Latin lookup 5 subtable" uni021B
Substitution2: "'locl' Localized Forms in Latin lookup 4 subtable" uni021B
AlternateSubs2: "'aalt' Access All Alternates lookup 1 subtable" uni021B uni0163.sc
EndChar
StartChar: tcaron
Encoding: 357 357 653
Width: 361
GlyphClass: 2
Flags: W
AnchorPoint: "Anchor-18" 180 264 basechar 0
AnchorPoint: "Anchor-17" 189 748 basechar 0
AnchorPoint: "Anchor-16" 147 646 basechar 0
AnchorPoint: "Anchor-15" 0 0 basechar 0
AnchorPoint: "Anchor-14" 234 0 basechar 0
LayerCount: 2
Fore
SplineSet
327 748 m 1,0,-1
 277 564 l 1,1,-1
 224 572 l 1,2,-1
 244 758 l 1,3,-1
 327 748 l 1,0,-1
361 24 m 1,4,5
 309 -12 309 -12 243 -12 c 0,6,7
 176 -12 176 -12 138.5 26.5 c 128,-1,8
 101 65 101 65 101 138 c 2,9,-1
 101 456 l 1,10,-1
 9 456 l 1,11,-1
 9 527 l 1,12,-1
 101 527 l 1,13,-1
 101 646 l 1,14,-1
 193 657 l 1,15,-1
 193 527 l 1,16,-1
 318 527 l 1,17,-1
 308 456 l 1,18,-1
 193 456 l 1,19,-1
 193 142 l 2,20,21
 193 101 193 101 207.5 82.5 c 128,-1,22
 222 64 222 64 256 64 c 0,23,24
 287 64 287 64 326 85 c 1,25,-1
 361 24 l 1,4,5
EndSplineSet
Validated: 1
Substitution2: "'smcp' Lowercase to Small Capitals lookup 27 subtable" tcaron.sc
Substitution2: "'aalt' Access All Alternates lookup 0 subtable" tcaron.sc
EndChar
StartChar: Tbar
Encoding: 358 358 255
Width: 517
GlyphClass: 2
Flags: W
AnchorPoint: "Anchor-18" 259 343 basechar 0
AnchorPoint: "Anchor-17" 0 0 basechar 0
AnchorPoint: "Anchor-16" 259 687 basechar 0
AnchorPoint: "Anchor-15" 0 0 basechar 0
AnchorPoint: "Anchor-14" 259 -2 basechar 0
LayerCount: 2
Fore
SplineSet
497 606 m 1,0,-1
 306 606 l 1,1,-1
 306 387 l 1,2,-1
 431 387 l 1,3,-1
 431 317 l 1,4,-1
 306 317 l 1,5,-1
 306 -2 l 1,6,-1
 211 -2 l 1,7,-1
 211 317 l 1,8,-1
 88 317 l 1,9,-1
 88 387 l 1,10,-1
 211 387 l 1,11,-1
 211 606 l 1,12,-1
 15 606 l 1,13,-1
 15 687 l 1,14,-1
 507 687 l 1,15,-1
 497 606 l 1,0,-1
EndSplineSet
Validated: 1
Substitution2: "'c2sc' Capitals to Small Capitals lookup 26 subtable" tbar.sc
Substitution2: "'aalt' Access All Alternates lookup 0 subtable" tbar.sc
Position2: "'cpsp' Capital Spacing lookup 0 subtable" dx=5 dy=0 dh=10 dv=0
EndChar
StartChar: tbar
Encoding: 359 359 652
Width: 361
GlyphClass: 2
Flags: W
AnchorPoint: "Anchor-18" 180 264 basechar 0
AnchorPoint: "Anchor-17" 189 748 basechar 0
AnchorPoint: "Anchor-16" 147 646 basechar 0
AnchorPoint: "Anchor-15" 0 0 basechar 0
AnchorPoint: "Anchor-14" 234 0 basechar 0
LayerCount: 2
Fore
SplineSet
361 24 m 1,0,1
 309 -12 309 -12 243 -12 c 0,2,3
 176 -12 176 -12 138.5 26.5 c 128,-1,4
 101 65 101 65 101 138 c 2,5,-1
 101 286 l 1,6,-1
 20 286 l 1,7,-1
 20 357 l 1,8,-1
 101 357 l 1,9,-1
 101 456 l 1,10,-1
 9 456 l 1,11,-1
 9 527 l 1,12,-1
 101 527 l 1,13,-1
 101 646 l 1,14,-1
 193 657 l 1,15,-1
 193 527 l 1,16,-1
 318 527 l 1,17,-1
 308 456 l 1,18,-1
 193 456 l 1,19,-1
 193 357 l 1,20,-1
 303 357 l 1,21,-1
 303 286 l 1,22,-1
 193 286 l 1,23,-1
 193 142 l 2,24,25
 193 101 193 101 207.5 82.5 c 128,-1,26
 222 64 222 64 256 64 c 0,27,28
 287 64 287 64 326 85 c 1,29,-1
 361 24 l 1,0,1
EndSplineSet
Validated: 1
Substitution2: "'smcp' Lowercase to Small Capitals lookup 27 subtable" tbar.sc
Substitution2: "'aalt' Access All Alternates lookup 0 subtable" tbar.sc
EndChar
StartChar: Uogonek
Encoding: 370 370 293
Width: 662
GlyphClass: 2
Flags: W
AnchorPoint: "Anchor-18" 0 0 basechar 0
AnchorPoint: "Anchor-17" 582 689 basechar 0
AnchorPoint: "Anchor-16" 331 689 basechar 0
AnchorPoint: "Anchor-15" 428 0 basechar 0
AnchorPoint: "Anchor-14" 331 0 basechar 0
LayerCount: 2
Fore
SplineSet
572 689 m 1,0,-1
 572 221 l 2,1,2
 572 139 572 139 532 80.5 c 128,-1,3
 492 22 492 22 418 0 c 1,4,5
 347 -31 347 -31 321 -57.5 c 128,-1,6
 295 -84 295 -84 295 -114 c 0,7,8
 295 -162 295 -162 351 -162 c 0,9,10
 378 -162 378 -162 412 -155 c 1,11,-1
 403 -225 l 1,12,13
 368 -232 368 -232 340 -232 c 0,14,15
 283 -232 283 -232 249 -203.5 c 128,-1,16
 215 -175 215 -175 215 -131 c 0,17,18
 215 -54 215 -54 310 -11 c 1,19,20
 204 -6 204 -6 147 57 c 128,-1,21
 90 120 90 120 90 221 c 2,22,-1
 90 689 l 1,23,-1
 185 689 l 1,24,-1
 185 228 l 2,25,26
 185 148 185 148 221 108 c 128,-1,27
 257 68 257 68 330 68 c 0,28,29
 404 68 404 68 440 107.5 c 128,-1,30
 476 147 476 147 476 228 c 2,31,-1
 476 689 l 1,32,-1
 572 689 l 1,0,-1
EndSplineSet
Validated: 1
Substitution2: "'c2sc' Capitals to Small Capitals lookup 26 subtable" uogonek.sc
Substitution2: "'aalt' Access All Alternates lookup 0 subtable" uogonek.sc
Position2: "'cpsp' Capital Spacing lookup 0 subtable" dx=5 dy=0 dh=10 dv=0
EndChar
StartChar: uogonek
Encoding: 371 371 696
Width: 582
GlyphClass: 2
Flags: W
AnchorPoint: "Anchor-18" 0 0 basechar 0
AnchorPoint: "Anchor-17" 497 527 basechar 0
AnchorPoint: "Anchor-16" 289 527 basechar 0
AnchorPoint: "Anchor-15" 497 0 basechar 0
AnchorPoint: "Anchor-14" 289 0 basechar 0
LayerCount: 2
Fore
SplineSet
390 -57.5 m 128,-1,1
 364 -84 364 -84 364 -114 c 0,2,3
 364 -162 364 -162 420 -162 c 0,4,5
 447 -162 447 -162 481 -155 c 1,6,-1
 472 -225 l 1,7,8
 437 -232 437 -232 409 -232 c 0,9,10
 352 -232 352 -232 318 -203.5 c 128,-1,11
 284 -175 284 -175 284 -131 c 0,12,13
 284 -86 284 -86 314 -51 c 128,-1,14
 344 -16 344 -16 407 10 c 1,15,-1
 401 82 l 1,16,17
 371 33 371 33 332 10.5 c 128,-1,18
 293 -12 293 -12 237 -12 c 0,19,20
 168 -12 168 -12 129 30 c 128,-1,21
 90 72 90 72 90 149 c 2,22,-1
 90 527 l 1,23,-1
 182 527 l 1,24,-1
 182 159 l 2,25,26
 182 105 182 105 201 82.5 c 128,-1,27
 220 60 220 60 263 60 c 0,28,29
 340 60 340 60 395 151 c 1,30,-1
 395 527 l 1,31,-1
 487 527 l 1,32,-1
 487 0 l 1,33,0
 416 -31 416 -31 390 -57.5 c 128,-1,1
EndSplineSet
Validated: 1
Substitution2: "'smcp' Lowercase to Small Capitals lookup 27 subtable" uogonek.sc
Substitution2: "'aalt' Access All Alternates lookup 0 subtable" uogonek.sc
EndChar
StartChar: longs
Encoding: 383 383 650
Width: 335
GlyphClass: 2
Flags: W
LayerCount: 2
Fore
SplineSet
333.5 743.5 m 128,-1,1
 362 737 362 737 395 723 c 1,2,-1
 366 656 l 1,3,4
 321 676 321 676 274 676 c 0,5,6
 232 676 232 676 214 657.5 c 128,-1,7
 196 639 196 639 196 600 c 2,8,-1
 196 0 l 1,9,-1
 104 0 l 1,10,-1
 104 456 l 1,11,-1
 10 456 l 1,12,-1
 10 527 l 1,13,-1
 104 527 l 1,14,-1
 104 599 l 2,15,16
 104 667 104 667 147.5 708.5 c 128,-1,17
 191 750 191 750 269 750 c 0,18,0
 305 750 305 750 333.5 743.5 c 128,-1,1
EndSplineSet
Validated: 1
EndChar
StartChar: uni0180
Encoding: 384 384 385
Width: 600
GlyphClass: 2
Flags: W
AnchorPoint: "Anchor-18" 0 0 basechar 0
AnchorPoint: "Anchor-17" 0 0 basechar 0
AnchorPoint: "Anchor-16" 319 739 basechar 0
AnchorPoint: "Anchor-15" 0 0 basechar 0
AnchorPoint: "Anchor-14" 314 0 basechar 0
LayerCount: 2
Fore
SplineSet
485 466.5 m 128,-1,1
 538 394 538 394 538 264 c 0,2,3
 538 182 538 182 513 119.5 c 128,-1,4
 488 57 488 57 441 22.5 c 128,-1,5
 394 -12 394 -12 331 -12 c 0,6,7
 248 -12 248 -12 191 58 c 1,8,-1
 182 0 l 1,9,-1
 101 0 l 1,10,-1
 101 606 l 1,11,-1
 22 606 l 1,12,-1
 22 676 l 1,13,-1
 101 676 l 1,14,-1
 101 739 l 1,15,-1
 193 750 l 1,16,-1
 193 676 l 1,17,-1
 341 676 l 1,18,-1
 341 606 l 1,19,-1
 193 606 l 1,20,-1
 193 461 l 1,21,22
 250 539 250 539 342 539 c 0,23,0
 432 539 432 539 485 466.5 c 128,-1,1
404.5 110.5 m 128,-1,25
 439 160 439 160 439 264 c 0,26,27
 439 371 439 371 407 418.5 c 128,-1,28
 375 466 375 466 316 466 c 0,29,30
 246 466 246 466 193 384 c 1,31,-1
 193 132 l 1,32,33
 214 99 214 99 244.5 80 c 128,-1,34
 275 61 275 61 309 61 c 0,35,24
 370 61 370 61 404.5 110.5 c 128,-1,25
EndSplineSet
Validated: 1
Substitution2: "'smcp' Lowercase to Small Capitals lookup 27 subtable" uni0180.sc
Substitution2: "'aalt' Access All Alternates lookup 0 subtable" uni0180.sc
EndChar
StartChar: uni0181
Encoding: 385 385 41
Width: 691
GlyphClass: 2
Flags: W
AnchorPoint: "Anchor-18" 0 0 basechar 0
AnchorPoint: "Anchor-17" 0 0 basechar 0
AnchorPoint: "Anchor-16" 384 689 basechar 0
AnchorPoint: "Anchor-15" 0 0 basechar 0
AnchorPoint: "Anchor-14" 393 0 basechar 0
LayerCount: 2
Fore
SplineSet
602 314 m 128,-1,1
 646 276 646 276 646 196 c 0,2,3
 646 0 646 0 373 0 c 2,4,-1
 183 0 l 1,5,-1
 183 614 l 1,6,-1
 151 614 l 2,7,8
 97 614 97 614 97 564 c 0,9,10
 97 547 97 547 101.5 530.5 c 128,-1,11
 106 514 106 514 115 491 c 1,12,-1
 51 459 l 1,13,14
 32 487 32 487 21 512 c 128,-1,15
 10 537 10 537 10 567 c 0,16,17
 10 622 10 622 48 655.5 c 128,-1,18
 86 689 86 689 156 689 c 2,19,-1
 346 689 l 2,20,21
 477 689 477 689 546.5 646 c 128,-1,22
 616 603 616 603 616 515 c 0,23,24
 616 455 616 455 578.5 415 c 128,-1,25
 541 375 541 375 487 364 c 1,26,0
 558 352 558 352 602 314 c 128,-1,1
278 614 m 1,27,-1
 278 397 l 1,28,-1
 382 397 l 2,29,30
 442 397 442 397 480.5 426 c 128,-1,31
 519 455 519 455 519 508 c 0,32,33
 519 568 519 568 478.5 591 c 128,-1,34
 438 614 438 614 356 614 c 2,35,-1
 278 614 l 1,27,-1
501.5 101 m 128,-1,37
 546 126 546 126 546 196 c 0,38,39
 546 264 546 264 503 294 c 128,-1,40
 460 324 460 324 391 324 c 2,41,-1
 278 324 l 1,42,-1
 278 76 l 1,43,-1
 373 76 l 2,44,36
 457 76 457 76 501.5 101 c 128,-1,37
EndSplineSet
Validated: 1
Substitution2: "'ss02' Style Set 2 lookup 34 subtable" uni0181.ss02
Substitution2: "'salt' Stylistic Alternatives lookup 32 subtable" uni0181.ss02
Substitution2: "'c2sc' Capitals to Small Capitals lookup 26 subtable" uni0253.sc
AlternateSubs2: "'aalt' Access All Alternates lookup 1 subtable" uni0253.sc uni0181.ss02
Position2: "'cpsp' Capital Spacing lookup 0 subtable" dx=5 dy=0 dh=10 dv=0
EndChar
StartChar: uni0183
Encoding: 387 387 386
Width: 594
GlyphClass: 2
Flags: W
AnchorPoint: "Anchor-18" 0 0 basechar 0
AnchorPoint: "Anchor-17" 0 0 basechar 0
AnchorPoint: "Anchor-16" 297 739 basechar 0
AnchorPoint: "Anchor-15" 0 0 basechar 0
AnchorPoint: "Anchor-14" 297 0 basechar 0
LayerCount: 2
Fore
SplineSet
479 466.5 m 128,-1,1
 532 394 532 394 532 264 c 0,2,3
 532 182 532 182 507 119.5 c 128,-1,4
 482 57 482 57 435 22.5 c 128,-1,5
 388 -12 388 -12 325 -12 c 0,6,7
 242 -12 242 -12 185 58 c 1,8,-1
 176 0 l 1,9,-1
 95 0 l 1,10,-1
 95 739 l 1,11,-1
 411 739 l 1,12,-1
 399 669 l 1,13,-1
 187 669 l 1,14,-1
 187 461 l 1,15,16
 244 539 244 539 336 539 c 0,17,0
 426 539 426 539 479 466.5 c 128,-1,1
398.5 110.5 m 128,-1,19
 433 160 433 160 433 264 c 0,20,21
 433 371 433 371 401 418.5 c 128,-1,22
 369 466 369 466 310 466 c 0,23,24
 240 466 240 466 187 384 c 1,25,-1
 187 132 l 1,26,27
 208 99 208 99 238.5 80 c 128,-1,28
 269 61 269 61 303 61 c 0,29,18
 364 61 364 61 398.5 110.5 c 128,-1,19
EndSplineSet
Validated: 1
Substitution2: "'smcp' Lowercase to Small Capitals lookup 27 subtable" uni0183.sc
Substitution2: "'aalt' Access All Alternates lookup 0 subtable" uni0183.sc
EndChar
StartChar: uni0184
Encoding: 388 388 266
Width: 573
GlyphClass: 2
Flags: W
AnchorPoint: "Anchor-18" 0 0 basechar 0
AnchorPoint: "Anchor-17" 0 0 basechar 0
AnchorPoint: "Anchor-16" 287 689 basechar 0
AnchorPoint: "Anchor-15" 0 0 basechar 0
AnchorPoint: "Anchor-14" 287 0 basechar 0
LayerCount: 2
Fore
SplineSet
478.5 382.5 m 128,-1,1
 548 329 548 329 548 223 c 0,2,3
 548 107 548 107 476.5 53.5 c 128,-1,4
 405 0 405 0 281 0 c 2,5,-1
 99 0 l 1,6,-1
 99 524 l 1,7,-1
 30 566 l 1,8,9
 76 615 76 615 109 689 c 1,10,-1
 194 689 l 1,11,-1
 194 436 l 1,12,-1
 285 436 l 2,13,0
 409 436 409 436 478.5 382.5 c 128,-1,1
406 107.5 m 128,-1,15
 447 139 447 139 447 221 c 0,16,17
 447 297 447 297 406.5 329.5 c 128,-1,18
 366 362 366 362 286 362 c 2,19,-1
 194 362 l 1,20,-1
 194 76 l 1,21,-1
 289 76 l 2,22,14
 365 76 365 76 406 107.5 c 128,-1,15
EndSplineSet
Validated: 1
Substitution2: "'c2sc' Capitals to Small Capitals lookup 26 subtable" uni0185.sc
Substitution2: "'aalt' Access All Alternates lookup 0 subtable" uni0185.sc
Position2: "'cpsp' Capital Spacing lookup 0 subtable" dx=5 dy=0 dh=10 dv=0
EndChar
StartChar: uni0185
Encoding: 389 389 666
Width: 520
GlyphClass: 2
Flags: W
AnchorPoint: "Anchor-18" 0 0 basechar 0
AnchorPoint: "Anchor-17" 0 0 basechar 0
AnchorPoint: "Anchor-16" 260 527 basechar 0
AnchorPoint: "Anchor-15" 0 0 basechar 0
AnchorPoint: "Anchor-14" 260 0 basechar 0
LayerCount: 2
Fore
SplineSet
432 311 m 128,-1,1
 485 265 485 265 485 180 c 0,2,3
 485 91 485 91 425.5 45.5 c 128,-1,4
 366 0 366 0 278 0 c 2,5,-1
 99 0 l 1,6,-1
 99 372 l 1,7,-1
 30 414 l 1,8,9
 77 462 77 462 109 527 c 1,10,-1
 191 527 l 1,11,-1
 191 357 l 1,12,-1
 261 357 l 2,13,0
 379 357 379 357 432 311 c 128,-1,1
356.5 97 m 128,-1,15
 387 122 387 122 387 180 c 0,16,17
 387 235 387 235 358.5 261 c 128,-1,18
 330 287 330 287 260 287 c 2,19,-1
 191 287 l 1,20,-1
 191 72 l 1,21,-1
 270 72 l 2,22,14
 326 72 326 72 356.5 97 c 128,-1,15
EndSplineSet
Validated: 1
Substitution2: "'smcp' Lowercase to Small Capitals lookup 27 subtable" uni0185.sc
Substitution2: "'aalt' Access All Alternates lookup 0 subtable" uni0185.sc
EndChar
StartChar: uni0186
Encoding: 390 390 218
Width: 560
GlyphClass: 2
Flags: W
AnchorPoint: "Anchor-18" 219 346 basechar 0
AnchorPoint: "Anchor-17" 0 0 basechar 0
AnchorPoint: "Anchor-16" 230 689 basechar 0
AnchorPoint: "Anchor-15" 0 0 basechar 0
AnchorPoint: "Anchor-14" 230 0 basechar 0
LayerCount: 2
Fore
SplineSet
434 609 m 128,-1,1
 505 517 505 517 505 346 c 0,2,3
 505 232 505 232 468.5 151.5 c 128,-1,4
 432 71 432 71 366.5 29.5 c 128,-1,5
 301 -12 301 -12 217 -12 c 0,6,7
 103 -12 103 -12 20 65 c 1,8,-1
 69 124 l 1,9,10
 106 97 106 97 138 82.5 c 128,-1,11
 170 68 170 68 214 68 c 0,12,13
 300 68 300 68 352 135.5 c 128,-1,14
 404 203 404 203 404 345 c 0,15,16
 404 491 404 491 357 557 c 128,-1,17
 310 623 310 623 233 623 c 0,18,19
 149 623 149 623 76 573 c 1,20,-1
 28 633 l 1,21,22
 74 667 74 667 124.5 684 c 128,-1,23
 175 701 175 701 239 701 c 0,24,0
 363 701 363 701 434 609 c 128,-1,1
EndSplineSet
Validated: 1
Substitution2: "'c2sc' Capitals to Small Capitals lookup 26 subtable" uni0254.sc
Substitution2: "'aalt' Access All Alternates lookup 0 subtable" uni0254.sc
Position2: "'cpsp' Capital Spacing lookup 0 subtable" dx=5 dy=0 dh=10 dv=0
EndChar
StartChar: uni0187
Encoding: 391 391 53
Width: 560
GlyphClass: 2
Flags: W
AnchorPoint: "Anchor-18" 0 0 basechar 0
AnchorPoint: "Anchor-17" 0 0 basechar 0
AnchorPoint: "Anchor-16" 280 689 basechar 0
AnchorPoint: "Anchor-15" 0 0 basechar 0
AnchorPoint: "Anchor-14" 280 0 basechar 0
LayerCount: 2
Fore
SplineSet
706 794 m 1,1,-1
 670 735 l 1,2,3
 650 747 650 747 634.5 752.5 c 128,-1,4
 619 758 619 758 596 758 c 0,5,6
 532 758 532 758 532 684 c 2,7,-1
 532 633 l 1,8,-1
 488 581 l 1,9,10
 416 623 416 623 347 623 c 0,11,12
 261 623 261 623 208.5 557 c 128,-1,13
 156 491 156 491 156 345 c 0,14,15
 156 203 156 203 208 135.5 c 128,-1,16
 260 68 260 68 346 68 c 0,17,18
 390 68 390 68 422 83 c 128,-1,19
 454 98 454 98 492 126 c 1,20,-1
 540 65 l 1,21,22
 509 32 509 32 458.5 10 c 128,-1,23
 408 -12 408 -12 343 -12 c 0,24,25
 259 -12 259 -12 193.5 29.5 c 128,-1,26
 128 71 128 71 91.5 151.5 c 128,-1,27
 55 232 55 232 55 345 c 256,28,29
 55 458 55 458 93 538.5 c 128,-1,30
 131 619 131 619 196 660 c 128,-1,31
 261 701 261 701 341 701 c 0,32,33
 396 701 396 701 440 683 c 1,34,35
 441 754 441 754 480.5 793 c 128,-1,36
 520 832 520 832 591 832 c 0,37,0
 656 832 656 832 706 794 c 1,1,-1
EndSplineSet
Validated: 1
Substitution2: "'c2sc' Capitals to Small Capitals lookup 26 subtable" uni0188.sc
Substitution2: "'aalt' Access All Alternates lookup 0 subtable" uni0188.sc
Position2: "'cpsp' Capital Spacing lookup 0 subtable" dx=5 dy=0 dh=10 dv=0
EndChar
StartChar: uni0188
Encoding: 392 392 395
Width: 478
GlyphClass: 2
Flags: W
AnchorPoint: "Anchor-18" 0 0 basechar 0
AnchorPoint: "Anchor-17" 0 0 basechar 0
AnchorPoint: "Anchor-16" 239 739 basechar 0
AnchorPoint: "Anchor-15" 0 0 basechar 0
AnchorPoint: "Anchor-14" 239 0 basechar 0
LayerCount: 2
Fore
SplineSet
622 712 m 1,1,-1
 586 653 l 1,2,3
 566 665 566 665 550.5 670.5 c 128,-1,4
 535 676 535 676 512 676 c 0,5,6
 448 676 448 676 448 602 c 2,7,-1
 448 482 l 1,8,-1
 410 432 l 1,9,10
 383 447 383 447 356 455 c 128,-1,11
 329 463 329 463 291 463 c 0,12,13
 227 463 227 463 191.5 412 c 128,-1,14
 156 361 156 361 156 261 c 256,15,16
 156 161 156 161 191 113.5 c 128,-1,17
 226 66 226 66 291 66 c 0,18,19
 322 66 322 66 348 75.5 c 128,-1,20
 374 85 374 85 406 106 c 1,21,-1
 448 46 l 1,22,23
 376 -12 376 -12 287 -12 c 0,24,25
 180 -12 180 -12 118.5 60 c 128,-1,26
 57 132 57 132 57 259 c 0,27,28
 57 343 57 343 85 406 c 128,-1,29
 113 469 113 469 164.5 504 c 128,-1,30
 216 539 216 539 287 539 c 0,31,32
 326 539 326 539 356 527 c 1,33,-1
 356 594 l 2,34,35
 356 670 356 670 396 710 c 128,-1,36
 436 750 436 750 507 750 c 0,37,0
 572 750 572 750 622 712 c 1,1,-1
EndSplineSet
Validated: 1
Substitution2: "'smcp' Lowercase to Small Capitals lookup 27 subtable" uni0188.sc
Substitution2: "'aalt' Access All Alternates lookup 0 subtable" uni0188.sc
EndChar
StartChar: uni018A
Encoding: 394 394 65
Width: 727
GlyphClass: 2
Flags: W
AnchorPoint: "Anchor-18" 406 345 basechar 0
AnchorPoint: "Anchor-17" 0 0 basechar 0
AnchorPoint: "Anchor-16" 386 689 basechar 0
AnchorPoint: "Anchor-15" 0 0 basechar 0
AnchorPoint: "Anchor-14" 383 0 basechar 0
LayerCount: 2
Fore
SplineSet
577.5 616.5 m 128,-1,1
 672 544 672 544 672 348 c 0,2,3
 672 157 672 157 577.5 78.5 c 128,-1,4
 483 0 483 0 348 0 c 2,5,-1
 183 0 l 1,6,-1
 183 614 l 1,7,-1
 151 614 l 2,8,9
 97 614 97 614 97 564 c 0,10,11
 97 547 97 547 101.5 530.5 c 128,-1,12
 106 514 106 514 115 491 c 1,13,-1
 51 459 l 1,14,15
 32 487 32 487 21 512 c 128,-1,16
 10 537 10 537 10 567 c 0,17,18
 10 622 10 622 48 655.5 c 128,-1,19
 86 689 86 689 156 689 c 2,20,-1
 327 689 l 2,21,0
 483 689 483 689 577.5 616.5 c 128,-1,1
511 134 m 128,-1,23
 571 193 571 193 571 348 c 0,24,25
 571 457 571 457 540 515.5 c 128,-1,26
 509 574 509 574 461 593.5 c 128,-1,27
 413 613 413 613 348 613 c 2,28,-1
 278 613 l 1,29,-1
 278 75 l 1,30,-1
 355 75 l 2,31,22
 451 75 451 75 511 134 c 128,-1,23
EndSplineSet
Validated: 1
Substitution2: "'c2sc' Capitals to Small Capitals lookup 26 subtable" uni0257.sc
Substitution2: "'aalt' Access All Alternates lookup 0 subtable" uni0257.sc
Position2: "'cpsp' Capital Spacing lookup 0 subtable" dx=5 dy=0 dh=10 dv=0
EndChar
StartChar: uni018B
Encoding: 395 395 67
Width: 579
GlyphClass: 2
Flags: W
AnchorPoint: "Anchor-18" 0 0 basechar 0
AnchorPoint: "Anchor-17" 0 0 basechar 0
AnchorPoint: "Anchor-16" 290 689 basechar 0
AnchorPoint: "Anchor-15" 0 0 basechar 0
AnchorPoint: "Anchor-14" 290 0 basechar 0
LayerCount: 2
Fore
SplineSet
479 0 m 1,0,-1
 287 0 l 2,1,2
 169 0 169 0 99.5 51 c 128,-1,3
 30 102 30 102 30 212 c 0,4,5
 30 318 30 318 100 374 c 128,-1,6
 170 430 170 430 293 430 c 2,7,-1
 384 430 l 1,8,-1
 384 611 l 1,9,-1
 109 611 l 1,10,-1
 109 689 l 1,11,-1
 479 689 l 1,12,-1
 479 0 l 1,0,-1
384 76 m 1,13,-1
 384 356 l 1,14,-1
 292 356 l 2,15,16
 213 356 213 356 172 322 c 128,-1,17
 131 288 131 288 131 212 c 0,18,19
 131 134 131 134 171.5 105 c 128,-1,20
 212 76 212 76 289 76 c 2,21,-1
 384 76 l 1,13,-1
EndSplineSet
Validated: 1
Substitution2: "'c2sc' Capitals to Small Capitals lookup 26 subtable" uni018C.sc
Substitution2: "'aalt' Access All Alternates lookup 0 subtable" uni018C.sc
Position2: "'cpsp' Capital Spacing lookup 0 subtable" dx=5 dy=0 dh=10 dv=0
EndChar
StartChar: uni018C
Encoding: 396 396 412
Width: 598
GlyphClass: 2
Flags: W
AnchorPoint: "Anchor-18" 0 0 basechar 0
AnchorPoint: "Anchor-17" 0 0 basechar 0
AnchorPoint: "Anchor-16" 299 739 basechar 0
AnchorPoint: "Anchor-15" 0 0 basechar 0
AnchorPoint: "Anchor-14" 299 0 basechar 0
LayerCount: 2
Fore
SplineSet
503 0 m 1,0,-1
 422 0 l 1,1,-1
 413 73 l 1,2,3
 387 33 387 33 348 10.5 c 128,-1,4
 309 -12 309 -12 261 -12 c 0,5,6
 167 -12 167 -12 114.5 62 c 128,-1,7
 62 136 62 136 62 261 c 0,8,9
 62 342 62 342 87 405 c 128,-1,10
 112 468 112 468 159 503.5 c 128,-1,11
 206 539 206 539 269 539 c 0,12,13
 350 539 350 539 411 474 c 1,14,-1
 411 669 l 1,15,-1
 193 669 l 1,16,-1
 193 739 l 1,17,-1
 503 739 l 1,18,-1
 503 0 l 1,0,-1
353 80.5 m 128,-1,20
 383 100 383 100 411 139 c 1,21,-1
 411 397 l 1,22,23
 385 431 385 431 355.5 448.5 c 128,-1,24
 326 466 326 466 289 466 c 0,25,26
 228 466 228 466 194.5 415 c 128,-1,27
 161 364 161 364 161 263 c 0,28,29
 161 161 161 161 192 111 c 128,-1,30
 223 61 223 61 281 61 c 0,31,19
 323 61 323 61 353 80.5 c 128,-1,20
EndSplineSet
Validated: 1
Substitution2: "'smcp' Lowercase to Small Capitals lookup 27 subtable" uni018C.sc
Substitution2: "'aalt' Access All Alternates lookup 0 subtable" uni018C.sc
EndChar
StartChar: uni018D
Encoding: 397 397 407
Width: 579
GlyphClass: 2
Flags: W
AnchorPoint: "Anchor-18" 0 0 basechar 0
AnchorPoint: "Anchor-17" 0 0 basechar 0
AnchorPoint: "Anchor-16" 290 527 basechar 0
AnchorPoint: "Anchor-15" 0 0 basechar 0
AnchorPoint: "Anchor-14" 290 -202 basechar 0
LayerCount: 2
Fore
SplineSet
445.5 3.5 m 128,-1,1
 467 -29 467 -29 467 -74 c 0,2,3
 467 -112 467 -112 446.5 -144.5 c 128,-1,4
 426 -177 426 -177 386 -196.5 c 128,-1,5
 346 -216 346 -216 291 -216 c 256,6,7
 236 -216 236 -216 194 -202.5 c 128,-1,8
 152 -189 152 -189 113 -162 c 1,9,-1
 160 -105 l 1,10,11
 191 -126 191 -126 218.5 -135 c 128,-1,12
 246 -144 246 -144 280 -144 c 0,13,14
 327 -144 327 -144 349.5 -124.5 c 128,-1,15
 372 -105 372 -105 372 -74 c 0,16,17
 372 -51 372 -51 362 -35 c 128,-1,18
 352 -19 352 -19 327 -4 c 128,-1,19
 302 11 302 11 251 33 c 0,20,21
 151 76 151 76 104 132.5 c 128,-1,22
 57 189 57 189 57 284 c 0,23,24
 57 353 57 353 85 411.5 c 128,-1,25
 113 470 113 470 165.5 504.5 c 128,-1,26
 218 539 218 539 290 539 c 0,27,28
 359 539 359 539 411.5 509 c 128,-1,29
 464 479 464 479 493 422 c 128,-1,30
 522 365 522 365 522 287 c 256,31,32
 522 209 522 209 482 153.5 c 128,-1,33
 442 98 442 98 371 63 c 1,34,0
 424 36 424 36 445.5 3.5 c 128,-1,1
170.5 198.5 m 128,-1,36
 185 164 185 164 219 138 c 128,-1,37
 253 112 253 112 314 88 c 1,38,39
 368 122 368 122 395.5 169.5 c 128,-1,40
 423 217 423 217 423 287 c 0,41,42
 423 374 423 374 390 419.5 c 128,-1,43
 357 465 357 465 290 465 c 0,44,45
 225 465 225 465 190.5 418.5 c 128,-1,46
 156 372 156 372 156 284 c 0,47,35
 156 233 156 233 170.5 198.5 c 128,-1,36
EndSplineSet
Validated: 1
EndChar
StartChar: uni018E
Encoding: 398 398 91
Width: 535
GlyphClass: 2
Flags: W
AnchorPoint: "Anchor-18" 0 0 basechar 0
AnchorPoint: "Anchor-17" 0 0 basechar 0
AnchorPoint: "Anchor-16" 235 689 basechar 0
AnchorPoint: "Anchor-15" 0 0 basechar 0
AnchorPoint: "Anchor-14" 233 0 basechar 0
LayerCount: 2
Fore
SplineSet
60 689 m 1,0,-1
 435 689 l 1,1,-1
 435 0 l 1,2,-1
 54 0 l 1,3,-1
 54 76 l 1,4,-1
 340 76 l 1,5,-1
 340 312 l 1,6,-1
 108 312 l 1,7,-1
 108 388 l 1,8,-1
 340 388 l 1,9,-1
 340 613 l 1,10,-1
 60 613 l 1,11,-1
 60 689 l 1,0,-1
EndSplineSet
Validated: 1
Substitution2: "'c2sc' Capitals to Small Capitals lookup 26 subtable" uni0258.sc
Substitution2: "'aalt' Access All Alternates lookup 0 subtable" uni0258.sc
Position2: "'cpsp' Capital Spacing lookup 0 subtable" dx=5 dy=0 dh=10 dv=0
EndChar
StartChar: uni0190
Encoding: 400 400 90
Width: 521
GlyphClass: 2
Flags: W
AnchorPoint: "Anchor-18" 0 0 basechar 0
AnchorPoint: "Anchor-17" 0 0 basechar 0
AnchorPoint: "Anchor-16" 261 689 basechar 0
AnchorPoint: "Anchor-15" 0 0 basechar 0
AnchorPoint: "Anchor-14" 261 0 basechar 0
LayerCount: 2
Fore
SplineSet
494 616 m 1,1,-1
 442 559 l 1,2,3
 370 623 370 623 286 623 c 0,4,5
 226 623 226 623 196.5 593.5 c 128,-1,6
 167 564 167 564 167 517 c 0,7,8
 167 464 167 464 202.5 433.5 c 128,-1,9
 238 403 238 403 298 403 c 2,10,-1
 364 403 l 1,11,-1
 351 325 l 1,12,-1
 299 325 l 2,13,14
 224 325 224 325 185.5 292.5 c 128,-1,15
 147 260 147 260 147 199 c 256,16,17
 147 138 147 138 186 103 c 128,-1,18
 225 68 225 68 296 68 c 0,19,20
 391 68 391 68 455 135 c 1,21,-1
 511 81 l 1,22,23
 469 35 469 35 412.5 11.5 c 128,-1,24
 356 -12 356 -12 291 -12 c 0,25,26
 220 -12 220 -12 164 14.5 c 128,-1,27
 108 41 108 41 76.5 88.5 c 128,-1,28
 45 136 45 136 45 198 c 0,29,30
 45 274 45 274 90 318 c 128,-1,31
 135 362 135 362 203 369 c 1,32,33
 140 383 140 383 104 422.5 c 128,-1,34
 68 462 68 462 68 525 c 0,35,36
 68 575 68 575 92.5 615 c 128,-1,37
 117 655 117 655 164.5 678 c 128,-1,38
 212 701 212 701 279 701 c 0,39,0
 403 701 403 701 494 616 c 1,1,-1
EndSplineSet
Validated: 1
Substitution2: "'c2sc' Capitals to Small Capitals lookup 26 subtable" uni025B.sc
Substitution2: "'aalt' Access All Alternates lookup 0 subtable" uni025B.sc
Position2: "'cpsp' Capital Spacing lookup 0 subtable" dx=5 dy=0 dh=10 dv=0
EndChar
StartChar: uni0191
Encoding: 401 401 100
Width: 491
GlyphClass: 2
Flags: W
AnchorPoint: "Anchor-18" 0 0 basechar 0
AnchorPoint: "Anchor-17" 0 0 basechar 0
AnchorPoint: "Anchor-16" 293 689 basechar 0
AnchorPoint: "Anchor-15" 0 0 basechar 0
AnchorPoint: "Anchor-14" 148 0 basechar 0
LayerCount: 2
Fore
SplineSet
195 613 m 1,0,-1
 195 378 l 1,1,-1
 420 378 l 1,2,-1
 420 303 l 1,3,-1
 195 303 l 1,4,-1
 195 -57 l 2,5,6
 195 -133 195 -133 155 -173 c 128,-1,7
 115 -213 115 -213 44 -213 c 0,8,9
 -21 -213 -21 -213 -71 -175 c 1,10,-1
 -34 -115 l 1,11,12
 -15 -126 -15 -126 0.5 -131.5 c 128,-1,13
 16 -137 16 -137 39 -137 c 0,14,15
 100 -137 100 -137 100 -63 c 2,16,-1
 100 689 l 1,17,-1
 466 689 l 1,18,-1
 455 613 l 1,19,-1
 195 613 l 1,0,-1
EndSplineSet
Validated: 1
Substitution2: "'c2sc' Capitals to Small Capitals lookup 26 subtable" uni0191.sc
Substitution2: "'aalt' Access All Alternates lookup 0 subtable" uni0191.sc
Position2: "'cpsp' Capital Spacing lookup 0 subtable" dx=5 dy=0 dh=10 dv=0
EndChar
StartChar: florin
Encoding: 402 402 2240
Width: 341
GlyphClass: 2
Flags: W
LayerCount: 2
Fore
SplineSet
220 657.5 m 128,-1,1
 202 639 202 639 202 600 c 2,2,-1
 202 527 l 1,3,-1
 330 527 l 1,4,-1
 320 456 l 1,5,-1
 202 456 l 1,6,-1
 202 32 l 2,7,8
 202 -41 202 -41 184 -85 c 128,-1,9
 166 -129 166 -129 131.5 -156.5 c 128,-1,10
 97 -184 97 -184 35 -212 c 1,11,-1
 8 -145 l 1,12,13
 47 -127 47 -127 68 -109.5 c 128,-1,14
 89 -92 89 -92 99.5 -60.5 c 128,-1,15
 110 -29 110 -29 110 26 c 2,16,-1
 110 456 l 1,17,-1
 26 456 l 1,18,-1
 26 527 l 1,19,-1
 110 527 l 1,20,-1
 110 599 l 2,21,22
 110 667 110 667 153.5 708.5 c 128,-1,23
 197 750 197 750 275 750 c 0,24,25
 311 750 311 750 339.5 743.5 c 128,-1,26
 368 737 368 737 401 723 c 1,27,-1
 372 656 l 1,28,29
 327 676 327 676 280 676 c 0,30,0
 238 676 238 676 220 657.5 c 128,-1,1
EndSplineSet
Validated: 1
EndChar
StartChar: uni0193
Encoding: 403 403 109
Width: 589
GlyphClass: 2
Flags: W
AnchorPoint: "Anchor-18" 0 0 basechar 0
AnchorPoint: "Anchor-17" 0 0 basechar 0
AnchorPoint: "Anchor-16" 295 689 basechar 0
AnchorPoint: "Anchor-15" 0 0 basechar 0
AnchorPoint: "Anchor-14" 295 0 basechar 0
LayerCount: 2
Fore
SplineSet
735 794 m 1,1,-1
 699 735 l 1,2,3
 679 747 679 747 663.5 752.5 c 128,-1,4
 648 758 648 758 625 758 c 0,5,6
 561 758 561 758 561 684 c 2,7,-1
 561 625 l 1,8,-1
 512 573 l 1,9,10
 473 598 473 598 435 610.5 c 128,-1,11
 397 623 397 623 354 623 c 0,12,13
 301 623 301 623 256.5 594.5 c 128,-1,14
 212 566 212 566 184 503.5 c 128,-1,15
 156 441 156 441 156 345 c 0,16,17
 156 200 156 200 203.5 133 c 128,-1,18
 251 66 251 66 344 66 c 0,19,20
 421 66 421 66 475 98 c 1,21,-1
 475 305 l 1,22,-1
 353 305 l 1,23,-1
 342 382 l 1,24,-1
 569 382 l 1,25,-1
 569 49 l 1,26,27
 519 19 519 19 462.5 3.5 c 128,-1,28
 406 -12 406 -12 337 -12 c 0,29,30
 206 -12 206 -12 130.5 79 c 128,-1,31
 55 170 55 170 55 345 c 0,32,33
 55 456 55 456 95.5 537 c 128,-1,34
 136 618 136 618 202 659.5 c 128,-1,35
 268 701 268 701 342 701 c 0,36,37
 419 701 419 701 469 674 c 1,38,-1
 469 676 l 2,39,40
 469 751 469 751 508.5 791.5 c 128,-1,41
 548 832 548 832 620 832 c 0,42,0
 685 832 685 832 735 794 c 1,1,-1
EndSplineSet
Validated: 1
Substitution2: "'c2sc' Capitals to Small Capitals lookup 26 subtable" uni0260.sc
Substitution2: "'aalt' Access All Alternates lookup 0 subtable" uni0260.sc
Position2: "'cpsp' Capital Spacing lookup 0 subtable" dx=5 dy=0 dh=10 dv=0
EndChar
StartChar: uni0194
Encoding: 404 404 103
Width: 554
GlyphClass: 2
Flags: W
AnchorPoint: "Anchor-18" 0 0 basechar 0
AnchorPoint: "Anchor-17" 0 0 basechar 0
AnchorPoint: "Anchor-16" 277 689 basechar 0
AnchorPoint: "Anchor-15" 0 0 basechar 0
AnchorPoint: "Anchor-14" 277 -202 basechar 0
LayerCount: 2
Fore
SplineSet
335 69 m 1,0,1
 370 4 370 4 384 -33.5 c 128,-1,2
 398 -71 398 -71 398 -111 c 0,3,4
 398 -160 398 -160 367.5 -186.5 c 128,-1,5
 337 -213 337 -213 278 -213 c 256,6,7
 219 -213 219 -213 188.5 -186.5 c 128,-1,8
 158 -160 158 -160 158 -112 c 0,9,10
 158 -78 158 -78 172.5 -39 c 128,-1,11
 187 0 187 0 221 69 c 1,12,-1
 6 689 l 1,13,-1
 108 689 l 1,14,-1
 279 135 l 1,15,-1
 452 689 l 1,16,-1
 548 689 l 1,17,-1
 335 69 l 1,0,1
278 7 m 1,19,20
 246 -69 246 -69 246 -104 c 0,21,22
 246 -140 246 -140 278 -140 c 256,23,24
 310 -140 310 -140 310 -104 c 0,25,18
 310 -69 310 -69 278 7 c 1,19,20
EndSplineSet
Validated: 1
Substitution2: "'c2sc' Capitals to Small Capitals lookup 26 subtable" uni0194.sc
Substitution2: "'aalt' Access All Alternates lookup 0 subtable" uni0194.sc
Position2: "'cpsp' Capital Spacing lookup 0 subtable" dx=5 dy=0 dh=10 dv=0
EndChar
StartChar: uni0195
Encoding: 405 405 490
Width: 885
GlyphClass: 2
Flags: W
AnchorPoint: "Anchor-18" 0 0 basechar 0
AnchorPoint: "Anchor-17" 0 0 basechar 0
AnchorPoint: "Anchor-16" 443 739 basechar 0
AnchorPoint: "Anchor-15" 0 0 basechar 0
AnchorPoint: "Anchor-14" 443 0 basechar 0
LayerCount: 2
Fore
SplineSet
815 255 m 0,1,2
 815 165 815 165 781.5 105 c 128,-1,3
 748 45 748 45 695.5 16.5 c 128,-1,4
 643 -12 643 -12 583 -12 c 0,5,6
 506 -12 506 -12 455 34 c 128,-1,7
 404 80 404 80 404 163 c 2,8,-1
 404 365 l 2,9,10
 404 421 404 421 382.5 444 c 128,-1,11
 361 467 361 467 320 467 c 256,12,13
 279 467 279 467 247 443 c 128,-1,14
 215 419 215 419 187 375 c 1,15,-1
 187 0 l 1,16,-1
 95 0 l 1,17,-1
 95 738 l 1,18,-1
 187 748 l 1,19,-1
 187 454 l 1,20,21
 249 539 249 539 343 539 c 0,22,23
 415 539 415 539 455.5 496 c 128,-1,24
 496 453 496 453 496 378 c 2,25,-1
 496 171 l 2,26,27
 496 116 496 116 519.5 89 c 128,-1,28
 543 62 543 62 587 62 c 0,29,30
 641 62 641 62 681.5 109 c 128,-1,31
 722 156 722 156 722 263 c 0,32,33
 722 392 722 392 696 527 c 1,34,-1
 789 527 l 1,35,0
 815 386 815 386 815 255 c 0,1,2
EndSplineSet
Validated: 1
EndChar
StartChar: uni0196
Encoding: 406 406 138
Width: 366
GlyphClass: 2
Flags: W
AnchorPoint: "Anchor-18" 0 0 basechar 0
AnchorPoint: "Anchor-17" 0 0 basechar 0
AnchorPoint: "Anchor-16" 138 689 basechar 0
AnchorPoint: "Anchor-15" 0 0 basechar 0
AnchorPoint: "Anchor-14" 203 0 basechar 0
LayerCount: 2
Fore
SplineSet
356 26 m 1,0,1
 306 -12 306 -12 241 -12 c 0,2,3
 170 -12 170 -12 130 28 c 128,-1,4
 90 68 90 68 90 144 c 2,5,-1
 90 689 l 1,6,-1
 185 689 l 1,7,-1
 185 138 l 2,8,9
 185 64 185 64 246 64 c 0,10,11
 269 64 269 64 284.5 69.5 c 128,-1,12
 300 75 300 75 319 86 c 1,13,-1
 356 26 l 1,0,1
EndSplineSet
Validated: 1
Substitution2: "'c2sc' Capitals to Small Capitals lookup 26 subtable" uni0196.sc
Substitution2: "'aalt' Access All Alternates lookup 0 subtable" uni0196.sc
Position2: "'cpsp' Capital Spacing lookup 0 subtable" dx=5 dy=0 dh=10 dv=0
EndChar
StartChar: uni0197
Encoding: 407 407 139
Width: 313
GlyphClass: 2
Flags: W
AnchorPoint: "Anchor-18" 0 0 basechar 0
AnchorPoint: "Anchor-17" 0 0 basechar 0
AnchorPoint: "Anchor-16" 156 689 basechar 0
AnchorPoint: "Anchor-15" 214 0 basechar 0
AnchorPoint: "Anchor-14" 156 0 basechar 0
LayerCount: 2
Fore
SplineSet
298 396 m 1,0,-1
 298 322 l 1,1,-1
 204 322 l 1,2,-1
 204 0 l 1,3,-1
 109 0 l 1,4,-1
 109 322 l 1,5,-1
 15 322 l 1,6,-1
 15 396 l 1,7,-1
 109 396 l 1,8,-1
 109 689 l 1,9,-1
 204 689 l 1,10,-1
 204 396 l 1,11,-1
 298 396 l 1,0,-1
EndSplineSet
Validated: 1
Substitution2: "'c2sc' Capitals to Small Capitals lookup 26 subtable" uni0268.sc
Substitution2: "'aalt' Access All Alternates lookup 0 subtable" uni0268.sc
Position2: "'cpsp' Capital Spacing lookup 0 subtable" dx=5 dy=0 dh=10 dv=0
EndChar
StartChar: uni0198
Encoding: 408 408 148
Width: 617
GlyphClass: 2
Flags: W
AnchorPoint: "Anchor-18" 0 0 basechar 0
AnchorPoint: "Anchor-17" 0 0 basechar 0
AnchorPoint: "Anchor-16" 309 689 basechar 0
AnchorPoint: "Anchor-15" 0 0 basechar 0
AnchorPoint: "Anchor-14" 309 0 basechar 0
LayerCount: 2
Fore
SplineSet
200 368 m 1,0,-1
 369 610 l 2,1,2
 403 659 403 659 435.5 680 c 128,-1,3
 468 701 468 701 517 701 c 0,4,5
 549 701 549 701 572.5 692 c 128,-1,6
 596 683 596 683 617 666 c 1,7,-1
 583 605 l 1,8,9
 569 614 569 614 556 619 c 128,-1,10
 543 624 543 624 523 624 c 0,11,12
 498 624 498 624 480 613 c 128,-1,13
 462 602 462 602 438 566 c 2,14,-1
 308 374 l 1,15,-1
 589 0 l 1,16,-1
 472 0 l 1,17,-1
 200 368 l 1,0,-1
195 689 m 1,18,-1
 195 0 l 1,19,-1
 100 0 l 1,20,-1
 100 689 l 1,21,-1
 195 689 l 1,18,-1
EndSplineSet
Validated: 1
Substitution2: "'c2sc' Capitals to Small Capitals lookup 26 subtable" uni0199.sc
Substitution2: "'aalt' Access All Alternates lookup 0 subtable" uni0199.sc
Position2: "'cpsp' Capital Spacing lookup 0 subtable" dx=5 dy=0 dh=10 dv=0
EndChar
StartChar: uni0199
Encoding: 409 409 523
Width: 512
GlyphClass: 2
Flags: W
LayerCount: 2
Fore
SplineSet
205 657.5 m 128,-1,1
 187 639 187 639 187 600 c 2,2,-1
 187 0 l 1,3,-1
 95 0 l 1,4,-1
 95 599 l 2,5,6
 95 667 95 667 138.5 708.5 c 128,-1,7
 182 750 182 750 260 750 c 0,8,9
 296 750 296 750 324.5 743.5 c 128,-1,10
 353 737 353 737 386 723 c 1,11,-1
 357 656 l 1,12,13
 312 676 312 676 265 676 c 0,14,0
 223 676 223 676 205 657.5 c 128,-1,1
296 294 m 1,15,-1
 512 0 l 1,16,-1
 402 0 l 1,17,-1
 193 288 l 1,18,-1
 387 527 l 1,19,-1
 490 527 l 1,20,-1
 296 294 l 1,15,-1
EndSplineSet
Validated: 1
Substitution2: "'smcp' Lowercase to Small Capitals lookup 27 subtable" uni0199.sc
Substitution2: "'aalt' Access All Alternates lookup 0 subtable" uni0199.sc
EndChar
StartChar: uni019A
Encoding: 410 410 528
Width: 313
GlyphClass: 2
Flags: W
AnchorPoint: "Anchor-18" 318 380 basechar 0
AnchorPoint: "Anchor-17" 214 739 basechar 0
AnchorPoint: "Anchor-16" 157 739 basechar 0
AnchorPoint: "Anchor-15" 0 0 basechar 0
AnchorPoint: "Anchor-14" 199 0 basechar 0
LayerCount: 2
Fore
SplineSet
203 337 m 1,0,-1
 203 106 l 2,1,2
 203 85 203 85 210.5 74.5 c 128,-1,3
 218 64 218 64 236 64 c 0,4,5
 255 64 255 64 270 70 c 1,6,-1
 294 6 l 1,7,8
 261 -12 261 -12 221 -12 c 0,9,10
 170 -12 170 -12 140.5 18.5 c 128,-1,11
 111 49 111 49 111 104 c 2,12,-1
 111 337 l 1,13,-1
 15 337 l 1,14,-1
 15 407 l 1,15,-1
 111 407 l 1,16,-1
 111 739 l 1,17,-1
 203 750 l 1,18,-1
 203 407 l 1,19,-1
 298 407 l 1,20,-1
 298 337 l 1,21,-1
 203 337 l 1,0,-1
EndSplineSet
Validated: 1
Substitution2: "'smcp' Lowercase to Small Capitals lookup 27 subtable" uni019A.sc
Substitution2: "'aalt' Access All Alternates lookup 0 subtable" uni019A.sc
EndChar
StartChar: uni019B
Encoding: 411 411 527
Width: 490
GlyphClass: 2
Flags: W
AnchorPoint: "Anchor-18" 0 0 basechar 0
AnchorPoint: "Anchor-17" 0 0 basechar 0
AnchorPoint: "Anchor-16" 245 739 basechar 0
AnchorPoint: "Anchor-15" 0 0 basechar 0
AnchorPoint: "Anchor-14" 245 0 basechar 0
LayerCount: 2
Fore
SplineSet
387 250.5 m 128,-1,1
 413 168 413 168 439.5 118 c 128,-1,2
 466 68 466 68 505 22 c 1,3,-1
 419 -12 l 1,4,5
 380 41 380 41 352.5 93 c 128,-1,6
 325 145 325 145 300 225.5 c 128,-1,7
 275 306 275 306 248 433 c 1,8,-1
 109 -12 l 1,9,-1
 20 10 l 1,10,-1
 185 497 l 1,11,-1
 233 497 l 1,12,13
 220 561 220 561 199 600 c 1,14,-1
 134 537 l 1,15,-1
 71 569 l 1,16,-1
 152 652 l 1,17,18
 121 672 121 672 68 681 c 1,19,-1
 82 752 l 1,20,21
 163 736 163 736 206 707 c 1,22,-1
 271 776 l 1,23,-1
 325 729 l 1,24,-1
 256 658 l 1,25,26
 278 628 278 628 295 583.5 c 128,-1,27
 312 539 312 539 328 473 c 0,28,0
 361 333 361 333 387 250.5 c 128,-1,1
EndSplineSet
Validated: 1
EndChar
StartChar: uni019C
Encoding: 412 412 164
Width: 933
GlyphClass: 2
Flags: W
AnchorPoint: "Anchor-18" 0 0 basechar 0
AnchorPoint: "Anchor-17" 0 0 basechar 0
AnchorPoint: "Anchor-16" 467 689 basechar 0
AnchorPoint: "Anchor-15" 0 0 basechar 0
AnchorPoint: "Anchor-14" 467 0 basechar 0
LayerCount: 2
Fore
SplineSet
833 689 m 1,0,-1
 833 0 l 1,1,-1
 751 0 l 1,2,-1
 743 79 l 1,3,4
 710 33 710 33 670.5 10.5 c 128,-1,5
 631 -12 631 -12 582 -12 c 0,6,7
 528 -12 528 -12 490 14 c 128,-1,8
 452 40 452 40 432 87 c 1,9,10
 393 36 393 36 351 12 c 128,-1,11
 309 -12 309 -12 258 -12 c 0,12,13
 179 -12 179 -12 134.5 43.5 c 128,-1,14
 90 99 90 99 90 189 c 2,15,-1
 90 689 l 1,16,-1
 185 689 l 1,17,-1
 185 191 l 2,18,19
 185 131 185 131 208.5 98.5 c 128,-1,20
 232 66 232 66 275 66 c 256,21,22
 318 66 318 66 348.5 87 c 128,-1,23
 379 108 379 108 415 159 c 1,24,25
 414 169 414 169 414 189 c 2,26,-1
 414 689 l 1,27,-1
 509 689 l 1,28,-1
 509 191 l 2,29,30
 509 131 509 131 532.5 98.5 c 128,-1,31
 556 66 556 66 599 66 c 256,32,33
 642 66 642 66 672.5 87 c 128,-1,34
 703 108 703 108 738 159 c 1,35,-1
 738 689 l 1,36,-1
 833 689 l 1,0,-1
EndSplineSet
Validated: 1
Substitution2: "'c2sc' Capitals to Small Capitals lookup 26 subtable" uni026F.sc
Substitution2: "'aalt' Access All Alternates lookup 0 subtable" uni026F.sc
Position2: "'cpsp' Capital Spacing lookup 0 subtable" dx=5 dy=0 dh=10 dv=0
EndChar
StartChar: uni019D
Encoding: 413 413 177
Width: 683
GlyphClass: 2
Flags: W
AnchorPoint: "Anchor-18" 0 0 basechar 0
AnchorPoint: "Anchor-17" 0 0 basechar 0
AnchorPoint: "Anchor-16" 353 689 basechar 0
AnchorPoint: "Anchor-15" 0 0 basechar 0
AnchorPoint: "Anchor-14" 343 0 basechar 0
LayerCount: 2
Fore
SplineSet
583 689 m 1,0,-1
 583 0 l 1,1,-1
 456 0 l 1,2,-1
 176 585 l 1,3,4
 182 516 182 516 185.5 457.5 c 128,-1,5
 189 399 189 399 189 316 c 2,6,-1
 189 -59 l 2,7,8
 189 -134 189 -134 149 -173.5 c 128,-1,9
 109 -213 109 -213 41 -213 c 0,10,11
 -24 -213 -24 -213 -74 -175 c 1,12,-1
 -38 -116 l 1,13,14
 -18 -128 -18 -128 -2.5 -133.5 c 128,-1,15
 13 -139 13 -139 36 -139 c 0,16,17
 100 -139 100 -139 100 -65 c 2,18,-1
 100 689 l 1,19,-1
 224 689 l 1,20,-1
 507 103 l 1,21,22
 504 129 504 129 499 194 c 128,-1,23
 494 259 494 259 494 313 c 2,24,-1
 494 689 l 1,25,-1
 583 689 l 1,0,-1
EndSplineSet
Validated: 1
Substitution2: "'ss01' Style Set 1 lookup 33 subtable" uni019D.ss01
Substitution2: "'salt' Stylistic Alternatives lookup 32 subtable" uni019D.ss01
Substitution2: "'c2sc' Capitals to Small Capitals lookup 26 subtable" uni0272.sc
AlternateSubs2: "'aalt' Access All Alternates lookup 1 subtable" uni0272.sc uni019D.ss01
Position2: "'cpsp' Capital Spacing lookup 0 subtable" dx=5 dy=0 dh=10 dv=0
EndChar
StartChar: uni019E
Encoding: 414 414 564
Width: 586
GlyphClass: 2
Flags: W
AnchorPoint: "Anchor-18" 0 0 basechar 0
AnchorPoint: "Anchor-17" 0 0 basechar 0
AnchorPoint: "Anchor-16" 298 527 basechar 0
AnchorPoint: "Anchor-15" 0 0 basechar 0
AnchorPoint: "Anchor-14" 293 0 basechar 0
LayerCount: 2
Fore
SplineSet
455.5 496 m 128,-1,1
 496 453 496 453 496 378 c 2,2,-1
 496 -213 l 1,3,-1
 404 -202 l 1,4,-1
 404 365 l 2,5,6
 404 421 404 421 383 444 c 128,-1,7
 362 467 362 467 321 467 c 0,8,9
 279 467 279 467 247 443 c 128,-1,10
 215 419 215 419 187 374 c 1,11,-1
 187 0 l 1,12,-1
 95 0 l 1,13,-1
 95 527 l 1,14,-1
 174 527 l 1,15,-1
 182 449 l 1,16,17
 210 491 210 491 251.5 515 c 128,-1,18
 293 539 293 539 343 539 c 0,19,0
 415 539 415 539 455.5 496 c 128,-1,1
EndSplineSet
Validated: 1
EndChar
StartChar: Ohorn
Encoding: 416 416 203
Width: 703
GlyphClass: 2
Flags: W
AnchorPoint: "Anchor-18" 0 0 basechar 0
AnchorPoint: "Anchor-17" 601 689 basechar 0
AnchorPoint: "Anchor-16" 346 689 basechar 0
AnchorPoint: "Anchor-15" 445 0 basechar 0
AnchorPoint: "Anchor-14" 346 0 basechar 0
LayerCount: 2
Fore
SplineSet
574 587 m 1,1,2
 637 494 637 494 637 344 c 0,3,4
 637 232 637 232 600.5 152 c 128,-1,5
 564 72 564 72 498.5 30 c 128,-1,6
 433 -12 433 -12 346 -12 c 256,7,8
 259 -12 259 -12 193.5 29 c 128,-1,9
 128 70 128 70 91.5 150 c 128,-1,10
 55 230 55 230 55 343 c 0,11,12
 55 454 55 454 91.5 535 c 128,-1,13
 128 616 128 616 194 658.5 c 128,-1,14
 260 701 260 701 346 701 c 0,15,16
 459 701 459 701 531 635 c 1,17,18
 586 642 586 642 586 686 c 0,19,20
 586 709 586 709 582.5 724.5 c 128,-1,21
 579 740 579 740 572 758 c 1,22,-1
 644 773 l 1,23,24
 663 740 663 740 663 691 c 0,25,0
 663 604 663 604 574 587 c 1,1,2
536 344 m 0,27,28
 536 623 536 623 346 623 c 0,29,30
 256 623 256 623 206 555 c 128,-1,31
 156 487 156 487 156 343 c 0,32,33
 156 200 156 200 206.5 133 c 128,-1,34
 257 66 257 66 346 66 c 0,35,26
 536 66 536 66 536 344 c 0,27,28
EndSplineSet
Validated: 1
Substitution2: "'c2sc' Capitals to Small Capitals lookup 26 subtable" ohorn.sc
Substitution2: "'aalt' Access All Alternates lookup 0 subtable" ohorn.sc
Position2: "'cpsp' Capital Spacing lookup 0 subtable" dx=5 dy=0 dh=10 dv=0
EndChar
StartChar: ohorn
Encoding: 417 417 586
Width: 595
GlyphClass: 2
Flags: W
AnchorPoint: "Anchor-18" 0 0 basechar 0
AnchorPoint: "Anchor-17" 528 527 basechar 0
AnchorPoint: "Anchor-16" 292 527 basechar 0
AnchorPoint: "Anchor-15" 379 0 basechar 0
AnchorPoint: "Anchor-14" 292 0 basechar 0
LayerCount: 2
Fore
SplineSet
495 420 m 1,1,2
 527 354 527 354 527 264 c 0,3,4
 527 182 527 182 499 119.5 c 128,-1,5
 471 57 471 57 418 22.5 c 128,-1,6
 365 -12 365 -12 292 -12 c 0,7,8
 181 -12 181 -12 119 62 c 128,-1,9
 57 136 57 136 57 263 c 0,10,11
 57 345 57 345 85 407.5 c 128,-1,12
 113 470 113 470 166 504.5 c 128,-1,13
 219 539 219 539 293 539 c 0,14,15
 398 539 398 539 459 472 c 1,16,17
 487 476 487 476 500 487.5 c 128,-1,18
 513 499 513 499 513 520 c 0,19,20
 513 543 513 543 509.5 558.5 c 128,-1,21
 506 574 506 574 499 592 c 1,22,-1
 571 607 l 1,23,24
 590 574 590 574 590 525 c 0,25,0
 590 435 590 435 495 420 c 1,1,2
428 264 m 0,27,28
 428 465 428 465 293 465 c 0,29,30
 156 465 156 465 156 263 c 0,31,32
 156 62 156 62 292 62 c 256,33,26
 428 62 428 62 428 264 c 0,27,28
EndSplineSet
Validated: 1
Substitution2: "'smcp' Lowercase to Small Capitals lookup 27 subtable" ohorn.sc
Substitution2: "'aalt' Access All Alternates lookup 0 subtable" ohorn.sc
EndChar
StartChar: uni01A2
Encoding: 418 418 210
Width: 926
GlyphClass: 2
Flags: W
AnchorPoint: "Anchor-18" 0 0 basechar 0
AnchorPoint: "Anchor-17" 0 0 basechar 0
AnchorPoint: "Anchor-16" 463 689 basechar 0
AnchorPoint: "Anchor-15" 0 0 basechar 0
AnchorPoint: "Anchor-14" 463 -202 basechar 0
LayerCount: 2
Fore
SplineSet
784.5 662 m 128,-1,1
 826 621 826 621 826 543 c 2,2,-1
 826 -202 l 1,3,-1
 731 -202 l 1,4,-1
 731 546 l 2,5,6
 731 629 731 629 656 629 c 0,7,8
 629 629 629 629 607 623 c 128,-1,9
 585 617 585 617 560 603 c 1,10,11
 597 557 597 557 617 491.5 c 128,-1,12
 637 426 637 426 637 344 c 0,13,14
 637 232 637 232 600.5 152 c 128,-1,15
 564 72 564 72 498.5 30 c 128,-1,16
 433 -12 433 -12 346 -12 c 256,17,18
 259 -12 259 -12 193.5 29 c 128,-1,19
 128 70 128 70 91.5 150 c 128,-1,20
 55 230 55 230 55 343 c 0,21,22
 55 454 55 454 91.5 535 c 128,-1,23
 128 616 128 616 194 658.5 c 128,-1,24
 260 701 260 701 346 701 c 0,25,26
 440 701 440 701 510 651 c 1,27,28
 549 678 549 678 584.5 690.5 c 128,-1,29
 620 703 620 703 663 703 c 0,30,0
 743 703 743 703 784.5 662 c 128,-1,1
536 344 m 0,32,33
 536 623 536 623 346 623 c 0,34,35
 256 623 256 623 206 555 c 128,-1,36
 156 487 156 487 156 343 c 0,37,38
 156 200 156 200 206.5 133 c 128,-1,39
 257 66 257 66 346 66 c 0,40,31
 536 66 536 66 536 344 c 0,32,33
EndSplineSet
Validated: 1
Substitution2: "'c2sc' Capitals to Small Capitals lookup 26 subtable" uni01A3.sc
Substitution2: "'aalt' Access All Alternates lookup 0 subtable" uni01A3.sc
Position2: "'cpsp' Capital Spacing lookup 0 subtable" dx=5 dy=0 dh=10 dv=0
EndChar
StartChar: uni01A3
Encoding: 419 419 593
Width: 792
GlyphClass: 2
Flags: W
AnchorPoint: "Anchor-18" 0 0 basechar 0
AnchorPoint: "Anchor-17" 0 0 basechar 0
AnchorPoint: "Anchor-16" 396 527 basechar 0
AnchorPoint: "Anchor-15" 0 0 basechar 0
AnchorPoint: "Anchor-14" 396 -202 basechar 0
LayerCount: 2
Fore
SplineSet
657.5 498 m 128,-1,1
 697 457 697 457 697 379 c 2,2,-1
 697 -213 l 1,3,-1
 605 -202 l 1,4,-1
 605 382 l 2,5,6
 605 424 605 424 586.5 444.5 c 128,-1,7
 568 465 568 465 533 465 c 0,8,9
 503 465 503 465 472 454 c 1,10,11
 527 380 527 380 527 264 c 0,12,13
 527 182 527 182 499 119.5 c 128,-1,14
 471 57 471 57 418 22.5 c 128,-1,15
 365 -12 365 -12 292 -12 c 0,16,17
 181 -12 181 -12 119 62 c 128,-1,18
 57 136 57 136 57 263 c 0,19,20
 57 345 57 345 85 407.5 c 128,-1,21
 113 470 113 470 166 504.5 c 128,-1,22
 219 539 219 539 293 539 c 0,23,24
 364 539 364 539 418 505 c 1,25,26
 478 539 478 539 542 539 c 0,27,0
 618 539 618 539 657.5 498 c 128,-1,1
428 264 m 0,29,30
 428 465 428 465 293 465 c 0,31,32
 156 465 156 465 156 263 c 0,33,34
 156 62 156 62 292 62 c 256,35,28
 428 62 428 62 428 264 c 0,29,30
EndSplineSet
Validated: 1
Substitution2: "'smcp' Lowercase to Small Capitals lookup 27 subtable" uni01A3.sc
Substitution2: "'aalt' Access All Alternates lookup 0 subtable" uni01A3.sc
EndChar
StartChar: uni01A4
Encoding: 420 420 228
Width: 664
GlyphClass: 2
Flags: W
AnchorPoint: "Anchor-18" 0 0 basechar 0
AnchorPoint: "Anchor-17" 0 0 basechar 0
AnchorPoint: "Anchor-16" 374 689 basechar 0
AnchorPoint: "Anchor-15" 0 0 basechar 0
AnchorPoint: "Anchor-14" 231 0 basechar 0
LayerCount: 2
Fore
SplineSet
562 635.5 m 128,-1,1
 632 582 632 582 632 476 c 0,2,3
 632 363 632 363 559 308 c 128,-1,4
 486 253 486 253 365 253 c 2,5,-1
 278 253 l 1,6,-1
 278 0 l 1,7,-1
 183 0 l 1,8,-1
 183 614 l 1,9,-1
 151 614 l 2,10,11
 97 614 97 614 97 564 c 0,12,13
 97 547 97 547 101.5 530.5 c 128,-1,14
 106 514 106 514 115 491 c 1,15,-1
 51 459 l 1,16,17
 32 487 32 487 21 512 c 128,-1,18
 10 537 10 537 10 567 c 0,19,20
 10 622 10 622 48 655.5 c 128,-1,21
 86 689 86 689 156 689 c 2,22,-1
 364 689 l 2,23,0
 492 689 492 689 562 635.5 c 128,-1,1
487.5 360 m 128,-1,25
 531 392 531 392 531 475 c 0,26,27
 531 549 531 549 487.5 582 c 128,-1,28
 444 615 444 615 363 615 c 2,29,-1
 278 615 l 1,30,-1
 278 328 l 1,31,-1
 361 328 l 2,32,24
 444 328 444 328 487.5 360 c 128,-1,25
EndSplineSet
Validated: 1
Substitution2: "'c2sc' Capitals to Small Capitals lookup 26 subtable" uni01A5.sc
Substitution2: "'aalt' Access All Alternates lookup 0 subtable" uni01A5.sc
Position2: "'cpsp' Capital Spacing lookup 0 subtable" dx=5 dy=0 dh=10 dv=0
EndChar
StartChar: uni01A5
Encoding: 421 421 614
Width: 594
GlyphClass: 2
Flags: W
AnchorPoint: "Anchor-18" 0 0 basechar 0
AnchorPoint: "Anchor-17" 0 0 basechar 0
AnchorPoint: "Anchor-16" 297 739 basechar 0
AnchorPoint: "Anchor-15" 0 0 basechar 0
AnchorPoint: "Anchor-14" 297 -202 basechar 0
LayerCount: 2
Fore
SplineSet
485 467 m 128,-1,1
 532 395 532 395 532 264 c 0,2,3
 532 140 532 140 478 64 c 128,-1,4
 424 -12 424 -12 325 -12 c 0,5,6
 237 -12 237 -12 187 48 c 1,7,-1
 187 -202 l 1,8,-1
 95 -213 l 1,9,-1
 95 599 l 2,10,11
 95 667 95 667 138.5 708.5 c 128,-1,12
 182 750 182 750 260 750 c 0,13,14
 296 750 296 750 324.5 743.5 c 128,-1,15
 353 737 353 737 386 723 c 1,16,-1
 357 656 l 1,17,18
 312 676 312 676 265 676 c 0,19,20
 223 676 223 676 205 657.5 c 128,-1,21
 187 639 187 639 187 600 c 2,22,-1
 187 458 l 1,23,24
 216 498 216 498 254.5 518.5 c 128,-1,25
 293 539 293 539 337 539 c 0,26,0
 438 539 438 539 485 467 c 128,-1,1
433 264 m 0,28,29
 433 466 433 466 314 466 c 0,30,31
 275 466 275 466 243 443 c 128,-1,32
 211 420 211 420 187 384 c 1,33,-1
 187 127 l 1,34,35
 207 96 207 96 237 79.5 c 128,-1,36
 267 63 267 63 303 63 c 0,37,27
 433 63 433 63 433 264 c 0,28,29
EndSplineSet
Validated: 1
Substitution2: "'ss01' Style Set 1 lookup 33 subtable" uni01A5.ss01
Substitution2: "'salt' Stylistic Alternatives lookup 32 subtable" uni01A5.ss01
Substitution2: "'smcp' Lowercase to Small Capitals lookup 27 subtable" uni01A5.sc
AlternateSubs2: "'aalt' Access All Alternates lookup 1 subtable" uni01A5.sc uni01A5.ss01
EndChar
StartChar: uni01A6
Encoding: 422 422 318
Width: 605
GlyphClass: 2
Flags: W
AnchorPoint: "Anchor-18" 0 0 basechar 0
AnchorPoint: "Anchor-17" 0 0 basechar 0
AnchorPoint: "Anchor-16" 303 689 basechar 0
AnchorPoint: "Anchor-15" 0 0 basechar 0
AnchorPoint: "Anchor-14" 303 -202 basechar 0
LayerCount: 2
Fore
SplineSet
302 170 m 1,0,-1
 195 170 l 1,1,-1
 195 0 l 1,2,-1
 100 0 l 1,3,-1
 100 689 l 1,4,-1
 195 689 l 1,5,-1
 195 567 l 1,6,-1
 281 567 l 2,7,8
 410 567 410 567 476.5 518 c 128,-1,9
 543 469 543 469 543 372 c 0,10,11
 543 300 543 300 506 255 c 128,-1,12
 469 210 469 210 394 187 c 1,13,-1
 580 -122 l 1,14,-1
 467 -122 l 1,15,-1
 302 170 l 1,0,-1
291 243 m 2,16,17
 366 243 366 243 404 273.5 c 128,-1,18
 442 304 442 304 442 372 c 0,19,20
 442 436 442 436 403.5 464.5 c 128,-1,21
 365 493 365 493 280 493 c 2,22,-1
 195 493 l 1,23,-1
 195 243 l 1,24,-1
 291 243 l 2,16,17
EndSplineSet
Validated: 1
Substitution2: "'c2sc' Capitals to Small Capitals lookup 26 subtable" uni0280.sc
Substitution2: "'aalt' Access All Alternates lookup 0 subtable" uni0280.sc
Position2: "'cpsp' Capital Spacing lookup 0 subtable" dx=5 dy=0 dh=10 dv=0
EndChar
StartChar: uni01A7
Encoding: 423 423 267
Width: 537
GlyphClass: 2
Flags: W
AnchorPoint: "Anchor-18" 0 0 basechar 0
AnchorPoint: "Anchor-17" 0 0 basechar 0
AnchorPoint: "Anchor-16" 269 689 basechar 0
AnchorPoint: "Anchor-15" 0 0 basechar 0
AnchorPoint: "Anchor-14" 269 0 basechar 0
LayerCount: 2
Fore
SplineSet
433.5 653.5 m 128,-1,1
 492 606 492 606 492 528 c 256,2,3
 492 450 492 450 442.5 405 c 128,-1,4
 393 360 393 360 288 327 c 0,5,6
 203 301 203 301 171 268.5 c 128,-1,7
 139 236 139 236 139 185 c 0,8,9
 139 128 139 128 179 97 c 128,-1,10
 219 66 219 66 279 66 c 0,11,12
 377 66 377 66 460 134 c 1,13,-1
 512 77 l 1,14,15
 420 -12 420 -12 276 -12 c 0,16,17
 205 -12 205 -12 151.5 13.5 c 128,-1,18
 98 39 98 39 69 84 c 128,-1,19
 40 129 40 129 40 185 c 0,20,21
 40 273 40 273 93 319.5 c 128,-1,22
 146 366 146 366 244 396 c 0,23,24
 305 415 305 415 337 433 c 128,-1,25
 369 451 369 451 381 473 c 128,-1,26
 393 495 393 495 393 528 c 0,27,28
 393 577 393 577 361.5 600 c 128,-1,29
 330 623 330 623 276 623 c 0,30,31
 230 623 230 623 191.5 609 c 128,-1,32
 153 595 153 595 114 564 c 1,33,-1
 62 621 l 1,34,35
 110 661 110 661 162 681 c 128,-1,36
 214 701 214 701 280 701 c 0,37,0
 375 701 375 701 433.5 653.5 c 128,-1,1
EndSplineSet
Validated: 1
Substitution2: "'c2sc' Capitals to Small Capitals lookup 26 subtable" uni01A8.sc
Substitution2: "'aalt' Access All Alternates lookup 0 subtable" uni01A8.sc
Position2: "'cpsp' Capital Spacing lookup 0 subtable" dx=5 dy=0 dh=10 dv=0
EndChar
StartChar: uni01A8
Encoding: 424 424 667
Width: 457
GlyphClass: 2
Flags: W
AnchorPoint: "Anchor-18" 0 0 basechar 0
AnchorPoint: "Anchor-17" 0 0 basechar 0
AnchorPoint: "Anchor-16" 229 527 basechar 0
AnchorPoint: "Anchor-15" 0 0 basechar 0
AnchorPoint: "Anchor-14" 229 0 basechar 0
LayerCount: 2
Fore
SplineSet
369.5 499 m 128,-1,1
 419 459 419 459 419 397 c 0,2,3
 419 338 419 338 382 303 c 128,-1,4
 345 268 345 268 260 245 c 0,5,6
 209 231 209 231 182 217.5 c 128,-1,7
 155 204 155 204 144.5 187 c 128,-1,8
 134 170 134 170 134 143 c 0,9,10
 134 105 134 105 162 83.5 c 128,-1,11
 190 62 190 62 235 62 c 0,12,13
 314 62 314 62 385 112 c 1,14,-1
 432 57 l 1,15,16
 353 -12 353 -12 233 -12 c 0,17,18
 182 -12 182 -12 137 5.5 c 128,-1,19
 92 23 92 23 63.5 59 c 128,-1,20
 35 95 35 95 35 146 c 0,21,22
 35 213 35 213 78 249.5 c 128,-1,23
 121 286 121 286 210 308 c 0,24,25
 275 324 275 324 298.5 344.5 c 128,-1,26
 322 365 322 365 322 400 c 0,27,28
 322 430 322 430 298 448 c 128,-1,29
 274 466 274 466 230 466 c 0,30,31
 192 466 192 466 159 455.5 c 128,-1,32
 126 445 126 445 88 422 c 1,33,-1
 50 479 l 1,34,35
 134 539 134 539 237 539 c 0,36,0
 320 539 320 539 369.5 499 c 128,-1,1
EndSplineSet
Validated: 1
Substitution2: "'smcp' Lowercase to Small Capitals lookup 27 subtable" uni01A8.sc
Substitution2: "'aalt' Access All Alternates lookup 0 subtable" uni01A8.sc
EndChar
StartChar: uni01AA
Encoding: 426 426 445
Width: 308
GlyphClass: 2
Flags: W
AnchorPoint: "Anchor-18" 0 0 basechar 0
AnchorPoint: "Anchor-17" 0 0 basechar 0
AnchorPoint: "Anchor-16" 159 739 basechar 0
AnchorPoint: "Anchor-15" 0 0 basechar 0
AnchorPoint: "Anchor-14" 159 -202 basechar 0
LayerCount: 2
Fore
SplineSet
387 -175 m 1,0,1
 337 -213 337 -213 272 -213 c 0,2,3
 202 -213 202 -213 161.5 -173 c 128,-1,4
 121 -133 121 -133 121 -57 c 2,5,-1
 121 486 l 1,6,7
 94 476 94 476 65 476 c 0,8,9
 9 476 9 476 -28 513 c 128,-1,10
 -65 550 -65 550 -65 612 c 256,11,12
 -65 674 -65 674 -26 712 c 128,-1,13
 13 750 13 750 72 750 c 0,14,15
 136 750 136 750 174.5 713.5 c 128,-1,16
 213 677 213 677 213 604 c 2,17,-1
 213 -65 l 2,18,19
 213 -139 213 -139 277 -139 c 0,20,21
 300 -139 300 -139 315.5 -134 c 128,-1,22
 331 -129 331 -129 351 -117 c 1,23,-1
 387 -175 l 1,0,1
121 555 m 1,25,-1
 121 612 l 2,26,27
 121 645 121 645 108.5 661.5 c 128,-1,28
 96 678 96 678 74 678 c 0,29,30
 51 678 51 678 39 661 c 128,-1,31
 27 644 27 644 27 614 c 0,32,33
 27 548 27 548 81 548 c 0,34,24
 100 548 100 548 121 555 c 1,25,-1
EndSplineSet
Validated: 1
EndChar
StartChar: uni01AB
Encoding: 427 427 668
Width: 361
GlyphClass: 2
Flags: W
AnchorPoint: "Anchor-18" 0 0 basechar 0
AnchorPoint: "Anchor-17" 0 0 basechar 0
AnchorPoint: "Anchor-16" 147 646 basechar 0
AnchorPoint: "Anchor-15" 0 0 basechar 0
AnchorPoint: "Anchor-14" 181 -202 basechar 0
LayerCount: 2
Fore
SplineSet
361 24 m 1,0,-1
 361 -57 l 2,1,2
 361 -133 361 -133 321 -173 c 128,-1,3
 281 -213 281 -213 210 -213 c 0,4,5
 145 -213 145 -213 95 -175 c 1,6,-1
 131 -116 l 1,7,8
 151 -128 151 -128 166.5 -133.5 c 128,-1,9
 182 -139 182 -139 205 -139 c 0,10,11
 272 -139 272 -139 272 -65 c 2,12,-1
 272 -5 l 1,13,14
 255 -12 255 -12 233 -12 c 0,15,16
 174 -12 174 -12 137.5 27 c 128,-1,17
 101 66 101 66 101 138 c 2,18,-1
 101 456 l 1,19,-1
 9 456 l 1,20,-1
 9 527 l 1,21,-1
 101 527 l 1,22,-1
 101 646 l 1,23,-1
 193 657 l 1,24,-1
 193 527 l 1,25,-1
 318 527 l 1,26,-1
 308 456 l 1,27,-1
 193 456 l 1,28,-1
 193 138 l 2,29,30
 193 97 193 97 207.5 78.5 c 128,-1,31
 222 60 222 60 256 60 c 0,32,33
 291 60 291 60 333 74 c 1,34,-1
 361 24 l 1,0,-1
EndSplineSet
Validated: 1
EndChar
StartChar: uni01AC
Encoding: 428 428 263
Width: 555
GlyphClass: 2
Flags: W
AnchorPoint: "Anchor-18" 0 0 basechar 0
AnchorPoint: "Anchor-17" 0 0 basechar 0
AnchorPoint: "Anchor-16" 278 689 basechar 0
AnchorPoint: "Anchor-15" 0 0 basechar 0
AnchorPoint: "Anchor-14" 297 0 basechar 0
LayerCount: 2
Fore
SplineSet
535 608 m 1,0,-1
 344 608 l 1,1,-1
 344 0 l 1,2,-1
 249 0 l 1,3,-1
 249 608 l 1,4,-1
 153 608 l 2,5,6
 126 608 126 608 112.5 595.5 c 128,-1,7
 99 583 99 583 99 562 c 0,8,9
 99 545 99 545 104 530.5 c 128,-1,10
 109 516 109 516 119 494 c 1,11,-1
 48 458 l 1,12,13
 10 516 10 516 10 565 c 0,14,15
 10 621 10 621 49 655 c 128,-1,16
 88 689 88 689 159 689 c 2,17,-1
 545 689 l 1,18,-1
 535 608 l 1,0,-1
EndSplineSet
Validated: 1
Substitution2: "'c2sc' Capitals to Small Capitals lookup 26 subtable" uni01AD.sc
Substitution2: "'aalt' Access All Alternates lookup 0 subtable" uni01AD.sc
Position2: "'cpsp' Capital Spacing lookup 0 subtable" dx=5 dy=0 dh=10 dv=0
EndChar
StartChar: uni01AD
Encoding: 429 429 663
Width: 361
GlyphClass: 2
Flags: W
AnchorPoint: "Anchor-18" 0 0 basechar 0
AnchorPoint: "Anchor-17" 0 0 basechar 0
AnchorPoint: "Anchor-16" 181 739 basechar 0
AnchorPoint: "Anchor-15" 0 0 basechar 0
AnchorPoint: "Anchor-14" 181 0 basechar 0
LayerCount: 2
Fore
SplineSet
326 87 m 1,1,-1
 361 24 l 1,2,3
 309 -12 309 -12 243 -12 c 0,4,5
 176 -12 176 -12 138.5 26.5 c 128,-1,6
 101 65 101 65 101 138 c 2,7,-1
 101 456 l 1,8,-1
 9 456 l 1,9,-1
 9 527 l 1,10,-1
 101 527 l 1,11,-1
 101 594 l 2,12,13
 101 670 101 670 140.5 710 c 128,-1,14
 180 750 180 750 249 750 c 0,15,16
 311 750 311 750 361 712 c 1,17,-1
 325 653 l 1,18,19
 305 665 305 665 290 670.5 c 128,-1,20
 275 676 275 676 254 676 c 0,21,22
 226 676 226 676 209.5 658 c 128,-1,23
 193 640 193 640 193 602 c 2,24,-1
 193 527 l 1,25,-1
 318 527 l 1,26,-1
 308 456 l 1,27,-1
 193 456 l 1,28,-1
 193 142 l 2,29,30
 193 101 193 101 207.5 82.5 c 128,-1,31
 222 64 222 64 256 64 c 0,32,0
 289 64 289 64 326 87 c 1,1,-1
EndSplineSet
Validated: 1
Substitution2: "'smcp' Lowercase to Small Capitals lookup 27 subtable" uni01AD.sc
Substitution2: "'aalt' Access All Alternates lookup 0 subtable" uni01AD.sc
EndChar
StartChar: uni01AE
Encoding: 430 430 268
Width: 517
GlyphClass: 2
Flags: W
AnchorPoint: "Anchor-18" 259 345 basechar 0
AnchorPoint: "Anchor-17" 0 0 basechar 0
AnchorPoint: "Anchor-16" 259 689 basechar 0
AnchorPoint: "Anchor-15" 0 0 basechar 0
AnchorPoint: "Anchor-14" 259 0 basechar 0
LayerCount: 2
Fore
SplineSet
367 -137 m 0,1,2
 390 -137 390 -137 405.5 -131.5 c 128,-1,3
 421 -126 421 -126 440 -115 c 1,4,-1
 477 -175 l 1,5,6
 427 -213 427 -213 362 -213 c 0,7,8
 291 -213 291 -213 251 -173 c 128,-1,9
 211 -133 211 -133 211 -57 c 2,10,-1
 211 608 l 1,11,-1
 15 608 l 1,12,-1
 15 689 l 1,13,-1
 507 689 l 1,14,-1
 497 608 l 1,15,-1
 306 608 l 1,16,-1
 306 -63 l 2,17,0
 306 -137 306 -137 367 -137 c 0,1,2
EndSplineSet
Validated: 1
Substitution2: "'c2sc' Capitals to Small Capitals lookup 26 subtable" uni0288.sc
Substitution2: "'aalt' Access All Alternates lookup 0 subtable" uni0288.sc
Position2: "'cpsp' Capital Spacing lookup 0 subtable" dx=5 dy=0 dh=10 dv=0
EndChar
StartChar: Uhorn
Encoding: 431 431 284
Width: 676
GlyphClass: 2
Flags: W
AnchorPoint: "Anchor-18" 0 0 basechar 0
AnchorPoint: "Anchor-17" 634 689 basechar 0
AnchorPoint: "Anchor-16" 331 689 basechar 0
AnchorPoint: "Anchor-15" 428 0 basechar 0
AnchorPoint: "Anchor-14" 331 0 basechar 0
LayerCount: 2
Fore
SplineSet
696 691 m 0,1,2
 696 640 696 640 664.5 612.5 c 128,-1,3
 633 585 633 585 572 583 c 1,4,-1
 572 221 l 2,5,6
 572 152 572 152 543.5 99.5 c 128,-1,7
 515 47 515 47 460.5 17.5 c 128,-1,8
 406 -12 406 -12 330 -12 c 0,9,10
 215 -12 215 -12 152.5 51.5 c 128,-1,11
 90 115 90 115 90 221 c 2,12,-1
 90 689 l 1,13,-1
 185 689 l 1,14,-1
 185 228 l 2,15,16
 185 148 185 148 221 108 c 128,-1,17
 257 68 257 68 330 68 c 0,18,19
 404 68 404 68 440 107.5 c 128,-1,20
 476 147 476 147 476 228 c 2,21,-1
 476 689 l 1,22,-1
 572 689 l 1,23,-1
 572 636 l 1,24,25
 619 645 619 645 619 686 c 0,26,27
 619 709 619 709 615.5 724.5 c 128,-1,28
 612 740 612 740 605 758 c 1,29,-1
 677 773 l 1,30,0
 696 740 696 740 696 691 c 0,1,2
EndSplineSet
Validated: 1
Substitution2: "'c2sc' Capitals to Small Capitals lookup 26 subtable" uhorn.sc
Substitution2: "'aalt' Access All Alternates lookup 0 subtable" uhorn.sc
Position2: "'cpsp' Capital Spacing lookup 0 subtable" dx=5 dy=0 dh=10 dv=0
EndChar
StartChar: uhorn
Encoding: 432 432 687
Width: 601
GlyphClass: 2
Flags: W
AnchorPoint: "Anchor-18" 0 0 basechar 0
AnchorPoint: "Anchor-17" 549 527 basechar 0
AnchorPoint: "Anchor-16" 289 527 basechar 0
AnchorPoint: "Anchor-15" 497 0 basechar 0
AnchorPoint: "Anchor-14" 289 0 basechar 0
LayerCount: 2
Fore
SplineSet
611 525 m 0,1,2
 611 474 611 474 579.5 446.5 c 128,-1,3
 548 419 548 419 487 417 c 1,4,-1
 487 0 l 1,5,-1
 408 0 l 1,6,-1
 401 82 l 1,7,8
 371 33 371 33 332 10.5 c 128,-1,9
 293 -12 293 -12 237 -12 c 0,10,11
 168 -12 168 -12 129 30 c 128,-1,12
 90 72 90 72 90 149 c 2,13,-1
 90 527 l 1,14,-1
 182 527 l 1,15,-1
 182 159 l 2,16,17
 182 105 182 105 201 82.5 c 128,-1,18
 220 60 220 60 263 60 c 0,19,20
 340 60 340 60 395 151 c 1,21,-1
 395 527 l 1,22,-1
 487 527 l 1,23,-1
 487 473 l 1,24,25
 534 482 534 482 534 520 c 0,26,27
 534 543 534 543 530.5 558.5 c 128,-1,28
 527 574 527 574 520 592 c 1,29,-1
 592 607 l 1,30,0
 611 574 611 574 611 525 c 0,1,2
EndSplineSet
Validated: 1
Substitution2: "'smcp' Lowercase to Small Capitals lookup 27 subtable" uhorn.sc
Substitution2: "'aalt' Access All Alternates lookup 0 subtable" uhorn.sc
EndChar
StartChar: uni01B1
Encoding: 433 433 294
Width: 692
GlyphClass: 2
Flags: W
AnchorPoint: "Anchor-18" 0 0 basechar 0
AnchorPoint: "Anchor-17" 0 0 basechar 0
AnchorPoint: "Anchor-16" 346 689 basechar 0
AnchorPoint: "Anchor-15" 0 0 basechar 0
AnchorPoint: "Anchor-14" 346 0 basechar 0
LayerCount: 2
Fore
SplineSet
192 27.5 m 128,-1,1
 126 67 126 67 90.5 141 c 128,-1,2
 55 215 55 215 55 315 c 0,3,4
 55 424 55 424 89 491 c 128,-1,5
 123 558 123 558 184 611 c 1,6,-1
 77 611 l 1,7,-1
 77 689 l 1,8,-1
 279 689 l 1,9,-1
 279 611 l 1,10,11
 215 560 215 560 185.5 492.5 c 128,-1,12
 156 425 156 425 156 315 c 0,13,14
 156 191 156 191 206 128.5 c 128,-1,15
 256 66 256 66 346 66 c 0,16,17
 435 66 435 66 485.5 129 c 128,-1,18
 536 192 536 192 536 316 c 0,19,20
 536 422 536 422 505 490 c 128,-1,21
 474 558 474 558 414 611 c 1,22,-1
 414 689 l 1,23,-1
 616 689 l 1,24,-1
 616 611 l 1,25,-1
 509 611 l 1,26,27
 568 567 568 567 602.5 498.5 c 128,-1,28
 637 430 637 430 637 316 c 0,29,30
 637 219 637 219 600 144.5 c 128,-1,31
 563 70 563 70 497 29 c 128,-1,32
 431 -12 431 -12 346 -12 c 0,33,0
 258 -12 258 -12 192 27.5 c 128,-1,1
EndSplineSet
Validated: 1
Substitution2: "'c2sc' Capitals to Small Capitals lookup 26 subtable" uni01B1.sc
Substitution2: "'aalt' Access All Alternates lookup 0 subtable" uni01B1.sc
Position2: "'cpsp' Capital Spacing lookup 0 subtable" dx=5 dy=0 dh=10 dv=0
EndChar
StartChar: uni01B2
Encoding: 434 434 299
Width: 662
GlyphClass: 2
Flags: W
AnchorPoint: "Anchor-18" 0 0 basechar 0
AnchorPoint: "Anchor-17" 0 0 basechar 0
AnchorPoint: "Anchor-16" 324 689 basechar 0
AnchorPoint: "Anchor-15" 0 0 basechar 0
AnchorPoint: "Anchor-14" 324 0 basechar 0
LayerCount: 2
Fore
SplineSet
541.5 669.5 m 128,-1,1
 572 638 572 638 572 574 c 2,2,-1
 572 301 l 2,3,4
 572 206 572 206 540 135.5 c 128,-1,5
 508 65 508 65 449 26.5 c 128,-1,6
 390 -12 390 -12 312 -12 c 0,7,8
 244 -12 244 -12 194 17 c 128,-1,9
 144 46 144 46 117 96.5 c 128,-1,10
 90 147 90 147 90 211 c 2,11,-1
 90 689 l 1,12,-1
 185 689 l 1,13,-1
 185 216 l 2,14,15
 185 145 185 145 218 106.5 c 128,-1,16
 251 68 251 68 312 68 c 0,17,18
 392 68 392 68 434 129 c 128,-1,19
 476 190 476 190 476 308 c 2,20,-1
 476 573 l 2,21,22
 476 601 476 601 467.5 612.5 c 128,-1,23
 459 624 459 624 438 624 c 0,24,25
 418 624 418 624 401 617 c 1,26,-1
 377 683 l 1,27,28
 410 701 410 701 453 701 c 0,29,0
 511 701 511 701 541.5 669.5 c 128,-1,1
EndSplineSet
Validated: 1
Substitution2: "'c2sc' Capitals to Small Capitals lookup 26 subtable" uni028B.sc
Substitution2: "'aalt' Access All Alternates lookup 0 subtable" uni028B.sc
Position2: "'cpsp' Capital Spacing lookup 0 subtable" dx=5 dy=0 dh=10 dv=0
EndChar
StartChar: uni01B3
Encoding: 435 435 315
Width: 586
GlyphClass: 2
Flags: W
AnchorPoint: "Anchor-18" 0 0 basechar 0
AnchorPoint: "Anchor-17" 0 0 basechar 0
AnchorPoint: "Anchor-16" 285 689 basechar 0
AnchorPoint: "Anchor-15" 0 0 basechar 0
AnchorPoint: "Anchor-14" 275 0 basechar 0
LayerCount: 2
Fore
SplineSet
227 264 m 1,0,-1
 5 689 l 1,1,-1
 110 689 l 1,2,-1
 278 348 l 1,3,-1
 388 587 l 2,4,5
 416 648 416 648 449.5 674.5 c 128,-1,6
 483 701 483 701 536 701 c 0,7,8
 567 701 567 701 592 690.5 c 128,-1,9
 617 680 617 680 641 661 c 1,10,-1
 605 607 l 1,11,12
 576 629 576 629 542 629 c 0,13,14
 518 629 518 629 502 614.5 c 128,-1,15
 486 600 486 600 467 561 c 2,16,-1
 323 265 l 1,17,-1
 323 0 l 1,18,-1
 227 0 l 1,19,-1
 227 264 l 1,0,-1
EndSplineSet
Validated: 1
Substitution2: "'c2sc' Capitals to Small Capitals lookup 26 subtable" uni01B4.sc
Substitution2: "'aalt' Access All Alternates lookup 0 subtable" uni01B4.sc
Position2: "'cpsp' Capital Spacing lookup 0 subtable" dx=5 dy=0 dh=10 dv=0
EndChar
StartChar: uni01B4
Encoding: 436 436 720
Width: 496
GlyphClass: 2
Flags: W
AnchorPoint: "Anchor-18" 0 0 basechar 0
AnchorPoint: "Anchor-17" 0 0 basechar 0
AnchorPoint: "Anchor-16" 248 527 basechar 0
AnchorPoint: "Anchor-15" 0 0 basechar 0
AnchorPoint: "Anchor-14" 248 -202 basechar 0
LayerCount: 2
Fore
SplineSet
51 -141 m 1,0,1
 103 -132 103 -132 134 -115 c 128,-1,2
 165 -98 165 -98 183.5 -71.5 c 128,-1,3
 202 -45 202 -45 218 0 c 1,4,-1
 187 0 l 1,5,-1
 10 527 l 1,6,-1
 108 527 l 1,7,-1
 249 67 l 1,8,-1
 354 464 l 2,9,10
 370 524 370 524 396.5 549 c 128,-1,11
 423 574 423 574 471 574 c 0,12,13
 508 574 508 574 541 556 c 1,14,-1
 517 494 l 1,15,16
 502 500 502 500 483 500 c 0,17,18
 466 500 466 500 456.5 490.5 c 128,-1,19
 447 481 447 481 440 456 c 2,20,-1
 310 6 l 2,21,22
 282 -91 282 -91 224 -146.5 c 128,-1,23
 166 -202 166 -202 61 -213 c 1,24,-1
 51 -141 l 1,0,1
EndSplineSet
Validated: 1
Substitution2: "'smcp' Lowercase to Small Capitals lookup 27 subtable" uni01B4.sc
Substitution2: "'aalt' Access All Alternates lookup 0 subtable" uni01B4.sc
EndChar
StartChar: uni01B5
Encoding: 437 437 328
Width: 522
GlyphClass: 2
Flags: W
AnchorPoint: "Anchor-18" 0 0 basechar 0
AnchorPoint: "Anchor-17" 0 0 basechar 0
AnchorPoint: "Anchor-16" 261 689 basechar 0
AnchorPoint: "Anchor-15" 0 0 basechar 0
AnchorPoint: "Anchor-14" 261 0 basechar 0
LayerCount: 2
Fore
SplineSet
477 689 m 1,0,-1
 477 612 l 1,1,-1
 329 384 l 1,2,-1
 434 384 l 1,3,-1
 434 310 l 1,4,-1
 281 310 l 1,5,-1
 132 81 l 1,6,-1
 477 81 l 1,7,-1
 466 0 l 1,8,-1
 30 0 l 1,9,-1
 30 76 l 1,10,-1
 183 310 l 1,11,-1
 94 310 l 1,12,-1
 94 384 l 1,13,-1
 231 384 l 1,14,-1
 378 609 l 1,15,-1
 66 609 l 1,16,-1
 66 689 l 1,17,-1
 477 689 l 1,0,-1
EndSplineSet
Validated: 1
Substitution2: "'c2sc' Capitals to Small Capitals lookup 26 subtable" uni01B6.sc
Substitution2: "'aalt' Access All Alternates lookup 0 subtable" uni01B6.sc
Position2: "'cpsp' Capital Spacing lookup 0 subtable" dx=5 dy=0 dh=10 dv=0
EndChar
StartChar: uni01B6
Encoding: 438 438 735
Width: 437
GlyphClass: 2
Flags: W
AnchorPoint: "Anchor-18" 0 0 basechar 0
AnchorPoint: "Anchor-17" 0 0 basechar 0
AnchorPoint: "Anchor-16" 219 527 basechar 0
AnchorPoint: "Anchor-15" 0 0 basechar 0
AnchorPoint: "Anchor-14" 219 0 basechar 0
LayerCount: 2
Fore
SplineSet
126 77 m 1,0,-1
 407 77 l 1,1,-1
 396 0 l 1,2,-1
 25 0 l 1,3,-1
 25 69 l 1,4,-1
 142 229 l 1,5,-1
 61 229 l 1,6,-1
 61 299 l 1,7,-1
 193 299 l 1,8,-1
 302 449 l 1,9,-1
 48 449 l 1,10,-1
 48 527 l 1,11,-1
 404 527 l 1,12,-1
 404 457 l 1,13,-1
 288 299 l 1,14,-1
 372 299 l 1,15,-1
 372 229 l 1,16,-1
 237 229 l 1,17,-1
 126 77 l 1,0,-1
EndSplineSet
Validated: 1
Substitution2: "'smcp' Lowercase to Small Capitals lookup 27 subtable" uni01B6.sc
Substitution2: "'aalt' Access All Alternates lookup 0 subtable" uni01B6.sc
EndChar
StartChar: uni01B7
Encoding: 439 439 95
Width: 516
GlyphClass: 2
Flags: W
AnchorPoint: "Anchor-18" 0 0 basechar 0
AnchorPoint: "Anchor-17" 0 0 basechar 0
AnchorPoint: "Anchor-16" 244 689 basechar 0
AnchorPoint: "Anchor-15" 0 0 basechar 0
AnchorPoint: "Anchor-14" 258 0 basechar 0
LayerCount: 2
Fore
SplineSet
411.5 345 m 128,-1,1
 471 293 471 293 471 198 c 0,2,3
 471 137 471 137 441.5 89 c 128,-1,4
 412 41 412 41 356.5 14.5 c 128,-1,5
 301 -12 301 -12 226 -12 c 0,6,7
 154 -12 154 -12 101.5 10 c 128,-1,8
 49 32 49 32 10 78 c 1,9,-1
 65 132 l 1,10,11
 97 97 97 97 134.5 81.5 c 128,-1,12
 172 66 172 66 223 66 c 0,13,14
 295 66 295 66 333.5 101.5 c 128,-1,15
 372 137 372 137 372 200 c 0,16,17
 372 268 372 268 334 298 c 128,-1,18
 296 328 296 328 215 328 c 2,19,-1
 127 328 l 1,20,-1
 127 395 l 1,21,-1
 335 611 l 1,22,-1
 41 611 l 1,23,-1
 41 689 l 1,24,-1
 447 689 l 1,25,-1
 447 612 l 1,26,-1
 234 397 l 1,27,-1
 235 397 l 2,28,0
 352 397 352 397 411.5 345 c 128,-1,1
EndSplineSet
Validated: 1
Substitution2: "'c2sc' Capitals to Small Capitals lookup 26 subtable" uni0292.sc
Substitution2: "'aalt' Access All Alternates lookup 0 subtable" uni0292.sc
Position2: "'cpsp' Capital Spacing lookup 0 subtable" dx=5 dy=0 dh=10 dv=0
EndChar
StartChar: uni01B8
Encoding: 440 440 97
Width: 516
GlyphClass: 2
Flags: W
AnchorPoint: "Anchor-18" 0 0 basechar 0
AnchorPoint: "Anchor-17" 0 0 basechar 0
AnchorPoint: "Anchor-16" 258 689 basechar 0
AnchorPoint: "Anchor-15" 0 0 basechar 0
AnchorPoint: "Anchor-14" 258 0 basechar 0
LayerCount: 2
Fore
SplineSet
506 78 m 1,0,1
 467 32 467 32 413.5 10 c 128,-1,2
 360 -12 360 -12 283 -12 c 0,3,4
 213 -12 213 -12 158.5 14 c 128,-1,5
 104 40 104 40 74.5 86 c 128,-1,6
 45 132 45 132 45 191 c 0,7,8
 45 284 45 284 106.5 340.5 c 128,-1,9
 168 397 168 397 281 397 c 2,10,-1
 282 397 l 1,11,-1
 69 612 l 1,12,-1
 69 689 l 1,13,-1
 475 689 l 1,14,-1
 475 611 l 1,15,-1
 181 611 l 1,16,-1
 389 395 l 1,17,-1
 389 328 l 1,18,-1
 301 328 l 2,19,20
 144 328 144 328 144 193 c 0,21,22
 144 135 144 135 181.5 100.5 c 128,-1,23
 219 66 219 66 286 66 c 0,24,25
 342 66 342 66 380 81.5 c 128,-1,26
 418 97 418 97 451 132 c 1,27,-1
 506 78 l 1,0,1
EndSplineSet
Validated: 1
Substitution2: "'c2sc' Capitals to Small Capitals lookup 26 subtable" uni01B9.sc
Substitution2: "'aalt' Access All Alternates lookup 0 subtable" uni01B9.sc
Position2: "'cpsp' Capital Spacing lookup 0 subtable" dx=5 dy=0 dh=10 dv=0
EndChar
StartChar: uni01B9
Encoding: 441 441 455
Width: 481
GlyphClass: 2
Flags: W
AnchorPoint: "Anchor-18" 0 0 basechar 0
AnchorPoint: "Anchor-17" 0 0 basechar 0
AnchorPoint: "Anchor-16" 241 527 basechar 0
AnchorPoint: "Anchor-15" 0 0 basechar 0
AnchorPoint: "Anchor-14" 241 -202 basechar 0
LayerCount: 2
Fore
SplineSet
481 -123 m 1,0,1
 439 -168 439 -168 388 -190.5 c 128,-1,2
 337 -213 337 -213 267 -213 c 0,3,4
 198 -213 198 -213 144 -186.5 c 128,-1,5
 90 -160 90 -160 60 -113 c 128,-1,6
 30 -66 30 -66 30 -6 c 0,7,8
 30 94 30 94 92 150 c 128,-1,9
 154 206 154 206 265 206 c 2,10,-1
 268 206 l 1,11,-1
 54 457 l 1,12,-1
 54 527 l 1,13,-1
 450 527 l 1,14,-1
 450 451 l 1,15,-1
 161 451 l 1,16,-1
 364 205 l 1,17,-1
 364 138 l 1,18,-1
 285 138 l 2,19,20
 203 138 203 138 166 103.5 c 128,-1,21
 129 69 129 69 129 -4 c 0,22,23
 129 -67 129 -67 165.5 -102.5 c 128,-1,24
 202 -138 202 -138 269 -138 c 0,25,26
 318 -138 318 -138 355 -123 c 128,-1,27
 392 -108 392 -108 429 -74 c 1,28,-1
 481 -123 l 1,0,1
EndSplineSet
Validated: 1
Substitution2: "'smcp' Lowercase to Small Capitals lookup 27 subtable" uni01B9.sc
Substitution2: "'aalt' Access All Alternates lookup 0 subtable" uni01B9.sc
EndChar
StartChar: uni01BA
Encoding: 442 442 456
Width: 470
GlyphClass: 2
Flags: W
AnchorPoint: "Anchor-18" 0 0 basechar 0
AnchorPoint: "Anchor-17" 0 0 basechar 0
AnchorPoint: "Anchor-16" 221 527 basechar 0
AnchorPoint: "Anchor-15" 0 0 basechar 0
AnchorPoint: "Anchor-14" 235 -202 basechar 0
LayerCount: 2
Fore
SplineSet
61 -152.5 m 128,-1,1
 28 -118 28 -118 28 -75 c 0,2,3
 28 -25 28 -25 68 3 c 128,-1,4
 108 31 108 31 194 41 c 0,5,6
 275 51 275 51 310.5 71 c 128,-1,7
 346 91 346 91 346 136 c 0,8,9
 346 170 346 170 324 187 c 128,-1,10
 302 204 302 204 262 204 c 2,11,-1
 111 204 l 1,12,-1
 111 271 l 1,13,-1
 304 451 l 1,14,-1
 25 451 l 1,15,-1
 25 527 l 1,16,-1
 416 527 l 1,17,-1
 416 457 l 1,18,-1
 212 272 l 1,19,-1
 267 272 l 2,20,21
 350 272 350 272 397.5 236.5 c 128,-1,22
 445 201 445 201 445 135 c 0,23,24
 445 62 445 62 391 21.5 c 128,-1,25
 337 -19 337 -19 244 -30 c 0,26,27
 194 -36 194 -36 168.5 -42.5 c 128,-1,28
 143 -49 143 -49 132.5 -58.5 c 128,-1,29
 122 -68 122 -68 122 -83 c 0,30,31
 122 -102 122 -102 140 -119 c 128,-1,32
 158 -136 158 -136 195 -155 c 1,33,-1
 161 -215 l 1,34,0
 94 -187 94 -187 61 -152.5 c 128,-1,1
EndSplineSet
Validated: 1
EndChar
StartChar: uni01BB
Encoding: 443 443 1091
Width: 495
GlyphClass: 2
Flags: W
LayerCount: 2
Fore
SplineSet
445 77 m 1,0,-1
 434 0 l 1,1,-1
 39 0 l 1,2,-1
 39 73 l 1,3,4
 156 195 156 195 207 252 c 1,5,-1
 73 252 l 1,6,-1
 73 326 l 1,7,-1
 269 326 l 1,8,9
 305 374 305 374 319 411.5 c 128,-1,10
 333 449 333 449 333 492 c 0,11,12
 333 544 333 544 303 573.5 c 128,-1,13
 273 603 273 603 223 603 c 0,14,15
 182 603 182 603 151 586 c 128,-1,16
 120 569 120 569 85 530 c 1,17,-1
 25 578 l 1,18,19
 66 629 66 629 116 654 c 128,-1,20
 166 679 166 679 228 679 c 0,21,22
 288 679 288 679 333.5 655 c 128,-1,23
 379 631 379 631 404 589.5 c 128,-1,24
 429 548 429 548 429 496 c 0,25,26
 429 452 429 452 415 411 c 128,-1,27
 401 370 401 370 370 326 c 1,28,-1
 441 326 l 1,29,-1
 441 252 l 1,30,-1
 312 252 l 1,31,32
 262 195 262 195 144 77 c 1,33,-1
 445 77 l 1,0,-1
EndSplineSet
Validated: 1
EndChar
StartChar: uni01BD
Encoding: 445 445 665
Width: 452
GlyphClass: 2
Flags: W
AnchorPoint: "Anchor-18" 0 0 basechar 0
AnchorPoint: "Anchor-17" 0 0 basechar 0
AnchorPoint: "Anchor-16" 226 527 basechar 0
AnchorPoint: "Anchor-15" 0 0 basechar 0
AnchorPoint: "Anchor-14" 226 0 basechar 0
LayerCount: 2
Fore
SplineSet
365 451 m 1,0,-1
 157 451 l 1,1,-1
 157 326 l 1,2,3
 177 336 177 336 197 341 c 128,-1,4
 217 346 217 346 248 346 c 0,5,6
 294 346 294 346 331.5 324.5 c 128,-1,7
 369 303 369 303 390.5 263.5 c 128,-1,8
 412 224 412 224 412 172 c 0,9,10
 412 118 412 118 386.5 76 c 128,-1,11
 361 34 361 34 314.5 11 c 128,-1,12
 268 -12 268 -12 206 -12 c 0,13,14
 149 -12 149 -12 108 6 c 128,-1,15
 67 24 67 24 30 59 c 1,16,-1
 80 114 l 1,17,18
 113 88 113 88 139 77.5 c 128,-1,19
 165 67 165 67 205 67 c 0,20,21
 253 67 253 67 283 94.5 c 128,-1,22
 313 122 313 122 313 174 c 0,23,24
 313 224 313 224 288 247.5 c 128,-1,25
 263 271 263 271 222 271 c 0,26,27
 194 271 194 271 175.5 266.5 c 128,-1,28
 157 262 157 262 131 250 c 1,29,-1
 66 250 l 1,30,-1
 66 527 l 1,31,-1
 381 527 l 1,32,-1
 365 451 l 1,0,-1
EndSplineSet
Validated: 1
Substitution2: "'smcp' Lowercase to Small Capitals lookup 27 subtable" uni01BD.sc
Substitution2: "'aalt' Access All Alternates lookup 0 subtable" uni01BD.sc
EndChar
StartChar: uni01BE
Encoding: 446 446 470
Width: 513
GlyphClass: 2
Flags: W
AnchorPoint: "Anchor-18" 0 0 basechar 0
AnchorPoint: "Anchor-17" 0 0 basechar 0
AnchorPoint: "Anchor-16" 211 739 basechar 0
AnchorPoint: "Anchor-15" 0 0 basechar 0
AnchorPoint: "Anchor-14" 231 0 basechar 0
LayerCount: 2
Fore
SplineSet
404.5 364 m 128,-1,1
 456 310 456 310 456 212 c 0,2,3
 456 148 456 148 428 97.5 c 128,-1,4
 400 47 400 47 348.5 18 c 128,-1,5
 297 -11 297 -11 229 -11 c 0,6,7
 170 -11 170 -11 122.5 9.5 c 128,-1,8
 75 30 75 30 30 74 c 1,9,-1
 80 126 l 1,10,11
 116 94 116 94 151 78.5 c 128,-1,12
 186 63 186 63 227 63 c 0,13,14
 293 63 293 63 325.5 103 c 128,-1,15
 358 143 358 143 358 214 c 256,16,17
 358 285 358 285 327.5 322 c 128,-1,18
 297 359 297 359 233 375 c 2,19,-1
 162 391 l 1,20,-1
 162 545 l 1,21,-1
 84 545 l 1,22,-1
 84 615 l 1,23,-1
 162 615 l 1,24,-1
 162 738 l 1,25,-1
 254 748 l 1,26,-1
 254 615 l 1,27,-1
 362 615 l 1,28,-1
 362 545 l 1,29,-1
 254 545 l 1,30,-1
 254 437 l 1,31,-1
 278 434 l 1,32,0
 353 418 353 418 404.5 364 c 128,-1,1
EndSplineSet
Validated: 1
EndChar
StartChar: uni01BF
Encoding: 447 447 712
Width: 589
GlyphClass: 2
Flags: W
AnchorPoint: "Anchor-18" 0 0 basechar 0
AnchorPoint: "Anchor-17" 0 0 basechar 0
AnchorPoint: "Anchor-16" 295 527 basechar 0
AnchorPoint: "Anchor-15" 0 0 basechar 0
AnchorPoint: "Anchor-14" 295 -202 basechar 0
LayerCount: 2
Fore
SplineSet
483 489.5 m 128,-1,1
 532 440 532 440 532 354 c 0,2,3
 532 275 532 275 498.5 217 c 128,-1,4
 465 159 465 159 407 116.5 c 128,-1,5
 349 74 349 74 258 27 c 2,6,-1
 187 -10 l 1,7,-1
 187 -202 l 1,8,-1
 95 -213 l 1,9,-1
 95 527 l 1,10,-1
 174 527 l 1,11,-1
 182 451 l 1,12,13
 217 494 217 494 258.5 516.5 c 128,-1,14
 300 539 300 539 358 539 c 0,15,0
 434 539 434 539 483 489.5 c 128,-1,1
388 207.5 m 128,-1,17
 433 265 433 265 433 352 c 0,18,19
 433 408 433 408 408.5 436.5 c 128,-1,20
 384 465 384 465 337 465 c 0,21,22
 254 465 254 465 187 385 c 1,23,-1
 187 66 l 1,24,-1
 246 98 l 2,25,16
 343 150 343 150 388 207.5 c 128,-1,17
EndSplineSet
Validated: 1
Substitution2: "'smcp' Lowercase to Small Capitals lookup 27 subtable" uni01BF.sc
Substitution2: "'aalt' Access All Alternates lookup 0 subtable" uni01BF.sc
EndChar
StartChar: uni01C0
Encoding: 448 448 1081
Width: 286
GlyphClass: 2
Flags: W
LayerCount: 2
Fore
SplineSet
186 749 m 1,0,-1
 186 0 l 1,1,-1
 100 0 l 1,2,-1
 100 739 l 1,3,-1
 186 749 l 1,0,-1
EndSplineSet
Validated: 1
EndChar
StartChar: uni01C2
Encoding: 450 450 1080
Width: 313
GlyphClass: 2
Flags: W
LayerCount: 2
Fore
SplineSet
298 408 m 1,0,-1
 200 408 l 1,1,-1
 200 322 l 1,2,-1
 298 322 l 1,3,-1
 298 259 l 1,4,-1
 200 259 l 1,5,-1
 200 0 l 1,6,-1
 114 0 l 1,7,-1
 114 259 l 1,8,-1
 15 259 l 1,9,-1
 15 322 l 1,10,-1
 114 322 l 1,11,-1
 114 408 l 1,12,-1
 15 408 l 1,13,-1
 15 471 l 1,14,-1
 114 471 l 1,15,-1
 114 739 l 1,16,-1
 200 749 l 1,17,-1
 200 471 l 1,18,-1
 298 471 l 1,19,-1
 298 408 l 1,0,-1
EndSplineSet
Validated: 1
EndChar
StartChar: uni01C3
Encoding: 451 451 1083
Width: 339
GlyphClass: 2
Flags: W
LayerCount: 2
Fore
SplineSet
212 749 m 1,0,-1
 212 210 l 1,1,-1
 126 210 l 1,2,-1
 126 739 l 1,3,-1
 212 749 l 1,0,-1
219 107 m 128,-1,5
 239 87 239 87 239 58 c 256,6,7
 239 29 239 29 219 8.5 c 128,-1,8
 199 -12 199 -12 169 -12 c 0,9,10
 140 -12 140 -12 120 8.5 c 128,-1,11
 100 29 100 29 100 58 c 256,12,13
 100 87 100 87 120 107 c 128,-1,14
 140 127 140 127 169 127 c 0,15,4
 199 127 199 127 219 107 c 128,-1,5
EndSplineSet
Validated: 1
EndChar
StartChar: uni01E4
Encoding: 484 484 111
Width: 641
GlyphClass: 2
Flags: W
AnchorPoint: "Anchor-18" 0 0 basechar 0
AnchorPoint: "Anchor-17" 0 0 basechar 0
AnchorPoint: "Anchor-16" 331 689 basechar 0
AnchorPoint: "Anchor-15" 0 0 basechar 0
AnchorPoint: "Anchor-14" 331 0 basechar 0
LayerCount: 2
Fore
SplineSet
636 169 m 1,0,-1
 569 169 l 1,1,-1
 569 49 l 1,2,3
 465 -12 465 -12 342 -12 c 0,4,5
 207 -12 207 -12 131 79 c 128,-1,6
 55 170 55 170 55 345 c 0,7,8
 55 457 55 457 96 537.5 c 128,-1,9
 137 618 137 618 205 659.5 c 128,-1,10
 273 701 273 701 352 701 c 0,11,12
 419 701 419 701 466.5 682.5 c 128,-1,13
 514 664 514 664 561 625 c 1,14,-1
 505 567 l 1,15,16
 468 597 468 597 434 610 c 128,-1,17
 400 623 400 623 354 623 c 0,18,19
 301 623 301 623 256.5 594.5 c 128,-1,20
 212 566 212 566 184 503.5 c 128,-1,21
 156 441 156 441 156 345 c 0,22,23
 156 200 156 200 203.5 133 c 128,-1,24
 251 66 251 66 344 66 c 0,25,26
 418 66 418 66 475 95 c 1,27,-1
 475 169 l 1,28,-1
 353 169 l 1,29,-1
 353 247 l 1,30,-1
 475 247 l 1,31,-1
 475 305 l 1,32,-1
 353 305 l 1,33,-1
 342 382 l 1,34,-1
 569 382 l 1,35,-1
 569 247 l 1,36,-1
 636 247 l 1,37,-1
 636 169 l 1,0,-1
EndSplineSet
Validated: 1
Substitution2: "'c2sc' Capitals to Small Capitals lookup 26 subtable" uni01E5.sc
Substitution2: "'aalt' Access All Alternates lookup 0 subtable" uni01E5.sc
Position2: "'cpsp' Capital Spacing lookup 0 subtable" dx=5 dy=0 dh=10 dv=0
EndChar
StartChar: uni01E5
Encoding: 485 485 478
Width: 520
GlyphClass: 2
Flags: W
AnchorPoint: "Anchor-18" 0 0 basechar 0
AnchorPoint: "Anchor-17" 0 0 basechar 0
AnchorPoint: "Anchor-16" 260 527 basechar 0
AnchorPoint: "Anchor-15" 0 0 basechar 0
AnchorPoint: "Anchor-14" 260 -202 basechar 0
LayerCount: 2
Fore
SplineSet
548 -86 m 5,0,-1
 495 -86 l 5,1,2
 482 -147 482 -147 420.5 -180 c 132,-1,3
 359 -213 359 -213 251 -213 c 4,4,5
 166 -213 166 -213 116.5 -195.5 c 132,-1,6
 67 -178 67 -178 46 -143 c 132,-1,7
 25 -108 25 -108 25 -53 c 5,8,-1
 108 -53 l 5,9,10
 108 -85 108 -85 120 -103.5 c 132,-1,11
 132 -122 132 -122 163 -131.5 c 132,-1,12
 194 -141 194 -141 251 -141 c 4,13,14
 322 -141 322 -141 360.5 -127.5 c 132,-1,15
 399 -114 399 -114 410 -86 c 5,16,-1
 265 -86 l 5,17,-1
 265 -23 l 5,18,-1
 407 -23 l 5,19,20
 384 21 384 21 299 21 c 6,21,-1
 216 21 l 6,22,23
 149 21 149 21 114.5 47.5 c 132,-1,24
 80 74 80 74 80 116 c 4,25,26
 80 142 80 142 95 166 c 132,-1,27
 110 190 110 190 138 209 c 5,28,29
 92 233 92 233 70.5 268.5 c 132,-1,30
 49 304 49 304 49 355 c 4,31,32
 49 408 49 408 75.5 450 c 132,-1,33
 102 492 102 492 148.5 515.5 c 132,-1,34
 195 539 195 539 252 539 c 4,35,36
 262 539 262 539 271 539 c 4,37,38
 278 539 278 539 284 539 c 4,39,40
 288 539 288 539 291 539 c 132,-1,41
 294 539 294 539 297 539 c 4,42,43
 299 539 299 539 301 539 c 132,-1,44
 303 539 303 539 305 539 c 4,45,46
 306 539 306 539 308 539 c 4,47,48
 319 539 319 539 356 544 c 4,49,50
 401 550 401 550 426 558 c 4,51,52
 457 570 457 570 493 586 c 5,53,-1
 520 503 l 5,54,55
 490 493 490 493 454 490 c 132,-1,56
 418 487 418 487 366 487 c 5,57,58
 459 445 459 445 459 354 c 4,59,60
 459 275 459 275 405 225 c 132,-1,61
 351 175 351 175 258 175 c 4,62,63
 222 175 222 175 191 185 c 5,64,65
 179 177 179 177 172 163.5 c 132,-1,66
 165 150 165 150 165 136 c 4,67,68
 165 93 165 93 234 93 c 6,69,-1
 318 93 l 6,70,71
 388 93 388 93 436 61 c 132,-1,72
 484 29 484 29 495 -23 c 5,73,-1
 548 -23 l 5,74,-1
 548 -86 l 5,0,-1
171.5 440.5 m 132,-1,76
 143 408 143 408 143 355 c 4,77,78
 143 301 143 301 172 268.5 c 132,-1,79
 201 236 201 236 254 236 c 4,80,81
 308 236 308 236 336.5 267.5 c 132,-1,82
 365 299 365 299 365 356 c 4,83,84
 365 473 365 473 252 473 c 4,85,75
 200 473 200 473 171.5 440.5 c 132,-1,76
EndSplineSet
Validated: 1
Substitution2: "'smcp' Lowercase to Small Capitals lookup 27 subtable" uni01E5.sc
Substitution2: "'aalt' Access All Alternates lookup 0 subtable" uni01E5.sc
EndChar
StartChar: gcaron
Encoding: 138 487 49
Width: 575
GlyphClass: 2
Flags: W
AnchorPoint: "Anchor-18" 300 264 basechar 0
AnchorPoint: "Anchor-17" 510 739 basechar 0
AnchorPoint: "Anchor-16" 298 739 basechar 0
AnchorPoint: "Anchor-15" -3 0 basechar 0
AnchorPoint: "Anchor-14" 305 0 basechar 0
LayerCount: 2
Fore
SplineSet
500 739 m 5,0,-1
 500 0 l 5,1,-1
 419 0 l 5,2,-1
 410 73 l 5,3,4
 384 33 384 33 345 10.5 c 132,-1,5
 306 -12 306 -12 258 -12 c 4,6,7
 164 -12 164 -12 111.5 62 c 132,-1,8
 59 136 59 136 59 261 c 4,9,10
 59 342 59 342 84 405 c 132,-1,11
 109 468 109 468 156 503.5 c 132,-1,12
 203 539 203 539 266 539 c 4,13,14
 347 539 347 539 408 474 c 5,15,-1
 408 750 l 5,16,-1
 500 739 l 5,0,-1
350 80.5 m 132,-1,18
 380 100 380 100 408 139 c 5,19,-1
 408 397 l 5,20,21
 382 431 382 431 352.5 448.5 c 132,-1,22
 323 466 323 466 286 466 c 4,23,24
 225 466 225 466 191.5 415 c 132,-1,25
 158 364 158 364 158 263 c 4,26,27
 158 161 158 161 189 111 c 132,-1,28
 220 61 220 61 278 61 c 4,29,17
 320 61 320 61 350 80.5 c 132,-1,18
EndSplineSet
Validated: 1
EndChar
StartChar: uni01E9
Encoding: 140 489 54
Width: 568
GlyphClass: 2
Flags: W
AnchorPoint: "Anchor-18" -25 0 basechar 0
AnchorPoint: "Anchor-17" -25 0 basechar 0
AnchorPoint: "Anchor-16" 272 527 basechar 0
AnchorPoint: "Anchor-15" -25 0 basechar 0
AnchorPoint: "Anchor-14" 272 -202 basechar 0
LayerCount: 2
Fore
SplineSet
460 467 m 128,-1,1
 507 395 507 395 507 264 c 0,2,3
 507 140 507 140 453 64 c 128,-1,4
 399 -12 399 -12 300 -12 c 0,5,6
 212 -12 212 -12 162 48 c 1,7,-1
 162 -202 l 1,8,-1
 70 -213 l 1,9,-1
 70 527 l 1,10,-1
 149 527 l 1,11,-1
 156 456 l 1,12,13
 185 496 185 496 226 517.5 c 128,-1,14
 267 539 267 539 312 539 c 0,15,0
 413 539 413 539 460 467 c 128,-1,1
408 264 m 0,17,18
 408 466 408 466 289 466 c 0,19,20
 250 466 250 466 218 443 c 128,-1,21
 186 420 186 420 162 384 c 1,22,-1
 162 127 l 1,23,24
 182 96 182 96 212 79.5 c 128,-1,25
 242 63 242 63 278 63 c 0,26,16
 408 63 408 63 408 264 c 0,17,18
EndSplineSet
Validated: 1
EndChar
StartChar: uni01EA
Encoding: 490 490 216
Width: 692
GlyphClass: 2
Flags: W
AnchorPoint: "Anchor-18" 0 0 basechar 0
AnchorPoint: "Anchor-17" 549 689 basechar 0
AnchorPoint: "Anchor-16" 346 689 basechar 0
AnchorPoint: "Anchor-15" 445 0 basechar 0
AnchorPoint: "Anchor-14" 346 0 basechar 0
LayerCount: 2
Fore
SplineSet
583 118 m 128,-1,1
 529 29 529 29 435 1 c 1,2,-1
 435 0 l 1,3,4
 364 -31 364 -31 338 -57.5 c 128,-1,5
 312 -84 312 -84 312 -114 c 0,6,7
 312 -162 312 -162 368 -162 c 0,8,9
 395 -162 395 -162 429 -155 c 1,10,-1
 420 -225 l 1,11,12
 385 -232 385 -232 357 -232 c 0,13,14
 300 -232 300 -232 266 -203.5 c 128,-1,15
 232 -175 232 -175 232 -131 c 0,16,17
 232 -58 232 -58 314 -10 c 1,18,19
 236 -3 236 -3 177.5 40 c 128,-1,20
 119 83 119 83 87 160 c 128,-1,21
 55 237 55 237 55 343 c 0,22,23
 55 454 55 454 91.5 535 c 128,-1,24
 128 616 128 616 194 658.5 c 128,-1,25
 260 701 260 701 346 701 c 0,26,27
 433 701 433 701 498.5 659.5 c 128,-1,28
 564 618 564 618 600.5 538 c 128,-1,29
 637 458 637 458 637 344 c 0,30,0
 637 207 637 207 583 118 c 128,-1,1
536 344 m 0,32,33
 536 623 536 623 346 623 c 0,34,35
 256 623 256 623 206 555 c 128,-1,36
 156 487 156 487 156 343 c 0,37,38
 156 200 156 200 206.5 133 c 128,-1,39
 257 66 257 66 346 66 c 0,40,31
 536 66 536 66 536 344 c 0,32,33
EndSplineSet
Validated: 1
Substitution2: "'c2sc' Capitals to Small Capitals lookup 26 subtable" uni01EB.sc
Substitution2: "'aalt' Access All Alternates lookup 0 subtable" uni01EB.sc
Position2: "'cpsp' Capital Spacing lookup 0 subtable" dx=5 dy=0 dh=10 dv=0
EndChar
